<?xml version="1.0" standalone="no"?>
<!DOCTYPE svg PUBLIC "-//W3C//DTD SVG 1.1//EN" "http://www.w3.org/Graphics/SVG/1.1/DTD/svg11.dtd" >
<svg>
<metadata>
Created by FontForge 20090914 at Tue Oct 16 12:03:45 2012
 By www-data
Copyright (c) 2009 by Jos Buivenga. All rights reserved.
</metadata>
<defs>
<font id="MuseoSlab-900" horiz-adv-x="820" >
  <font-face 
    font-family="Museo Slab 900"
    font-weight="700"
    font-stretch="normal"
    units-per-em="1000"
    panose-1="2 0 0 0 0 0 0 0 0 0"
    ascent="750"
    descent="-250"
    x-height="514.999"
    cap-height="715"
    bbox="-129 -248.001 1230 931.001"
    underline-thickness="50"
    underline-position="-50"
    unicode-range="U+0020-U+FB04"
  />
<missing-glyph horiz-adv-x="510" 
d="M5 0v700h500v-700h-500zM255 395l170 255h-340zM285 350l170 -255v510zM55 95l170 255l-170 255v-510zM85 50h340l-170 255z" />
    <glyph glyph-name="f_f" unicode="ff" horiz-adv-x="795" 
d="M42 0l-0.00195312 125h65v265h-70v125h70v21c0 32 5.5 60.167 16.5 84.5s24.5 43 40.5 56s35 23.5 57 31.5s41.833 13.167 59.5 15.5s35.834 3.5 54.501 3.5l61 -4v-136c-8.66699 2 -22.667 3 -42 3c-49.333 0 -74 -16.667 -74 -50v-25h209v21c0 32 5.5 60.167 16.5 84.5
s24.5 43 40.5 56s35 23.5 57 31.5s41.833 13.167 59.5 15.5s35.834 3.5 54.501 3.5l61 -4v-136c-8.66699 2 -22.667 3 -42 3c-49.333 0 -74 -16.667 -74 -50v-25h106v-125h-106v-265h76v-125h-314v125h65v265h-209v-265h76v-125h-314z" />
    <glyph glyph-name="fi" unicode="fi" horiz-adv-x="752" 
d="M42 0l-0.000976562 125h65v265h-70v125h70v21c0 32 5.5 60.167 16.5 84.5s24.5 43 40.5 56s35 23.5 57 31.5s41.833 13.167 59.5 15.5s35.834 3.5 54.501 3.5l61 -4v-136c-8.66699 2 -22.667 3 -42 3c-49.333 0 -74 -16.667 -74 -50v-25h382v-390h65v-125h-303v125h65
v265h-209v-265h76v-125h-314zM490.999 580v135h169v-135h-169z" />
    <glyph glyph-name="fl" unicode="fl" horiz-adv-x="747" 
d="M42 0l0.00195312 124.999h65v265h-70v125h70v11c0 50 14 91.167 42 123.5s63.167 54.833 105.5 67.5s91.166 19 146.499 19c39.333 0 79.5 -2.66699 120.5 -8s72.5 -10.666 94.5 -15.999l32 -8v-504c0 -25.333 3.16699 -42.666 9.5 -51.999s19.166 -14 38.499 -14l21 1
v-137c-14.667 -2 -33 -3 -55 -3c-25.333 0 -47.666 2.16699 -66.999 6.5s-38.833 12.833 -58.5 25.5s-34.834 32.667 -45.501 60s-16 61.666 -16 102.999v408c-24.667 6 -52.667 9 -84 9c-74 0 -111 -25.667 -111 -77v-15h106v-125h-106v-265h76v-125h-314z" />
    <glyph glyph-name="f_f_i" unicode="ffi" horiz-adv-x="1134" 
d="M42 0l-0.00195312 125h65v265h-70v125h70v21c0 32 5.5 60.167 16.5 84.5s24.5 43 40.5 56s35 23.5 57 31.5s41.833 13.167 59.5 15.5s35.834 3.5 54.501 3.5l61 -4v-136c-8.66699 2 -22.667 3 -42 3c-49.333 0 -74 -16.667 -74 -50v-25h209v21c0 32 5.5 60.167 16.5 84.5
s24.5 43 40.5 56s35 23.5 57 31.5s41.833 13.167 59.5 15.5s35.834 3.5 54.501 3.5l61 -4v-136c-8.66699 2 -22.667 3 -42 3c-49.333 0 -74 -16.667 -74 -50v-25h382v-390h65v-125h-303v125h65v265h-209v-265h76v-125h-314v125h65v265h-209v-265h76v-125h-314zM872.998 580
v135h169v-135h-169z" />
    <glyph glyph-name="f_f_l" unicode="ffl" horiz-adv-x="1129" 
d="M42 0l0.000976562 124.999h65v265h-70v125h70v21c0 32 5.5 60.167 16.5 84.5s24.5 43 40.5 56s35 23.5 57 31.5s41.833 13.167 59.5 15.5s35.834 3.5 54.501 3.5l61 -4v-136c-8.66699 2 -22.667 3 -42 3c-49.333 0 -74 -16.667 -74 -50v-25h209v11
c0 50 14 91.167 42 123.5s63.167 54.833 105.5 67.5s91.166 19 146.499 19c39.333 0 79.5 -2.66699 120.5 -8s72.5 -10.666 94.5 -15.999l32 -8v-504c0 -25.333 3.16699 -42.666 9.5 -51.999s19.166 -14 38.499 -14l21 1v-137c-14.667 -2 -33 -3 -55 -3
c-25.333 0 -47.666 2.16699 -66.999 6.5s-38.833 12.833 -58.5 25.5s-34.834 32.667 -45.501 60s-16 61.666 -16 102.999v408c-24.667 6 -52.667 9 -84 9c-74 0 -111 -25.667 -111 -77v-15h106v-125h-106v-265h76v-125h-314v125h65v265h-209v-265h76v-125h-314z" />
    <glyph glyph-name="f_j" unicode="fj" horiz-adv-x="728" 
d="M42 0l-0.000976562 125.002h65v265h-70v125h70v21c0 32 5.5 60.167 16.5 84.5s24.5 43 40.5 56s35 23.5 57 31.5s41.833 13.167 59.5 15.5s35.834 3.5 54.501 3.5l61 -4v-136c-8.66699 2 -22.667 3 -42 3c-49.333 0 -74 -16.667 -74 -50v-25h381v-523
c0 -32.667 -6 -61.667 -18 -87s-26.667 -44.833 -44 -58.5s-37.666 -24.834 -60.999 -33.501s-44.333 -14.334 -63 -17.001s-37.334 -4 -56.001 -4l-46 3v135c6 -0.666992 13.333 -1 22 -1c62 0 93 23.667 93 71v390h-208v-265h76v-125h-314zM489.999 580.002v135h169v-135
h-169z" />
    <glyph glyph-name=".notdef" horiz-adv-x="510" 
d="M5 0v700h500v-700h-500zM255 395l170 255h-340zM285 350l170 -255v510zM55 95l170 255l-170 255v-510zM85 50h340l-170 255z" />
    <glyph glyph-name="space" unicode=" " horiz-adv-x="250" 
 />
    <glyph glyph-name="exclam" unicode="!" horiz-adv-x="294" 
d="M73 221l-16 494h180l-16 -494h-148zM68 0v150h158v-150h-158z" />
    <glyph glyph-name="quotedbl" unicode="&#x22;" horiz-adv-x="415" 
d="M242 490v240h122v-240h-122zM51 490v240h122v-240h-122z" />
    <glyph glyph-name="numbersign" unicode="#" horiz-adv-x="704" 
d="M102 0l31 180h-101l20 120h101l17 95h-99l20 120h99l35 200h134l-35 -200h108l35 200h134l-35 -200h105l-20 -120h-105l-17 -95h103l-20 -120h-103l-31 -180h-134l31 180h-108l-31 -180h-134zM287 300h108l17 95h-108z" />
    <glyph glyph-name="dollar" unicode="$" horiz-adv-x="577" 
d="M31 105l88 122.999c6.66699 -5.33301 15.667 -12.166 27 -20.499s32 -19.333 62 -33s57.333 -20.5 82 -20.5c22 0 40.667 5.16699 56 15.5s23 24.5 23 42.5c0 12 -6 23 -18 33s-27.5 18.833 -46.5 26.5s-40.167 15.667 -63.5 24s-46.5 18.333 -69.5 30
s-44 24.834 -63 39.501s-34.5 33.834 -46.5 57.501s-18 50.5 -18 80.5c0 50.667 17.833 94.5 53.5 131.5s81.5 60.833 137.5 71.5v109h109v-106c36 -4 69.333 -12.5 100 -25.5s52 -24.833 64 -35.5l19 -17l-70 -133c-6 4.66699 -14 10.5 -24 17.5s-28.833 16.333 -56.5 28
s-53.167 17.5 -76.5 17.5c-24 0 -43.5 -4.5 -58.5 -13.5s-22.5 -22.833 -22.5 -41.5c0 -13.333 6 -25.166 18 -35.499s27.5 -19.333 46.5 -27s40.167 -15.5 63.5 -23.5s46.5 -17.5 69.5 -28.5s44 -23.5 63 -37.5s34.5 -32.333 46.5 -55s18 -48.334 18 -77.001
c0 -52.667 -17.833 -99.334 -53.5 -140.001s-84.5 -65.667 -146.5 -75v-106h-109v106c-24.667 3.33301 -48.5 9 -71.5 17s-42.167 16.5 -57.5 25.5s-29 17.667 -41 26s-20.667 15.166 -26 20.499z" />
    <glyph glyph-name="percent" unicode="%" horiz-adv-x="854" 
d="M214 382c-50.667 0 -93.5 16.667 -128.5 50s-52.5 74 -52.5 122c0 47.333 17.667 88 53 122s78 51 128 51s92.667 -17 128 -51s53 -74.667 53 -122c0 -48 -17.667 -88.667 -53 -122s-78 -50 -128 -50zM73 0l552 715h152l-552 -715h-152zM214 502
c15.333 0 28.333 5.16699 39 15.5s16 22.833 16 37.5c0 14 -5.5 26.167 -16.5 36.5s-23.833 15.5 -38.5 15.5s-27.5 -5.16699 -38.5 -15.5s-16.5 -22.5 -16.5 -36.5c0 -14.667 5.33301 -27.167 16 -37.5s23.667 -15.5 39 -15.5zM460 160c0 47.333 17.667 88 53 122
s78 51 128 51s92.667 -17 128 -51s53 -74.667 53 -122c0 -48 -17.667 -88.667 -53 -122s-78 -50 -128 -50c-50.667 0 -93.5 16.667 -128.5 50s-52.5 74 -52.5 122zM586 161c0 -14.667 5.33301 -27.167 16 -37.5s23.667 -15.5 39 -15.5s28.333 5.16699 39 15.5
s16 22.833 16 37.5c0 14 -5.5 26.167 -16.5 36.5s-23.833 15.5 -38.5 15.5s-27.5 -5.16699 -38.5 -15.5s-16.5 -22.5 -16.5 -36.5z" />
    <glyph glyph-name="ampersand" unicode="&#x26;" horiz-adv-x="698" 
d="M34 205c0 38.667 11.334 73.6641 34.001 104.997s52.667 54 90 68v2l-10 5c-4 2 -11.5 7.33301 -22.5 16s-20.667 18.334 -29 29.001s-15.833 25.334 -22.5 44.001s-10 38.667 -10 60c0 64.667 23.667 113 71 145s104.666 48 171.999 48c16.667 0 33.834 -1 51.501 -3
s31.167 -4 40.5 -6l14 -3l-40 -137c-12 2.66699 -25 4 -39 4c-26.667 0 -48.834 -6.33301 -66.501 -19s-26.5 -30.667 -26.5 -54c0 -21.333 6.33301 -39.166 19 -53.499s30.667 -21.5 54 -21.5h107v93h172v-93h89v-140h-89v-74c0 -66 -25.167 -121.167 -75.5 -165.5
s-118.833 -66.5 -205.5 -66.5c-83.333 0 -150.5 20.833 -201.5 62.5s-76.5 93.167 -76.5 154.5zM213.001 220.997c0 -24 9.16602 -43 27.499 -57s42.833 -21 73.5 -21c32.667 0 58.667 8 78 24s29 37 29 63v64h-118c-25.333 0 -46.666 -6 -63.999 -18s-26 -30.333 -26 -55z
" />
    <glyph glyph-name="quotesingle" unicode="'" horiz-adv-x="227" 
d="M51 490v240h125v-240h-125z" />
    <glyph glyph-name="parenleft" unicode="(" horiz-adv-x="351" 
d="M177 -95c-82.667 130.667 -124 278 -124 442c0 141.333 41.333 275.666 124 402.999h142c-75.333 -126 -113 -260.333 -113 -403c0 -151.333 37.667 -298.666 113 -441.999h-142z" />
    <glyph glyph-name="parenright" unicode=")" horiz-adv-x="351" 
d="M32 -95c75.333 143.333 113 290.666 113 441.999c0 142.667 -37.667 277 -113 403h142c82.667 -127.333 124 -261.666 124 -402.999c0 -164 -41.333 -311.333 -124 -442h-142z" />
    <glyph glyph-name="asterisk" unicode="*" horiz-adv-x="490" 
d="M189 309l-122 88l75 83v2l-110 23l46 143l102 -45l-11 112h152l-12 -112l103 46l47 -143l-111 -23v-2l76 -83l-122 -89l-56 97h-2z" />
    <glyph glyph-name="plus" unicode="+" horiz-adv-x="630" 
d="M42 222v130h205v223h136v-223h205v-130h-205v-222h-136v222h-205z" />
    <glyph glyph-name="comma" unicode="," horiz-adv-x="291" 
d="M7 -111l75 277h165l-113 -277h-127z" />
    <glyph glyph-name="hyphen" unicode="-" horiz-adv-x="452" 
d="M69 212v150h314v-150h-314z" />
    <glyph glyph-name="period" unicode="." horiz-adv-x="284" 
d="M60 0v164h164v-164h-164z" />
    <glyph glyph-name="slash" unicode="/" horiz-adv-x="464" 
d="M32 -42l256 792h144l-256 -792h-144z" />
    <glyph glyph-name="zero" unicode="0" horiz-adv-x="628" 
d="M314 -12c-49.333 0 -91.833 9.5 -127.5 28.5s-63.5 45.833 -83.5 80.5s-34.667 73.667 -44 117s-14 91.666 -14 144.999s4.66699 101.5 14 144.5s24 81.667 44 116s47.833 60.833 83.5 79.5s78.167 28 127.5 28s91.833 -9.33301 127.5 -28s63.5 -45.167 83.5 -79.5
s34.667 -73 44 -116s14 -91.167 14 -144.5s-4.66699 -101.666 -14 -144.999s-24 -82.333 -44 -117s-47.833 -61.5 -83.5 -80.5s-78.167 -28.5 -127.5 -28.5zM314 143c59.333 0 89 72 89 216c0 142 -29.667 213 -89 213s-89 -71 -89 -213c0 -144 29.667 -216 89 -216z" />
    <glyph glyph-name="one" unicode="1" horiz-adv-x="542" 
d="M49 0v140h152v308l1 55h-2c-6 -13.333 -15.333 -26 -28 -38l-43 -39l-101 108l193 181h151v-575h153v-140h-476z" />
    <glyph glyph-name="two" unicode="2" horiz-adv-x="608" 
d="M45 0c-5.33301 30 -7.99805 55.667 -7.99805 77c0 41.333 8 79.5 24 114.5s35.833 63.5 59.5 85.5s49.334 43.333 77.001 64s53.334 38.334 77.001 53.001s43.5 31 59.5 49s24 36.333 24 55c0 26.667 -7.33301 45.667 -22 57s-33 17 -55 17
c-12.667 0 -25.334 -2.83301 -38.001 -8.5s-23.334 -12.5 -32.001 -20.5s-16.667 -16 -24 -24s-12.666 -15 -15.999 -21l-5 -8l-121 83l8.5 16.5c3.66699 7 12.667 19.333 27 37s30.166 33.334 47.499 47.001s41.166 26 71.499 37s62.833 16.5 97.5 16.5
c65.333 0 122.666 -18.833 171.999 -56.5s74 -91.834 74 -162.501c0 -38.667 -10.5 -74.334 -31.5 -107.001s-46.833 -60 -77.5 -82s-61.167 -42.333 -91.5 -61s-56.5 -38 -78.5 -58s-33.333 -40 -34 -60h180v85h150v-225h-515z" />
    <glyph glyph-name="three" unicode="3" horiz-adv-x="591" 
d="M53 500l0.00195312 215.002h472v-124l-134 -164c48 -11.333 86.167 -34.5 114.5 -69.5s42.5 -76.833 42.5 -125.5c0 -66.667 -23.333 -124 -70 -172s-113.334 -72 -200.001 -72c-30 0 -58.833 3.16699 -86.5 9.5s-50.667 14.166 -69 23.499s-34.5 18.666 -48.5 27.999
s-24 17 -30 23l-10 10l81 125l21 -17.5c8.66699 -7 26.167 -16.5 52.5 -28.5s51.833 -18 76.5 -18c31.333 0 56.166 7.66699 74.499 23s27.5 34.666 27.5 57.999c0 24.667 -9.83301 44.334 -29.5 59.001s-47.5 22 -83.5 22c-7.33301 0 -19 -0.666992 -35 -2l-37 80l125 159
l34 34v2c-16.667 -2 -31.667 -3 -45 -3h-93v-75h-150z" />
    <glyph glyph-name="four" unicode="4" horiz-adv-x="632" 
d="M20 173v106l276 436h214v-407h85v-135h-85v-173h-173v173h-317zM309 489l-115 -179v-2h143v173l7 74h-4c-8 -24 -18.333 -46 -31 -66z" />
    <glyph glyph-name="five" unicode="5" horiz-adv-x="591" 
d="M31 79l76.998 128c5.33301 -4.66699 12.5 -10.5 21.5 -17.5s27 -16.5 54 -28.5s53.167 -18 78.5 -18c31.333 0 57.5 8.16699 78.5 24.5s31.5 38.5 31.5 66.5c0 26 -10 47.167 -30 63.5s-49.333 24.5 -88 24.5c-19.333 0 -37.666 -2.16699 -54.999 -6.5
s-29.666 -8.83301 -36.999 -13.5l-11 -6l-93 35l29 384h419v-215h-150v75h-117l-6 -93l-4 -28h2c13.333 4.66699 34.666 7 63.999 7c80.667 0 143.667 -21.333 189 -64s68 -96.667 68 -162c0 -71.333 -25.667 -130.333 -77 -177s-118.333 -70 -201 -70
c-46 0 -89.167 7.66699 -129.5 23s-69.166 30.333 -86.499 45z" />
    <glyph glyph-name="six" unicode="6" horiz-adv-x="617" 
d="M330 -12c-80.667 0 -148.998 28.999 -204.998 86.999s-84 140.333 -84 247c0 53.333 7.5 104 22.5 152s36.667 91 65 129s65.166 68.167 110.499 90.5s95.666 33.5 150.999 33.5c27.333 0 53.666 -2.5 78.999 -7.5s44 -10.167 56 -15.5l18 -8l-46 -145
c-31.333 14 -64.666 21 -99.999 21c-40 0 -73 -11.167 -99 -33.5s-45 -52.166 -57 -89.499h2c25.333 16.667 61.333 25 108 25c70 0 126.833 -24.5 170.5 -73.5s65.5 -105.167 65.5 -168.5c0 -64.667 -23.833 -121.5 -71.5 -170.5s-109.5 -73.5 -185.5 -73.5z
M221.002 269.999c0 -31.333 10.833 -60.334 32.5 -87.001s47.167 -40 76.5 -40c22.667 0 41.167 8.33301 55.5 25s21.5 38.334 21.5 65.001c0 28 -9.66699 51.667 -29 71s-50 29 -92 29c-43.333 0 -65 -21 -65 -63z" />
    <glyph glyph-name="seven" unicode="7" horiz-adv-x="568" 
d="M71 0l266.999 532c4.66699 8.66699 9.33398 16.667 14.001 24l10 16l4 4v2c-14.667 -2 -32 -3 -52 -3h-130v-75h-150v215h519v-122l-300 -593h-182z" />
    <glyph glyph-name="eight" unicode="8" horiz-adv-x="614" 
d="M39 204c0 65.333 34.334 124.668 103.001 178.001c-50 38.667 -75 85.667 -75 141s20.5 103.166 61.5 143.499s99.833 60.5 176.5 60.5c71.333 0 130.5 -18 177.5 -54s70.5 -84.333 70.5 -145c0 -58 -24.667 -114.333 -74 -169c62 -39.333 93 -91 93 -155
c0 -58 -23.5 -108.5 -70.5 -151.5s-112.167 -64.5 -195.5 -64.5c-82.667 0 -147.834 21.5 -195.501 64.5s-71.5 93.5 -71.5 151.5zM238.001 519.002c0 -22.667 9.33203 -40.668 27.999 -54.001s49.334 -28.666 92.001 -45.999c17.333 27.333 26 56 26 86
c0 48 -25.667 72 -77 72c-46 0 -69 -19.333 -69 -58zM214 224.001c0 -25.333 8.66699 -46 26 -62s40 -24 68 -24c24.667 0 45 6.5 61 19.5s24 30.5 24 52.5c0 19.333 -8.5 35 -25.5 47s-48.167 27.667 -93.5 47l-19 8c-27.333 -28.667 -41 -58 -41 -88z" />
    <glyph glyph-name="nine" unicode="9" horiz-adv-x="618" 
d="M31 483c0 64.667 23.833 121.502 71.5 170.502s109.5 73.5 185.5 73.5c80.667 0 149 -29 205 -87s84 -140.333 84 -247c0 -52.667 -7.5 -102.834 -22.5 -150.501s-36.5 -90.667 -64.5 -129s-64.667 -68.833 -110 -91.5s-96.333 -34 -153 -34c-27.333 0 -54 2.66699 -80 8
s-45 10.666 -57 15.999l-18 7l46 145c32 -14 66 -21 102 -21c80 0 132.667 42 158 126h-2c-24 -16.667 -60.333 -25 -109 -25c-70 0 -126.833 24.167 -170.5 72.5s-65.5 103.833 -65.5 166.5zM211 483.002c0 -27.333 9.33301 -50.5 28 -69.5s48 -28.5 88 -28.5
c46.667 0 70 22 70 66c0 32.667 -11.5 61 -34.5 85s-48.167 36 -75.5 36c-21.333 0 -39.333 -8.66699 -54 -26s-22 -38.333 -22 -63z" />
    <glyph glyph-name="colon" unicode=":" horiz-adv-x="304" 
d="M70 351v164h164v-164h-164zM70 0v164h164v-164h-164z" />
    <glyph glyph-name="semicolon" unicode=";" horiz-adv-x="307" 
d="M84 351v164h158v-164h-158zM14 -111l65 277h166l-103 -277h-128z" />
    <glyph glyph-name="less" unicode="&#x3c;" horiz-adv-x="630" 
d="M53 234v107l504 223v-145l-330 -131v-2l330 -130v-145z" />
    <glyph glyph-name="equal" unicode="=" horiz-adv-x="630" 
d="M62 337v130h506v-130h-506zM62 107v130h506v-130h-506z" />
    <glyph glyph-name="greater" unicode="&#x3e;" horiz-adv-x="630" 
d="M73 11v145l330 130v2l-330 131v145l504 -223v-107z" />
    <glyph glyph-name="question" unicode="?" horiz-adv-x="506" 
d="M131 221v50.002c0 24.667 5.33301 47.5 16 68.5s23.834 38.333 39.501 52l46.5 39c15.333 12.333 28.333 25.5 39 39.5s16 28.667 16 44c0 16.667 -7 30.667 -21 42s-30.667 17 -50 17c-14 0 -29 -3.5 -45 -10.5s-28.333 -14.167 -37 -21.5l-13 -11l-96 117l9 9
c4 4 12.667 10.667 26 20s27.5 17.666 42.5 24.999s34.333 14 58 20s48.167 9 73.5 9c61.333 0 115.5 -17.5 162.5 -52.5s70.5 -82.833 70.5 -143.5c0 -30 -5.83301 -57.5 -17.5 -82.5s-26 -45.333 -43 -61s-33.833 -30.334 -50.5 -44.001s-30.834 -28 -42.501 -43
s-17.5 -30.5 -17.5 -46.5v-36h-166zM135 0.00195312v150h158v-150h-158z" />
    <glyph glyph-name="at" unicode="@" horiz-adv-x="834" 
d="M29 240c0 106.667 37.668 195.833 113.001 267.5s173.333 107.5 294 107.5c94.667 0 165.667 -22.5 213 -67.5s71 -102.5 71 -172.5v-198h74v-119h-283c-70.667 0 -126.167 18 -166.5 54s-60.5 78.667 -60.5 128c0 48 19.833 89.333 59.5 124s95.5 52 167.5 52h49
c0 20 -13.833 35.667 -41.5 47s-57.834 17 -90.501 17c-66 0 -120.833 -24.5 -164.5 -73.5s-65.5 -106.167 -65.5 -171.5c0 -64.667 22.5 -120 67.5 -166s106.5 -69 184.5 -69v-130c-128 0 -230.167 35 -306.5 105s-114.5 158.333 -114.5 265zM455.001 240.999
c0 -17.333 5.83203 -32.333 17.499 -45s27.834 -19 48.501 -19h39v134h-37c-22 0 -38.833 -6.5 -50.5 -19.5s-17.5 -29.833 -17.5 -50.5z" />
    <glyph glyph-name="A" unicode="A" horiz-adv-x="732" 
d="M10 0v130h59l195 585h204l195 -585h59v-130h-299v130h62l-27 95h-184l-27 -95h62v-130h-299zM312 361l106.999 0.000976562l-37 132c-3.33301 13.333 -6.16602 26.166 -8.49902 38.499s-3.83301 21.5 -4.5 27.5l-1 9h-4c-1.33301 -20.667 -6 -45.667 -14 -75z" />
    <glyph glyph-name="B" unicode="B" horiz-adv-x="707" 
d="M49 0v129.997h80v455h-80v130h334c56.667 0 100.334 -5 131.001 -15c38 -13.333 68.333 -35 91 -65s34 -65.333 34 -106c0 -32 -7.33301 -61.667 -22 -89s-35.667 -48.666 -63 -63.999v-2c40 -12 69 -32.833 87 -62.5s27 -63.5 27 -101.5
c0 -51.333 -15.333 -94.666 -46 -129.999s-68.334 -58.666 -113.001 -69.999c-28 -6.66699 -63.667 -10 -107 -10h-353zM308 437.997h88c20.667 0 36.334 6.5 47.001 19.5s16 29.5 16 49.5c0 32 -11 52.667 -33 62c-10.667 4 -25.334 6 -44.001 6h-74v-137zM308 139.997
l103.001 0.000976562c12.667 0 23.667 2 33 6c13.333 6 23.833 16.167 31.5 30.5s11.5 30.166 11.5 47.499c0 22 -6.33301 39.833 -19 53.5s-31.334 20.5 -56.001 20.5h-104v-158z" />
    <glyph glyph-name="C" unicode="C" horiz-adv-x="748" 
d="M34 359c0 106 36.001 193.832 108.001 263.499s160.667 104.5 266 104.5c25.333 0 52.833 -2.16699 82.5 -6.5s60.834 -11.5 93.501 -21.5s59.667 -25 81 -45s32 -43.333 32 -70v-113h-160v55c0 18 -12.5 31 -37.5 39s-52.833 12 -83.5 12
c-59.333 0 -107 -18.333 -143 -55s-54 -87.667 -54 -153c0 -72 19.167 -128.5 57.5 -169.5s88.166 -61.5 149.499 -61.5c26 0 52.333 3.83301 79 11.5s40 20.834 40 39.501v55h160v-115c0 -25.333 -10.333 -47.833 -31 -67.5s-46.834 -34.5 -78.501 -44.5
s-63 -17.333 -94 -22s-60.5 -7 -88.5 -7c-108.667 0 -199 35.5 -271 106.5s-108 159.167 -108 264.5z" />
    <glyph glyph-name="D" unicode="D" horiz-adv-x="788" 
d="M49 0l-0.000976562 130h80v455h-80v130h315c63.333 0 112.333 -5 147 -15c72.667 -20.667 130.834 -61 174.501 -121s65.5 -133.667 65.5 -221c0 -80.667 -19.167 -150.5 -57.5 -209.5s-90.833 -100.5 -157.5 -124.5c-44 -16 -101 -24 -171 -24h-316zM307.999 140
l52 0.000976562c44 0 80.333 6.66699 109 20c30.667 15.333 54.5 40.166 71.5 74.499s25.5 75.166 25.5 122.499c0 51.333 -9.83301 94.333 -29.5 129s-46.5 59.334 -80.5 74.001c-24 10 -56 15 -96 15h-52v-435z" />
    <glyph glyph-name="E" unicode="E" horiz-adv-x="659" 
d="M49 0v130h80v455h-80v130h551v-211h-150v71h-142v-145h209v-140h-209v-150h154v71h150v-211h-563z" />
    <glyph glyph-name="F" unicode="F" horiz-adv-x="607" 
d="M49 0v130h80v455h-80v130h533v-211h-150v61h-124v-155h210v-140h-210v-140h90v-130h-349z" />
    <glyph glyph-name="G" unicode="G" horiz-adv-x="768" 
d="M34 362c0 107.333 35.833 195.001 107.5 263.001s163.5 102 275.5 102c45.333 0 89.5 -5.16699 132.5 -15.5s79.667 -26.5 110 -48.5s45.5 -47.333 45.5 -76v-116h-160v52c0 17.333 -11.167 30.666 -33.5 39.999s-50.5 14 -84.5 14
c-65.333 0 -116.333 -17.833 -153 -53.5s-55 -86.834 -55 -153.501c0 -68.667 19.167 -124.5 57.5 -167.5s91.833 -64.5 160.5 -64.5c30.667 0 59 4 85 12s39 21.333 39 40v49h-115v130h275v-238c0 -25.333 -10.833 -47.666 -32.5 -66.999s-49 -34.333 -82 -45
s-66 -18.5 -99 -23.5s-63.833 -7.5 -92.5 -7.5c-110 0 -201 35.5 -273 106.5s-108 160.167 -108 267.5z" />
    <glyph glyph-name="H" unicode="H" horiz-adv-x="872" 
d="M49 0v130h80v455h-80v130h339v-130h-80v-160h256v160h-80v130h339v-130h-80v-455h80v-130h-339v130h80v155h-256v-155h80v-130h-339z" />
    <glyph glyph-name="I" unicode="I" horiz-adv-x="437" 
d="M49 0v130h80v455h-80v130h339v-130h-80v-455h80v-130h-339z" />
    <glyph glyph-name="J" unicode="J" horiz-adv-x="582" 
d="M14 210v61.998h170v-48c0 -25.333 4 -45.166 12 -59.499s24.333 -21.5 49 -21.5c37.333 0 56 27 56 81v361h-90v130h339v-130h-70v-365c0 -74 -23.333 -131.167 -70 -171.5s-102 -60.5 -166 -60.5c-63.333 0 -117.5 18.833 -162.5 56.5s-67.5 92.834 -67.5 165.501z" />
    <glyph glyph-name="K" unicode="K" horiz-adv-x="751" 
d="M49 0l0.000976562 129.999h80v455h-80v130h311v-130h-52v-151h60l105 151h-54v130h294v-130h-60l-152 -205v-2c20 -9.33301 38.333 -30.666 55 -63.999l81 -161c7.33301 -15.333 22 -23 44 -23h31v-130h-122c-28.667 0 -50.334 4.16699 -65.001 12.5
s-26.667 21.833 -36 40.5l-107 218c-8 15.333 -24.667 23 -50 23h-24v-164h75v-130h-334z" />
    <glyph glyph-name="L" unicode="L" horiz-adv-x="634" 
d="M50 0v130h80v445h-80v140h339v-140h-80v-435h154v105h150v-245h-563z" />
    <glyph glyph-name="M" unicode="M" horiz-adv-x="986" 
d="M35 0l-0.00292969 130h78l38 455h-80v130h281l120 -354l20 -74h2c3.33301 20 10 44.667 20 74l120 354h281v-130h-80l38 -455h78v-130h-324v130h71l-17 257c-0.666992 8.66699 -0.666992 19.667 0 33s1.66699 24.666 3 33.999l1 13h-4
c-5.33301 -30.667 -11.666 -56 -18.999 -76l-94 -261h-150l-94 261c-3.33301 8.66699 -6.5 19.334 -9.5 32.001s-5.16699 23 -6.5 31l-3 13h-4c0.666992 -4 1.33398 -9 2.00098 -15s1.33398 -16.167 2.00098 -30.5s0.666992 -25.833 0 -34.5l-17 -257h71v-130h-324z" />
    <glyph glyph-name="N" unicode="N" horiz-adv-x="859" 
d="M49 0v130h80v455h-80v130h261l224 -379c5.33301 -8.66699 10.5 -19 15.5 -31s8.5 -22 10.5 -30l4 -12h4c-4 32 -6 58.667 -6 80v242h-84v130h343v-130h-80v-585h-180l-225 377c-5.33301 8.66699 -10.5 19 -15.5 31s-8.5 22 -10.5 30l-4 12h-4c4 -32 6 -58.667 6 -80v-240
h84v-130h-343z" />
    <glyph glyph-name="O" unicode="O" 
d="M34 362c0 103.333 35.667 190 107 260s161 105 269 105s197.667 -35 269 -105s107 -156.667 107 -260c0 -106 -35.667 -194.833 -107 -266.5s-161 -107.5 -269 -107.5s-197.667 35.833 -269 107.5s-107 160.5 -107 266.5zM219 362c0 -62 18.667 -114 56 -156
s82.333 -63 135 -63s97.667 21 135 63s56 94 56 156c0 59.333 -18.667 109.166 -56 149.499s-82.333 60.5 -135 60.5s-97.667 -20.167 -135 -60.5s-56 -90.166 -56 -149.499z" />
    <glyph glyph-name="P" unicode="P" horiz-adv-x="681" 
d="M49 0l0.000976562 130.001h80v455h-80v130h356c52.667 0 92.667 -5.33301 120 -16c42 -16 75.5 -44.333 100.5 -85s37.5 -87.334 37.5 -140.001s-12.833 -100.167 -38.5 -142.5s-59.834 -70.833 -102.501 -85.5c-30 -10 -67.333 -15 -112 -15h-102v-101h80v-130h-339z
M308.001 371.001h76c24 0 45 5 63 15c25.333 16.667 38 46 38 88c0 40.667 -11.667 69 -35 85c-16.667 10.667 -37.667 16 -63 16h-79v-204z" />
    <glyph glyph-name="Q" unicode="Q" horiz-adv-x="827" 
d="M34 360c0 104.667 35.499 192.001 106.499 262.001s161.833 105 272.5 105c108 0 197.667 -33.167 269 -99.5s107 -151.5 107 -255.5c0 -82 -25.333 -155.667 -76 -221l77 -62l-99 -111l-75 71c-57.333 -40.667 -125.333 -61 -204 -61
c-109.333 0 -199.666 35.667 -270.999 107s-107 159.666 -107 264.999zM218.999 360.001c0 -61.333 18.833 -112.833 56.5 -154.5s83.5 -62.5 137.5 -62.5c32.667 0 59 6.33301 79 19l-94 87l96 109l95 -91c13.333 32 20 64.333 20 97c0 58 -19 107.167 -57 147.5
s-84.333 60.5 -139 60.5s-100.667 -20 -138 -60s-56 -90.667 -56 -152z" />
    <glyph glyph-name="R" unicode="R" horiz-adv-x="740" 
d="M49 0l-0.000976562 129.999h80v455h-80v130h323c63.333 0 111 -4.66699 143 -14c44 -13.333 78.833 -37.333 104.5 -72s38.5 -77.667 38.5 -129c0 -89.333 -38.667 -154.666 -116 -195.999v-2c18.667 -8 33.334 -22.333 44.001 -43l55 -106c8 -15.333 23.333 -23 46 -23
h25v-130h-118c-28.667 -0 -50.167 3.83301 -64.5 11.5s-26.5 21.5 -36.5 41.5l-87 167c-6 12 -13.333 20.167 -22 24.5s-22 6.5 -40 6.5h-36v-121h75v-130h-334zM307.999 390.999h81c60.667 0 91 31 91 93c0 40 -13 66.333 -39 79c-16 8 -39 12 -69 12h-64v-184z" />
    <glyph glyph-name="S" unicode="S" horiz-adv-x="618" 
d="M40 254h160.002v-53c0 -18 9.83301 -32.167 29.5 -42.5s44.167 -15.5 73.5 -15.5c28.667 0 51.834 5 69.501 15s26.5 24.333 26.5 43c0 8.66699 -2.33301 16.834 -7 24.501s-10 14.167 -16 19.5s-14.833 10.833 -26.5 16.5s-21.834 10.167 -30.501 13.5l-37 14l-37 14
c-28.667 10.667 -52.5 21.167 -71.5 31.5s-38.333 23.666 -58 39.999s-34.334 36.5 -44.001 60.5s-14.5 51.667 -14.5 83c0 38 7.33301 71 22 99s34.5 49.833 59.5 65.5s52 27 81 34s60.5 10.5 94.5 10.5c42 0 81 -5 117 -15s66 -25.5 90 -46.5s36 -46.167 36 -75.5v-106
h-160v45c0 13.333 -8 23.833 -24 31.5s-35.667 11.5 -59 11.5c-51.333 0 -77 -16.333 -77 -49c0 -12 3 -22.5 9 -31.5s16 -17.333 30 -25s26.333 -13.834 37 -18.501s26.667 -10.667 48 -18c26.667 -9.33301 48.5 -17.5 65.5 -24.5s36.167 -16.833 57.5 -29.5
s38.166 -26 50.499 -40s22.833 -31.667 31.5 -53s13 -45 13 -71c0 -39.333 -7.83301 -73.833 -23.5 -103.5s-37 -53 -64 -70s-56.333 -29.667 -88 -38s-65.167 -12.5 -100.5 -12.5c-71.333 0 -133 15.333 -185 46s-78 73.334 -78 128.001v92z" />
    <glyph glyph-name="T" unicode="T" horiz-adv-x="695" 
d="M178 0v130h80v445h-85v-101h-150v241h649v-241h-150v101h-85v-445h80v-130h-339z" />
    <glyph glyph-name="U" unicode="U" 
d="M107 273v312h-80v130h339v-130h-80v-312c0 -32 6 -58.333 18 -79c20 -34 55.667 -51 107 -51c48 0 82.667 16.667 104 50c12.667 20.667 19 47.334 19 80.001v312h-80v130h339v-130h-80v-312c0 -75.333 -19.667 -137.333 -59 -186
c-26.667 -32.667 -61.667 -57.334 -105 -74.001s-89.666 -25 -138.999 -25c-50.667 0 -97.334 8.5 -140.001 25.5s-77 40.5 -103 70.5c-40 46 -60 109 -60 189z" />
    <glyph glyph-name="V" unicode="V" horiz-adv-x="732" 
d="M274 0l-203.999 585h-60v130h316v-130h-70l94 -314c3.33301 -10.667 6.16602 -22.5 8.49902 -35.5s3.83301 -23.5 4.5 -31.5l1 -11h4c2 28.667 6.66699 54.667 14 78l94 314h-70v130h316v-130h-60l-204 -585h-184z" />
    <glyph glyph-name="W" unicode="W" horiz-adv-x="1032" 
d="M12 585v129.998h317v-130h-83l66 -317l9 -75h4c2 26.667 6 51.667 12 75l110 447h138l110 -447c2.66699 -10.667 5 -22.167 7 -34.5s3.33301 -22.166 4 -29.499l1 -11h4c1.33301 26.667 4.33301 51.667 9 75l66 317h-83v130h317v-130h-60l-142 -585h-197l-91 366
c-2.66699 10.667 -5 22.5 -7 35.5s-3.33301 23.5 -4 31.5l-1 12h-4c-2 -29.333 -6 -55.666 -12 -78.999l-91 -366h-197l-142 585h-60z" />
    <glyph glyph-name="X" unicode="X" horiz-adv-x="725" 
d="M34 0l0.000976562 130h57l176 235l-168 220h-60v130h304v-130h-62l68 -90l23 -33h2l2 4c2 2 4.83301 6 8.5 12s7.5 11.667 11.5 17l66 90h-60v130h288v-130h-57l-175 -232l172 -223h58v-130h-304v130h64l-72 94l-23 34h-2c-0.666992 0 -1.83398 -1.33301 -3.50098 -4
l-8 -13l-10.5 -17l-67 -94h62v-130h-290z" />
    <glyph glyph-name="Y" unicode="Y" horiz-adv-x="671" 
d="M166 0l0.000976562 130h80v163l-175 292h-61v130h296v-130h-60l73 -132l16 -35h2c3.33301 10 8.66602 21.667 15.999 35l73 132h-60v130h295v-130h-61l-175 -292v-163h80v-130h-339z" />
    <glyph glyph-name="Z" unicode="Z" horiz-adv-x="660" 
d="M49 0v110l305 432c4 6 8.66699 11.833 14 17.5s9.66602 9.83398 12.999 12.501l5 4v2c-15.333 -2 -29.666 -3 -42.999 -3h-140v-101h-150v241h549v-108l-306 -434c-4 -6 -8.66699 -11.833 -14 -17.5s-9.66602 -9.83398 -12.999 -12.501l-5 -4v-2
c15.333 2 29.666 3 42.999 3h157v105h150v-245h-565z" />
    <glyph glyph-name="bracketleft" unicode="[" horiz-adv-x="360" 
d="M82 -95v845h246v-120h-102v-605h102v-120h-246z" />
    <glyph glyph-name="backslash" unicode="\" horiz-adv-x="464" 
d="M288 -42l-256 792h144l256 -792h-144z" />
    <glyph glyph-name="bracketright" unicode="]" horiz-adv-x="360" 
d="M32 25h102v605h-102v120h246v-845h-246v120z" />
    <glyph glyph-name="asciicircum" unicode="^" horiz-adv-x="630" 
d="M58 241l203 474h107l203 -474h-145l-112 300l-111 -300h-145z" />
    <glyph glyph-name="underscore" unicode="_" horiz-adv-x="586" 
d="M-5 0h596v-130h-596v130z" />
    <glyph glyph-name="grave" unicode="`" horiz-adv-x="484" 
d="M244 761l-151 150h177l116 -150h-142z" />
    <glyph glyph-name="a" unicode="a" horiz-adv-x="583" 
d="M23 147c0 35.333 10.167 65.333 30.5 90s46.5 42.5 78.5 53.5s61.333 18.667 88 23s52.667 6.5 78 6.5h31v15c0 38 -24.333 57 -73 57c-20.667 0 -42.834 -4 -66.501 -12s-42.167 -16 -55.5 -24l-20 -13l-60 117l10.5 7.5c4.33301 3 13.833 8.33301 28.5 16
s30 14.5 46 20.5s36.167 11.333 60.5 16s48.5 7 72.5 7c74.667 0 131.667 -18 171 -54s59 -88 59 -156v-170c0 -14.667 7.33301 -22 22 -22h38v-125h-149c-23.333 -0 -40.666 5.33301 -51.999 16s-17 23.334 -17 38.001v3l2 16h-2c-1.33301 -2 -3.16602 -5 -5.49902 -9
s-7.83301 -10.833 -16.5 -20.5s-18.334 -18.334 -29.001 -26.001s-25 -14.5 -43 -20.5s-37.333 -9 -58 -9c-47.333 0 -87.333 14 -120 42s-49 67 -49 117zM197 159c0 -13.333 4.16699 -24.333 12.5 -33s19.5 -13 33.5 -13c21.333 0 41.333 10.667 60 32s28 43.333 28 66v12
h-16c-32 0 -59.667 -5.33301 -83 -16s-35 -26.667 -35 -48z" />
    <glyph glyph-name="b" unicode="b" horiz-adv-x="642" 
d="M71 0v590h-70v125h243v-199l-2 -44h2c3.33301 4 8.5 9 15.5 15s22.667 14.167 47 24.5s49.833 15.5 76.5 15.5c70 0 126.167 -24.833 168.5 -74.5s63.5 -114.834 63.5 -195.501s-22.667 -145.667 -68 -195s-102.666 -74 -171.999 -74
c-30.667 0 -57.834 5.33301 -81.501 16s-39.5 21.334 -47.5 32.001l-12 15h-2c0.666992 -12 1 -23.333 1 -34v-17h-162zM239 254c0 -33.333 8.83301 -62.167 26.5 -86.5s42.5 -36.5 74.5 -36.5c28.667 0 52.667 11 72 33s29 52 29 90s-9.33301 68.667 -28 92s-43 35 -73 35
c-28.667 0 -52.667 -10.667 -72 -32s-29 -53 -29 -95z" />
    <glyph glyph-name="c" unicode="c" horiz-adv-x="567" 
d="M25 256c0 76 26.5 140.166 79.5 192.499s120.5 78.5 202.5 78.5c37.333 0 72.333 -4.16699 105 -12.5s61.167 -22.666 85.5 -42.999s36.5 -45.5 36.5 -75.5v-82h-147v31c0 12 -7 21.333 -21 28s-31.333 10 -52 10c-38.667 0 -67.5 -11 -86.5 -33s-28.5 -51.333 -28.5 -88
c0 -43.333 12.167 -76 36.5 -98s55.5 -33 93.5 -33c55.333 0 107 19 155 57l58 -121c-27.333 -24.667 -61 -44 -101 -58s-81 -21 -123 -21c-80 0 -148.833 24.5 -206.5 73.5s-86.5 113.833 -86.5 194.5z" />
    <glyph glyph-name="d" unicode="d" horiz-adv-x="663" 
d="M27 257c0 81.333 21.8281 146.668 65.4951 196.001s101.167 74 172.5 74c18.667 0 35.834 -1.83301 51.501 -5.5s28.334 -7.83398 38.001 -12.501s17.834 -9.5 24.501 -14.5s11.334 -9.16699 14.001 -12.5l4 -6h2c-0.666992 9.33301 -1 20.333 -1 33v81h-70v125h243v-568
c0 -14.667 7.33301 -22 22 -22h38v-125h-149c-23.333 -0 -40.666 5.33301 -51.999 16s-17 23.334 -17 38.001v3l2 16h-2c-1.33301 -2 -3 -5 -5 -9s-7.5 -10.833 -16.5 -20.5s-19 -18.334 -30 -26.001s-26 -14.5 -45 -20.5s-39.833 -9 -62.5 -9
c-68 0 -122.833 24.833 -164.5 74.5s-62.5 114.5 -62.5 194.5zM200.995 257.002c0 -37.333 9.33203 -67.667 27.999 -91s42.667 -35 72 -35c28 0 52 10.5 72 31.5s30 51.167 30 90.5c0 36 -8.66699 66.333 -26 91s-41.666 37 -72.999 37c-29.333 0 -53.833 -11 -73.5 -33
s-29.5 -52.333 -29.5 -91z" />
    <glyph glyph-name="e" unicode="e" horiz-adv-x="562" 
d="M25 258c0 77.333 24.334 141.5 73.001 192.5s113.667 76.5 195 76.5c75.333 0 134.166 -23.167 176.499 -69.5s63.5 -106.166 63.5 -179.499l-4 -52h-327c6 -31.333 20.167 -55 42.5 -71s48.166 -24 77.499 -24c22.667 0 46 4.16699 70 12.5s42.667 16.5 56 24.5l19 12
l63 -120c-6 -5.33301 -15 -12 -27 -20s-37.167 -18.667 -75.5 -32s-78.166 -20 -119.499 -20c-87.333 0 -156.333 26.667 -207 80s-76 116.666 -76 189.999zM206.001 321h148c0 20.667 -6.16699 38.5 -18.5 53.5s-27.833 22.5 -46.5 22.5c-44 0 -71.667 -25.333 -83 -76z
" />
    <glyph glyph-name="f" unicode="f" horiz-adv-x="413" 
d="M42 0l-0.000976562 125h65v265h-70v125h70v21c0 32 5.5 60.167 16.5 84.5s24.5 43 40.5 56s35 23.5 57 31.5s41.833 13.167 59.5 15.5s35.834 3.5 54.501 3.5l61 -4v-136c-8.66699 2 -22.667 3 -42 3c-49.333 0 -74 -16.667 -74 -50v-25h106v-125h-106v-265h76v-125h-314
z" />
    <glyph glyph-name="g" unicode="g" horiz-adv-x="654" 
d="M126 -38c42.667 -22 91.002 -32.998 145.002 -32.998c79.333 0 119 34.667 119 104v17l1 19h-2c-30 -36 -73 -54 -129 -54c-73.333 0 -130.333 25.333 -171 76s-61 111.667 -61 183c0 70.667 20 130.5 60 179.5s97 73.5 171 73.5c30 0 59.167 -5.66699 87.5 -17
s49.166 -28 62.499 -50h2c-0.666992 5.33301 -1 9.66602 -1 12.999c0 11.333 5.16699 21.166 15.5 29.499s24.5 12.5 42.5 12.5h156v-125h-39c-14.667 0 -22 -6.33301 -22 -19v-324c0 -45.333 -8.33301 -85 -25 -119s-39.334 -60.833 -68.001 -80.5
s-59.5 -34.167 -92.5 -43.5s-68.167 -14 -105.5 -14c-71.333 0 -136.333 15.333 -195 46zM301.002 159.002c26.667 0 48.832 8.5 66.499 25.5s26.5 46.167 26.5 87.5c0 74 -33.333 111 -100 111c-29.333 0 -52 -9.5 -68 -28.5s-24 -43.833 -24 -74.5
c0 -34.667 8.33301 -63.5 25 -86.5s41.334 -34.5 74.001 -34.5z" />
    <glyph glyph-name="h" unicode="h" horiz-adv-x="694" 
d="M28 0v125h65v465h-70v125h243v-226l-2 -44h2c14.667 25.333 36 45.333 64 60s59 22 93 22c123.333 0 185 -64.333 185 -193v-209h65v-125h-238v302c0 45.333 -19 68 -57 68c-36 0 -63.667 -13.667 -83 -41s-29 -61 -29 -101v-103h65v-125h-303z" />
    <glyph glyph-name="i" unicode="i" horiz-adv-x="373" 
d="M109 580v135h169v-135h-169zM42 0v125h65v265h-70v125h243v-390h65v-125h-303z" />
    <glyph glyph-name="j" unicode="j" horiz-adv-x="340" 
d="M98 580v135h169v-135h-169zM-19 -70c6 -0.666992 13.333 -0.998047 22 -0.998047c62 0 93 23.667 93 71v390h-71v125h244v-523c0 -32.667 -6 -61.667 -18 -87s-26.667 -44.833 -44 -58.5s-37.666 -24.834 -60.999 -33.501s-44.333 -14.334 -63 -17.001
s-37.334 -4 -56.001 -4l-46 3v135z" />
    <glyph glyph-name="k" unicode="k" horiz-adv-x="634" 
d="M28 0l-0.000976562 124.999h65v465h-70v125h243v-391h59l54 66h-49v125h268v-125h-63l-89 -108v-2c14.667 -7.33301 28.334 -22.666 41.001 -45.999l51 -92c6.66699 -11.333 19.334 -17 38.001 -17h25v-125h-126c-19.333 0 -34.333 2.5 -45 7.5
s-20.334 15.5 -29.001 31.5l-79 146c-6 11.333 -19.667 17 -41 17h-15v-77h37v-125h-275z" />
    <glyph glyph-name="l" unicode="l" horiz-adv-x="335" 
d="M63 190l0.00390625 400h-70v125h243v-515c0 -25.333 3.16699 -42.666 9.5 -51.999s19.166 -14 38.499 -14l21 1v-137c-16 -2 -33.333 -3 -52 -3c-26.667 0 -49.834 2.16699 -69.501 6.5s-39.334 12.833 -59.001 25.5s-34.834 32.667 -45.501 60s-16 61.666 -16 102.999z
" />
    <glyph glyph-name="m" unicode="m" horiz-adv-x="991" 
d="M42 0v125h65v244c0 14 -7.33301 21 -22 21h-48v125h163c23.333 0 41.166 -5.16699 53.499 -15.5s18.5 -24.5 18.5 -42.5v-17l-1 -12h2c42.667 66 97 99 163 99c66.667 0 111.334 -32.333 134.001 -97h2c14.667 28.667 37.167 52 67.5 70s64.5 27 102.5 27
c48 0 87 -15.5 117 -46.5s45 -79.833 45 -146.5v-209h65v-125h-238v305c0 43.333 -13.333 65 -40 65c-66 0 -99 -52.333 -99 -157v-88h65v-125h-238v305c0 43.333 -13.333 65 -40 65c-66 0 -99 -55.667 -99 -167v-78h65v-125h-303z" />
    <glyph glyph-name="n" unicode="n" horiz-adv-x="708" 
d="M42 0v124.999h65v243c0 14.667 -7.33301 22 -22 22h-48v125h164c23.333 0 41 -5.16699 53 -15.5s18 -24.5 18 -42.5v-17l-1 -12h2l5.5 10.5c2.33301 4.33301 8.5 12.333 18.5 24s21 21.834 33 30.501s28.667 16.5 50 23.5s44 10.5 68 10.5c116 0 174 -64.333 174 -193
v-209h65v-125h-238v302c0 45.333 -19.333 68 -58 68c-36 0 -63.5 -15.333 -82.5 -46s-28.5 -66 -28.5 -106v-93h65v-125h-303z" />
    <glyph glyph-name="o" unicode="o" horiz-adv-x="634" 
d="M25 256c0 79.333 28 144.333 84 195s125 76 207 76c82.667 0 152.167 -25.167 208.5 -75.5s84.5 -115.5 84.5 -195.5c0 -79.333 -28 -143.833 -84 -193.5s-125.333 -74.5 -208 -74.5s-152 24.833 -208 74.5s-84 114.167 -84 193.5zM200 256
c0 -37.333 11.333 -67.333 34 -90s50.334 -34 83.001 -34s60.334 11.333 83.001 34s34 52.667 34 90c0 38 -11.333 68.667 -34 92s-50.334 35 -83.001 35s-60.334 -11.667 -83.001 -35s-34 -54 -34 -92z" />
    <glyph glyph-name="p" unicode="p" horiz-adv-x="667" 
d="M31 -75l64.998 0.00195312v443c0 14.667 -7.33301 22 -22 22h-48v125h159c22.667 0 39.334 -4.33301 50.001 -13s16 -18.667 16 -30v-3l-1 -13h2c1.33301 2 3.33301 4.5 6 7.5s8.66699 8.66699 18 17s19.333 15.666 30 21.999s25.167 12 43.5 17s37.833 7.5 58.5 7.5
c70 0 126.167 -24.833 168.5 -74.5s63.5 -114.834 63.5 -195.501s-22.667 -145.667 -68 -195s-102.666 -74 -171.999 -74c-24.667 0 -48 4.16699 -70 12.5s-37.667 16.5 -47 24.5l-14 12h-2c1.33301 -12 2 -26.667 2 -44v-68h65v-125h-303v125zM263.998 254.002
c0 -33.333 8.83301 -62.167 26.5 -86.5s42.5 -36.5 74.5 -36.5c28.667 0 52.667 11 72 33s29 52 29 90s-9.33301 68.667 -28 92s-43 35 -73 35c-28.667 0 -52.667 -10.667 -72 -32s-29 -53 -29 -95z" />
    <glyph glyph-name="q" unicode="q" horiz-adv-x="642" 
d="M27 258c0 80.667 21.833 145.668 65.5 195.001s100.167 74 169.5 74c68 0 117 -20 147 -60h2c-1.33301 7.33301 -2 16.666 -2 27.999v20h162v-590h65v-125h-303v125h65v77l2 44h-2c-3.33301 -4 -8.33301 -9.33301 -15 -16s-22 -15.334 -46 -26.001s-50 -16 -78 -16
c-70 0 -126.167 24.833 -168.5 74.5s-63.5 114.834 -63.5 195.501zM201 258.001c0 -38 9.33301 -68.666 28 -91.999s43 -35 73 -35c28.667 0 52.667 10.667 72 32s29 53 29 95c0 33.333 -8.83301 62.166 -26.5 86.499s-42.5 36.5 -74.5 36.5c-28.667 0 -52.667 -11 -72 -33
s-29 -52 -29 -90z" />
    <glyph glyph-name="r" unicode="r" horiz-adv-x="476" 
d="M39 0l0.00195312 125h70v243c0 14.667 -7.33301 22 -22 22h-48v125h163c48.667 0 73 -22 73 -66v-27l-2 -26h2c11.333 36 32.166 66.333 62.499 91s64.166 37 101.499 37l20 -2v-170c-9.33301 2 -21 3 -35 3c-46.667 0 -82 -13.667 -106 -41s-36 -65.333 -36 -114v-75h70
v-125h-313z" />
    <glyph glyph-name="s" unicode="s" horiz-adv-x="509" 
d="M27 113l-0.00292969 69h145v-26c0 -24.667 25 -37 75 -37c42 0 63 10 63 30c0 4.66699 -0.666992 8.66699 -2 12s-3.66602 6.5 -6.99902 9.5s-6.66602 5.5 -9.99902 7.5s-8.33301 4.33301 -15 7s-12.667 4.83398 -18 6.50098l-23 7c-10 3 -18.667 5.83301 -26 8.5
c-23.333 8 -42.833 15.5 -58.5 22.5s-32.5 16.833 -50.5 29.5s-31.667 28.5 -41 47.5s-14 40.833 -14 65.5c0 38 12 69.167 36 93.5s51.5 40.666 82.5 48.999s65.167 12.5 102.5 12.5c21.333 0 42.833 -2 64.5 -6s42.667 -10.167 63 -18.5s37 -20 50 -35
s19.5 -32.5 19.5 -52.5v-70h-145v23c0 18.667 -17.333 28 -52 28c-32.667 0 -49 -8.66699 -49 -26c0 -14 7.33301 -24.833 22 -32.5s37.334 -15.5 68.001 -23.5c24.667 -6.66699 45.167 -13.167 61.5 -19.5s34.333 -15.5 54 -27.5s34.5 -27.5 44.5 -46.5
s15 -41.167 15 -66.5c0 -54.667 -22.5 -96 -67.5 -124s-100.833 -42 -167.5 -42c-53.333 0 -103.333 11 -150 33s-70 52.667 -70 92z" />
    <glyph glyph-name="t" unicode="t" horiz-adv-x="408" 
d="M89 190l0.00195312 199.999h-70v125h75v139h168v-139h108v-125h-108v-182c0 -47.333 30.667 -71 92 -71l23 1v-140c-12.667 -2 -28.334 -3 -47.001 -3c-16 0 -31.5 0.833008 -46.5 2.5s-32.333 4.83398 -52 9.50098s-37.334 11.667 -53.001 21s-30.5 20.833 -44.5 34.5
s-25 31.5 -33 53.5s-12 46.667 -12 74z" />
    <glyph glyph-name="u" unicode="u" horiz-adv-x="694" 
d="M91 181v209.001h-70v125h243v-307c0 -45.333 19 -68 57 -68c32.667 0 58.667 15.833 78 47.5s29 68.167 29 109.5v93h-70v125h243v-368c0 -14.667 7.33301 -22 22 -22h43v-125h-159c-23.333 0 -41 5.16699 -53 15.5s-18 24.5 -18 42.5v14l1 15h-2l-5.5 -10.5
c-2.33301 -4.33301 -8.33301 -12.333 -18 -24s-20.5 -21.834 -32.5 -30.501s-28.667 -16.5 -50 -23.5s-44.333 -10.5 -69 -10.5c-50 0 -90.667 15.167 -122 45.5s-47 79.5 -47 147.5z" />
    <glyph glyph-name="v" unicode="v" horiz-adv-x="624" 
d="M9 390l0.000976562 124.998h274v-125h-46l59 -186c3.33301 -9.33301 6.16602 -19.666 8.49902 -30.999s3.83301 -20.333 4.5 -27l1 -10h4c2 24.667 6.66699 47.334 14 68.001l59 186h-46v125h274v-125h-58l-143 -390h-204l-143 390h-58z" />
    <glyph glyph-name="w" unicode="w" horiz-adv-x="872" 
d="M10 390l-0.000976562 125.001h274v-125h-51l38 -179l8 -68h4c0.666992 25.333 3.33398 48 8.00098 68l71 304h148l71 -304c2 -8.66699 3.66699 -18.667 5 -30s2 -20.333 2 -27l1 -11h4c1.33301 25.333 4 48 8 68l38 179h-51v125h274v-125h-59l-98 -390h-200l-58 238
c-2.66699 9.33301 -4.66699 19.666 -6 30.999s-2.33301 20.333 -3 27v10h-4c-0.666992 -24 -3.66699 -46.667 -9 -68l-58 -238h-200l-98 390h-59z" />
    <glyph glyph-name="x" unicode="x" horiz-adv-x="582" 
d="M33 0v125h67l100 135l-95 130h-72v125h181l61 -100l22 -41h2c6.66699 14.667 14 28.334 22 41.001l63 100h164v-125h-61l-94 -126l105 -139h50v-125h-159l-72 110l-22 41h-2c-6.66699 -14.667 -14 -28.334 -22 -41.001l-68 -110h-170z" />
    <glyph glyph-name="y" unicode="y" horiz-adv-x="627" 
d="M65 -47c20 -16 48.333 -24.001 85 -24.001c44.667 0 73 14 85 42l2 5l-170 414h-58v125h283v-125h-50l63 -191c2.66699 -9.33301 5 -19.5 7 -30.5s3.33301 -19.833 4 -26.5l1 -10h4c3.33301 24 8.66602 46.333 15.999 67l61 191h-47v125h267v-125h-53l-166 -435
c-42 -110 -122 -165 -240 -165c-26.667 0 -52.167 3.33301 -76.5 10s-42.166 13.334 -53.499 20.001l-17 10z" />
    <glyph glyph-name="z" unicode="z" horiz-adv-x="552" 
d="M41 106l226 255.001c4.66699 5.33301 9.66699 10.333 15 15s9.33301 8 12 10l5 4v2c-17.333 -1.33301 -32.666 -2 -45.999 -2h-67v-62h-145v187h460v-107l-222 -254c-4.66699 -5.33301 -9.66699 -10.333 -15 -15s-9.33301 -8.33398 -12 -11.001l-5 -3v-2
c17.333 1.33301 32.666 2 45.999 2h78v62h145v-187h-475v106z" />
    <glyph glyph-name="braceleft" unicode="{" horiz-adv-x="385" 
d="M112 62l-0.00292969 98.001c0 18 -3 33.5 -9 46.5s-13 22.5 -21 28.5s-16.167 10.833 -24.5 14.5s-15.5 5.83398 -21.5 6.50098h-9v150c2 0 5 0.166992 9 0.5s10.833 2.33301 20.5 6s18.334 8.5 26.001 14.5s14.5 15.833 20.5 29.5s9 29.834 9 48.501v88
c0 33.333 6.83301 61.666 20.5 84.999s31.667 40.166 54 50.499s43.333 17.333 63 21s40.167 5.5 61.5 5.5l43 -2v-124c-7.33301 1.33301 -15.666 2 -24.999 2c-48.667 0 -73 -18 -73 -54v-117c0 -19.333 -2.83301 -36.833 -8.5 -52.5s-12.667 -27.834 -21 -36.501
s-16.666 -16.167 -24.999 -22.5s-15.5 -10.5 -21.5 -12.5l-8 -3v-2l9 -3c4 -1.33301 10.833 -5.16602 20.5 -11.499s18.167 -13.666 25.5 -21.999s14 -20.5 20 -36.5s9 -33.667 9 -53v-127c0 -36 24.333 -54 73 -54l25 2v-124c-12 -1.33301 -26.333 -2 -43 -2
c-21.333 0 -41.833 1.83301 -61.5 5.5s-40.667 10.667 -63 21s-40.333 27.166 -54 50.499s-20.5 51.666 -20.5 84.999z" />
    <glyph glyph-name="bar" unicode="|" horiz-adv-x="304" 
d="M80 -165v967h144v-967h-144z" />
    <glyph glyph-name="braceright" unicode="}" horiz-adv-x="385" 
d="M31 26c7.33301 -1.33301 15.6699 -2.00781 25.0029 -2.00781c48.667 0 73 18 73 54v127c0 19.333 2.83301 37 8.5 53s12.667 28.333 21 37s16.666 15.834 24.999 21.501s15.166 9.5 20.499 11.5l9 3v2c-2 0.666992 -5 1.83398 -9 3.50098s-10.833 5.66699 -20.5 12
s-18.167 13.833 -25.5 22.5s-14 20.834 -20 36.501s-9 33.167 -9 52.5v117c0 36 -24.333 54 -73 54l-25 -2v124c12 1.33301 26.333 2 43 2c21.333 0 41.833 -1.83301 61.5 -5.5s40.667 -10.667 63 -21s40.333 -27.166 54 -50.499s20.5 -51.666 20.5 -84.999v-88
c0 -29.333 7.16699 -52.166 21.5 -68.499s28.5 -25.5 42.5 -27.5l21 -3v-150c-2 0 -5 -0.166992 -9 -0.5s-10.833 -2.33301 -20.5 -6s-18.334 -8.5 -26.001 -14.5s-14.5 -15.5 -20.5 -28.5s-9 -28.5 -9 -46.5v-98c0 -33.333 -6.83301 -61.666 -20.5 -84.999
s-31.667 -40.166 -54 -50.499s-43.333 -17.333 -63 -21s-40.167 -5.5 -61.5 -5.5l-43 2v124z" />
    <glyph glyph-name="asciitilde" unicode="~" horiz-adv-x="629" 
d="M49 191c0 135.333 58 203 174 203c20.667 0 40.167 -4.16699 58.5 -12.5s32.666 -17.5 42.999 -27.5s21.833 -19.167 34.5 -27.5s24.667 -12.5 36 -12.5c16.667 0 30 6.5 40 19.5s15 31.833 15 56.5h133c0 -135.333 -57.667 -203 -173 -203
c-20.667 0 -40.167 4.16699 -58.5 12.5s-32.666 17.5 -42.999 27.5s-22 19.167 -35 27.5s-25.167 12.5 -36.5 12.5c-16 0 -29 -6.5 -39 -19.5s-15 -31.833 -15 -56.5h-134z" />
    <glyph glyph-name="uni00A0" unicode="&#xa0;" horiz-adv-x="232" 
 />
    <glyph glyph-name="exclamdown" unicode="&#xa1;" horiz-adv-x="292" 
d="M67 364v150h158v-150h-158zM56 -200l16 493h148l16 -493h-180z" />
    <glyph glyph-name="cent" unicode="&#xa2;" horiz-adv-x="580" 
d="M243 -12l0.00195312 87.002c-60.667 14 -111.334 47.167 -152.001 99.5s-61 113.5 -61 183.5c0 69.333 20.5 130.333 61.5 183s91.5 86 151.5 100v85h110v-85c45.333 -10 85.166 -30.167 119.499 -60.5s58.833 -67.5 73.5 -111.5l-154 -60
c-7.33301 21.333 -18.833 39.166 -34.5 53.499s-34.167 21.5 -55.5 21.5c-24.667 0 -47.167 -12 -67.5 -36s-30.5 -54 -30.5 -90c0 -40 9.5 -71 28.5 -93s42.167 -33 69.5 -33c21.333 0 40 7.16699 56 21.5s27.333 32.166 34 53.499l154 -60c-14 -40 -37.833 -77 -71.5 -111
s-74.167 -54.333 -121.5 -61v-87h-110z" />
    <glyph glyph-name="sterling" unicode="&#xa3;" horiz-adv-x="635" 
d="M39 0l-0.000976562 135.001h80v164h-73v112h73v100c0 63.333 23 115.166 69 155.499s104.333 60.5 175 60.5c34.667 0 68.334 -6.5 101.001 -19.5s56.667 -26.167 72 -39.5l23 -19l-91 -116c-34.667 26 -68 39 -100 39c-19.333 0 -35.833 -6 -49.5 -18
s-20.5 -28 -20.5 -48v-95h155v-112h-155v-159h153v105h150v-245h-562z" />
    <glyph glyph-name="yen" unicode="&#xa5;" horiz-adv-x="660" 
d="M77 167v96h163v28l-24 49h-139v96h92l-137 279h201l53 -143l43 -133h2c12.667 44.667 27 89 43 133l53 143h201l-138 -279h93v-96h-140l-24 -49v-28h164v-96h-164v-167h-179v167h-163z" />
    <glyph glyph-name="section" unicode="&#xa7;" horiz-adv-x="524" 
d="M141 179l-76.002 273.001c-6.66699 24.667 -10 49.667 -10 75c0 59.333 19.833 107.5 59.5 144.5s96.834 55.5 171.501 55.5c39.333 0 76.333 -6.5 111 -19.5s59.334 -25.833 74.001 -38.5l22 -19l-74 -108c-4 3.33301 -9.66699 7.66602 -17 12.999
s-22.5 12.333 -45.5 21s-45.833 13 -68.5 13c-65.333 0 -98 -27.667 -98 -83c0 -20 3.33301 -42.333 10 -67l72 -260h-131zM31.998 15.001l69.001 115.001c4.66699 -4 11 -9 19 -15s23.833 -14.167 47.5 -24.5s47.167 -15.5 70.5 -15.5c65.333 0 98 31.333 98 94
c0 21.333 -4.33301 47 -13 77l-68 240h131l74 -273c6.66699 -24.667 10 -49.667 10 -75c0 -59.333 -19.833 -107.5 -59.5 -144.5s-96.834 -55.5 -171.501 -55.5c-24.667 0 -48.667 2.66699 -72 8s-42.833 11.666 -58.5 18.999s-29.5 14.833 -41.5 22.5s-21 14.167 -27 19.5z
" />
    <glyph glyph-name="dieresis" unicode="&#xa8;" horiz-adv-x="485" 
d="M299 771v140h131v-140h-131zM55 771v140h131v-140h-131z" />
    <glyph glyph-name="copyright" unicode="&#xa9;" horiz-adv-x="788" 
d="M33 358c0 102 35 188.833 105 260.5s154.667 107.5 254 107.5c100.667 0 186.334 -35.833 257.001 -107.5s106 -158.5 106 -260.5s-35.333 -189.167 -106 -261.5s-156.334 -108.5 -257.001 -108.5c-98.667 0 -183.167 36.167 -253.5 108.5s-105.5 159.5 -105.5 261.5z
M146 358c0 -74.667 23.667 -137.834 71 -189.501s105.666 -77.5 174.999 -77.5c70.667 0 130.167 25.833 178.5 77.5s72.5 114.834 72.5 189.501c0 74 -24.167 136.667 -72.5 188s-107.833 77 -178.5 77c-69.333 0 -127.666 -25.667 -174.999 -77s-71 -114 -71 -188z
M222 355c0 52 17 96.167 51 132.5s74.333 54.5 121 54.5c24 0 46.167 -4 66.5 -12s36 -17.5 47 -28.5s20.5 -22.167 28.5 -33.5s13.333 -21 16 -29l4 -12l-100 -39l-5.5 13.5c-2.33301 5.66699 -8.33301 13 -18 22s-21.167 13.5 -34.5 13.5c-15.333 0 -29 -7.66699 -41 -23
s-18 -35 -18 -59c0 -26 5.5 -46.167 16.5 -60.5s25.167 -21.5 42.5 -21.5c13.333 0 24.833 4.16699 34.5 12.5s16.167 16.5 19.5 24.5l4 12l100 -39c-0.666992 -3.33301 -2 -7.5 -4 -12.5s-7.16699 -14.167 -15.5 -27.5s-18 -25 -29 -35s-26.667 -19.167 -47 -27.5
s-42.5 -12.5 -66.5 -12.5c-46.667 0 -87 18.167 -121 54.5s-51 80.5 -51 132.5z" />
    <glyph glyph-name="ordfeminine" unicode="&#xaa;" horiz-adv-x="417" 
d="M158 383c-27.333 0 -51.6709 9.50098 -73.0039 28.501s-32 43.5 -32 73.5c0 72.667 60.333 109 181 109h5v8c0 24 -15.667 36 -47 36c-11.333 0 -23.666 -2.33301 -36.999 -7s-23.666 -9 -30.999 -13l-12 -7l-38 75l16.5 10.5c7 4.33301 22.333 10.166 46 17.499
s48.834 11 75.501 11c46.667 0 82.5 -12 107.5 -36s37.5 -57 37.5 -99v-200h-108v39h-2c-2 -3.33301 -4.83301 -7.5 -8.5 -12.5s-13.167 -11.833 -28.5 -20.5s-32.666 -13 -51.999 -13zM192.995 472.001c12 0 22.5 4.66797 31.5 14.001s13.5 19.666 13.5 30.999v5h-10
c-38.667 0 -58 -10 -58 -30c0 -13.333 7.66699 -20 23 -20zM55.9951 268.002v85h305v-85h-305z" />
    <glyph glyph-name="guillemotleft" unicode="&#xab;" horiz-adv-x="652" 
d="M289 282l164 206h158l-164 -206l164 -205h-158zM193 77l-164 205l164 206h158l-164 -206l164 -205h-158z" />
    <glyph glyph-name="logicalnot" unicode="&#xac;" horiz-adv-x="593" 
d="M32 337v130h506v-335h-135v205h-371z" />
    <glyph glyph-name="uni00AD" unicode="&#xad;" horiz-adv-x="452" 
d="M69 212v150h314v-150h-314z" />
    <glyph glyph-name="registered" unicode="&#xae;" horiz-adv-x="788" 
d="M33 358c0 102 35 188.833 105 260.5s154.667 107.5 254 107.5c100.667 0 186.334 -35.833 257.001 -107.5s106 -158.5 106 -260.5s-35.333 -189.167 -106 -261.5s-156.334 -108.5 -257.001 -108.5c-98.667 0 -183.167 36.167 -253.5 108.5s-105.5 159.5 -105.5 261.5z
M146 358c0 -74.667 23.667 -137.834 71 -189.501s105.666 -77.5 174.999 -77.5c70.667 0 130.167 25.833 178.5 77.5s72.5 114.834 72.5 189.501c0 74 -24.167 136.667 -72.5 188s-107.833 77 -178.5 77c-69.333 0 -127.666 -25.667 -174.999 -77s-71 -114 -71 -188z
M262 187v347.001h163c37.333 0 67 -10.333 89 -31s33 -48.667 33 -84c0 -24.667 -6.5 -44.834 -19.5 -60.501s-25.833 -25.167 -38.5 -28.5v-2c2.66699 -2 7 -8.66699 13 -20l63 -121h-118l-49 118h-28v-118h-108zM370 377.001h27c26.667 0 40 14 40 42
c0 27.333 -12.667 41 -38 41h-29v-83z" />
    <glyph glyph-name="macron" unicode="&#xaf;" horiz-adv-x="485" 
d="M105 782v112h275v-112h-275z" />
    <glyph glyph-name="degree" unicode="&#xb0;" horiz-adv-x="420" 
d="M210 385c-50.667 0 -93.5 16.667 -128.5 50s-52.5 74 -52.5 122c0 47.333 17.667 88 53 122s78 51 128 51s92.667 -17 128 -51s53 -74.667 53 -122c0 -48 -17.667 -88.667 -53 -122s-78 -50 -128 -50zM210 505c15.333 0 28.333 5.16699 39 15.5s16 22.833 16 37.5
c0 14 -5.5 26.167 -16.5 36.5s-23.833 15.5 -38.5 15.5s-27.5 -5.16699 -38.5 -15.5s-16.5 -22.5 -16.5 -36.5c0 -14.667 5.33301 -27.167 16 -37.5s23.667 -15.5 39 -15.5z" />
    <glyph glyph-name="plusminus" unicode="&#xb1;" horiz-adv-x="630" 
d="M42 222v130h205v223h136v-223h205v-130h-205v-222h-136v222h-205zM52 -70h526v-130h-526v130z" />
    <glyph glyph-name="twosuperior" unicode="&#xb2;" horiz-adv-x="400" 
d="M27 474c0 31.333 7 59.3291 21 83.9961s31 44.334 51 59.001s40 27.667 60 39s37 22.666 51 33.999s21 23 21 35c0 10.667 -4.33301 19 -13 25s-18.667 9 -30 9c-12.667 0 -25 -3.83301 -37 -11.5s-21 -15.167 -27 -22.5l-9 -11l-83 71c1.33301 2.66699 3.5 6 6.5 10
s9.66699 11 20 21s21.5 19 33.5 27s27.833 15.167 47.5 21.5s40.167 9.5 61.5 9.5c44.667 0 82 -12 112 -36s45 -57 45 -99c0 -22 -4.66699 -42.333 -14 -61s-21.166 -33.667 -35.499 -45s-30 -22.166 -47 -32.499s-32.833 -19.166 -47.5 -26.499
s-27.334 -15.666 -38.001 -24.999s-17 -18.666 -19 -27.999h110v43h97v-141h-331c-4 22 -6 39 -6 51z" />
    <glyph glyph-name="threesuperior" unicode="&#xb3;" horiz-adv-x="393" 
d="M36 723l-0.000976562 141.002h311v-79l-88 -101c68 -14.667 102 -53.334 102 -116.001c0 -41.333 -15.333 -77.5 -46 -108.5s-73 -46.5 -127 -46.5c-32 0 -61.333 5.66699 -88 17s-45.334 22.666 -56.001 33.999l-16 17l61 85
c2.66699 -3.33301 6.33398 -7.33301 11.001 -12s15 -11 31 -19s32.333 -12 49 -12s29.834 4 39.501 12s14.5 18 14.5 30c0 24 -20.667 36 -62 36h-31l-24 57l72 89l24 23v4c-12 -2.66699 -23.333 -4 -34 -4h-46v-47h-97z" />
    <glyph glyph-name="acute" unicode="&#xb4;" horiz-adv-x="484" 
d="M98 761l116 150h177l-151 -150h-142z" />
    <glyph glyph-name="mu" unicode="&#xb5;" horiz-adv-x="630" 
d="M60 -200l-0.000976562 715h173v-302c0 -45.333 18.333 -68 55 -68c35.333 0 62.333 13.5 81 40.5s28 60.833 28 101.5v228h173v-515h-166v50l2 27h-3c-1.33301 -2.66699 -3.16602 -6 -5.49902 -10s-8 -11 -17 -21s-19 -19 -30 -27s-26.167 -15.167 -45.5 -21.5
s-40 -9.5 -62 -9.5l-42 4h-2c5.33301 -32 8 -61.333 8 -88v-104h-147z" />
    <glyph glyph-name="mu" unicode="&#x3bc;" horiz-adv-x="630" 
d="M60 -200l-0.000976562 715h173v-302c0 -45.333 18.333 -68 55 -68c35.333 0 62.333 13.5 81 40.5s28 60.833 28 101.5v228h173v-515h-166v50l2 27h-3c-1.33301 -2.66699 -3.16602 -6 -5.49902 -10s-8 -11 -17 -21s-19 -19 -30 -27s-26.167 -15.167 -45.5 -21.5
s-40 -9.5 -62 -9.5l-42 4h-2c5.33301 -32 8 -61.333 8 -88v-104h-147z" />
    <glyph glyph-name="paragraph" unicode="&#xb6;" horiz-adv-x="660" 
d="M256 -50v291c-64.667 0 -119.667 23 -165 69s-68 102.333 -68 169s22.667 122.667 68 168s100.333 68 165 68h357v-150h-237v-615h-120zM438 -50v565h120v-565h-120z" />
    <glyph glyph-name="periodcentered" unicode="&#xb7;" horiz-adv-x="296" 
d="M69 213v164h158v-164h-158z" />
    <glyph glyph-name="cedilla" unicode="&#xb8;" horiz-adv-x="484" 
d="M155 -104l44 133.001l72 -17v-7l-19 -55c27.333 -1.33301 50 -9.5 68 -24.5s27 -35.5 27 -61.5c0 -32.667 -13.667 -57.167 -41 -73.5s-60 -24.5 -98 -24.5c-10.667 0 -21.667 0.666992 -33 2s-20.333 2.66602 -27 3.99902l-9 3v75c14 -5.33301 30.333 -8 49 -8
c32 0 48 8.66699 48 26c0 18.667 -18.667 28 -56 28h-25z" />
    <glyph glyph-name="onesuperior" unicode="&#xb9;" horiz-adv-x="378" 
d="M37 423v98h99v153l4 30h-4c-3.33301 -6 -8 -11.667 -14 -17l-31 -27l-72 79l135 125h108v-343h100v-98h-325z" />
    <glyph glyph-name="ordmasculine" unicode="&#xba;" horiz-adv-x="458" 
d="M229 385c-51.333 0 -94.501 15.833 -129.501 47.5s-52.5 72.5 -52.5 122.5s17.5 90.833 52.5 122.5s77.833 47.5 128.5 47.5c52 0 95.667 -15.833 131 -47.5s53 -72.5 53 -122.5s-17.667 -90.833 -53 -122.5s-78.666 -47.5 -129.999 -47.5zM228.999 488
c18 0 32.998 6 44.998 18s18 28.333 18 49c0 20 -6.16699 36.333 -18.5 49s-27.166 19 -44.499 19s-32.166 -6.33301 -44.499 -19s-18.5 -29 -18.5 -49c0 -20.667 6 -37 18 -49s27 -18 45 -18zM59.9971 268v85h338v-85h-338z" />
    <glyph glyph-name="guillemotright" unicode="&#xbb;" horiz-adv-x="652" 
d="M301 77l164 205l-164 206h158l164 -206l-164 -205h-158zM41 77l164 205l-164 206h158l164 -206l-164 -205h-158z" />
    <glyph glyph-name="onequarter" unicode="&#xbc;" horiz-adv-x="1018" 
d="M810 0v92h-197v79l171 270h150v-257h53v-92h-53v-92h-124zM722 184h88v105l5 50h-4c-5.33301 -18 -12 -33.333 -20 -46l-69 -107v-2zM283 0l336 715h119l-336 -715h-119zM51 274v98h99v153l4 30h-4c-3.33301 -6 -8 -11.667 -14 -17l-31 -27l-72 79l135 125h108v-343h100
v-98h-325z" />
    <glyph glyph-name="onehalf" unicode="&#xbd;" horiz-adv-x="1008" 
d="M282 0l336 715h119l-336 -715h-119zM46 274v98h99v153l4 30h-4c-3.33301 -6 -8 -11.667 -14 -17l-31 -27l-72 79l135 125h108v-343h100v-98h-325zM635 51c0 31.333 7 59.3291 21 83.9961s31 44.334 51 59.001s40 27.667 60 39s37 22.666 51 33.999s21 23 21 35
c0 10.667 -4.33301 19 -13 25s-18.667 9 -30 9c-12.667 0 -25 -3.66699 -37 -11s-21 -15 -27 -23l-9 -11l-83 71c1.33301 2.66699 3.5 6 6.5 10s9.66699 11 20 21s21.5 19 33.5 27s27.833 15.167 47.5 21.5s40.167 9.5 61.5 9.5c44.667 0 82 -12 112 -36s45 -57 45 -99
c0 -22 -4.66699 -42.333 -14 -61s-21.166 -33.667 -35.499 -45s-30 -22.166 -47 -32.499s-32.833 -19.166 -47.5 -26.499s-27.334 -15.666 -38.001 -24.999s-17 -18.666 -19 -27.999h110v43h97v-141h-331c-4 22 -6 39 -6 51z" />
    <glyph glyph-name="threequarters" unicode="&#xbe;" horiz-adv-x="1017" 
d="M44 574l-0.000976562 141.002h311v-79l-88 -101c68 -14.667 102 -53.334 102 -116.001c0 -41.333 -15.333 -77.5 -46 -108.5s-73 -46.5 -127 -46.5c-32 0 -61.333 5.66699 -88 17s-45.334 22.666 -56.001 33.999l-16 17l61 85
c2.66699 -3.33301 6.33398 -7.33301 11.001 -12s15 -11 31 -19s32.333 -12 49 -12s29.834 4 39.501 12s14.5 18 14.5 30c0 24 -20.667 36 -62 36h-31l-24 57l72 89l24 23v4c-12 -2.66699 -23.333 -4 -34 -4h-46v-47h-97zM282.999 0.00195312l336 715h119l-336 -715h-119z
M809.999 0.00195312v92h-197v79l171 270h150v-257h53v-92h-53v-92h-124zM721.999 184.002h88v105l5 50h-4c-5.33301 -18 -12 -33.333 -20 -46l-69 -107v-2z" />
    <glyph glyph-name="questiondown" unicode="&#xbf;" horiz-adv-x="506" 
d="M213 365v150h158v-150h-158zM38 -14c0 30 5.83301 57.498 17.5 82.498s26 45.333 43 61s33.833 30.334 50.5 44.001s30.834 28 42.501 43s17.5 30.5 17.5 46.5v31h166v-45c0 -24.667 -5.33301 -47.5 -16 -68.5s-23.834 -38.333 -39.501 -52l-46.5 -39
c-15.333 -12.333 -28.333 -25.5 -39 -39.5s-16 -28.667 -16 -44c0 -16.667 7 -30.667 21 -42s30.667 -17 50 -17c14 0 29 3.5 45 10.5s28.333 14.167 37 21.5l13 11l96 -117l-9 -9c-4 -4 -12.667 -10.667 -26 -20s-27.5 -17.666 -42.5 -24.999s-34.333 -14 -58 -20
s-48.167 -9 -73.5 -9c-61.333 0 -115.5 17.5 -162.5 52.5s-70.5 82.833 -70.5 143.5z" />
    <glyph glyph-name="Agrave" unicode="&#xc0;" horiz-adv-x="730" 
d="M9 0v130h59l195 585h204l195 -585h59v-130h-299v130h62l-27 95h-184l-27 -95h62v-130h-299zM311 361l106.999 0.000976562l-37 132c-3.33301 13.333 -6.16602 26.166 -8.49902 38.499s-3.83301 21.5 -4.5 27.5l-1 9h-4c-1.33301 -20.667 -6 -45.667 -14 -75z
M310.999 761.001l-151 150h177l116 -150h-142z" />
    <glyph glyph-name="Aacute" unicode="&#xc1;" horiz-adv-x="732" 
d="M10 0v130h59l195 585h204l195 -585h59v-130h-299v130h62l-27 95h-184l-27 -95h62v-130h-299zM312 361l106.999 0.000976562l-37 132c-3.33301 13.333 -6.16602 26.166 -8.49902 38.499s-3.83301 21.5 -4.5 27.5l-1 9h-4c-1.33301 -20.667 -6 -45.667 -14 -75z
M273.999 761.001l116 150h177l-151 -150h-142z" />
    <glyph glyph-name="Acircumflex" unicode="&#xc2;" horiz-adv-x="732" 
d="M10 0v130h59l195 585h204l195 -585h59v-130h-299v130h62l-27 95h-184l-27 -95h62v-130h-299zM312 361l106.999 0.000976562l-37 132c-3.33301 13.333 -6.16602 26.166 -8.49902 38.499s-3.83301 21.5 -4.5 27.5l-1 9h-4c-1.33301 -20.667 -6 -45.667 -14 -75z
M180.999 761.001l99 150h168l99 -150h-135l-47 82h-2l-47 -82h-135z" />
    <glyph glyph-name="Atilde" unicode="&#xc3;" horiz-adv-x="732" 
d="M10 0v130h59l195 585h204l195 -585h59v-130h-299v130h62l-27 95h-184l-27 -95h62v-130h-299zM312 361l106.999 0.000976562l-37 132c-3.33301 13.333 -6.16602 26.166 -8.49902 38.499s-3.83301 21.5 -4.5 27.5l-1 9h-4c-1.33301 -20.667 -6 -45.667 -14 -75z
M162.999 761.001c0 102 42.667 153 128 153c19.333 0 36.666 -5 51.999 -15s29 -20 41 -30s23 -15 33 -15c24.667 0 37 19 37 57h112c0 -102 -42.667 -153 -128 -153c-19.333 0 -36.666 5 -51.999 15s-29 20 -41 30s-23 15 -33 15c-24.667 0 -37 -19 -37 -57h-112z" />
    <glyph glyph-name="Adieresis" unicode="&#xc4;" horiz-adv-x="732" 
d="M10 0v130h59l195 585h204l195 -585h59v-130h-299v130h62l-27 95h-184l-27 -95h62v-130h-299zM312 361l106.999 0.000976562l-37 132c-3.33301 13.333 -6.16602 26.166 -8.49902 38.499s-3.83301 21.5 -4.5 27.5l-1 9h-4c-1.33301 -20.667 -6 -45.667 -14 -75z
M420.999 771.001v140h131v-140h-131zM176.999 771.001v140h131v-140h-131z" />
    <glyph glyph-name="Aring" unicode="&#xc5;" horiz-adv-x="732" 
d="M10 0v130h59l195 585h204l195 -585h59v-130h-299v130h62l-27 95h-184l-27 -95h62v-130h-299zM312 361l106.999 0.000976562l-37 132c-3.33301 13.333 -6.16602 26.166 -8.49902 38.499s-3.83301 21.5 -4.5 27.5l-1 9h-4c-1.33301 -20.667 -6 -45.667 -14 -75z
M363.999 747.001c-31.333 0 -58.666 7.83301 -81.999 23.5s-35 38.167 -35 67.5c0 30 11.667 53 35 69s50.666 24 81.999 24s59 -8 83 -24s36 -39 36 -69c0 -29.333 -11.833 -51.833 -35.5 -67.5s-51.5 -23.5 -83.5 -23.5zM363.999 801.001c11.333 0 20.5 3.33301 27.5 10
s10.5 15.667 10.5 27c0 12 -3.5 21.5 -10.5 28.5s-16.167 10.5 -27.5 10.5c-10.667 0 -19.334 -3.5 -26.001 -10.5s-10 -16.5 -10 -28.5c0 -11.333 3.33301 -20.333 10 -27s15.334 -10 26.001 -10z" />
    <glyph glyph-name="AE" unicode="&#xc6;" horiz-adv-x="996" 
d="M11 0v130h54l190 455h-70v130h752v-211h-140v71h-146v-145h204v-140h-204v-150h158v71h140v-211h-558v130h81v163h-167l-63 -163h68v-130h-299zM356 424h116v151h-57z" />
    <glyph glyph-name="Ccedilla" unicode="&#xc7;" horiz-adv-x="748" 
d="M322 -104l30.999 96c-94 12.667 -170.667 53.167 -230 121.5s-89 150.166 -89 245.499c0 106 36 193.833 108 263.5s160.667 104.5 266 104.5c25.333 0 52.833 -2.16699 82.5 -6.5s60.834 -11.5 93.501 -21.5s59.667 -25 81 -45s32 -43.333 32 -70v-113h-160v55
c0 18 -12.5 31 -37.5 39s-52.833 12 -83.5 12c-59.333 0 -107 -18.333 -143 -55s-54 -87.667 -54 -153c0 -72 19.167 -128.5 57.5 -169.5s88.166 -61.5 149.499 -61.5c26 0 52.333 3.83301 79 11.5s40 20.834 40 39.501v55h160v-115c0 -24 -9.16699 -45.5 -27.5 -64.5
s-42.166 -33.5 -71.499 -43.5s-58.5 -17.667 -87.5 -23s-57.833 -8.66602 -86.5 -9.99902l-13 -38c27.333 -1.33301 50 -9.5 68 -24.5s27 -35.5 27 -61.5c0 -32.667 -13.667 -57.167 -41 -73.5s-60 -24.5 -98 -24.5c-10.667 0 -21.667 0.666992 -33 2
s-20 2.66602 -26 3.99902l-10 3v75c14 -5.33301 30.333 -8 49 -8c32 0 48 8.66699 48 26c0 18.667 -18.667 28 -56 28h-25z" />
    <glyph glyph-name="Egrave" unicode="&#xc8;" horiz-adv-x="659" 
d="M49 0v130h80v455h-80v130h551v-211h-150v71h-142v-145h209v-140h-209v-150h154v71h150v-211h-563zM290 761l-151 150h177l116 -150h-142z" />
    <glyph glyph-name="Eacute" unicode="&#xc9;" horiz-adv-x="659" 
d="M49 0v130h80v455h-80v130h551v-211h-150v71h-142v-145h209v-140h-209v-150h154v71h150v-211h-563zM252 761l116 150h177l-151 -150h-142z" />
    <glyph glyph-name="Ecircumflex" unicode="&#xca;" horiz-adv-x="659" 
d="M49 0v130h80v455h-80v130h551v-211h-150v71h-142v-145h209v-140h-209v-150h154v71h150v-211h-563zM159 761l99 150h168l99 -150h-135l-47 82h-2l-47 -82h-135z" />
    <glyph glyph-name="Edieresis" unicode="&#xcb;" horiz-adv-x="659" 
d="M49 0v130h80v455h-80v130h551v-211h-150v71h-142v-145h209v-140h-209v-150h154v71h150v-211h-563zM399 771v140h131v-140h-131zM155 771v140h131v-140h-131z" />
    <glyph glyph-name="Igrave" unicode="&#xcc;" horiz-adv-x="437" 
d="M49 0v130h80v455h-80v130h339v-130h-80v-455h80v-130h-339zM167 761l-151 150h177l116 -150h-142z" />
    <glyph glyph-name="Iacute" unicode="&#xcd;" horiz-adv-x="437" 
d="M49 0v130h80v455h-80v130h339v-130h-80v-455h80v-130h-339zM129 761l116 150h177l-151 -150h-142z" />
    <glyph glyph-name="Icircumflex" unicode="&#xce;" horiz-adv-x="437" 
d="M49 0v130h80v455h-80v130h339v-130h-80v-455h80v-130h-339zM36 761l99 150h168l99 -150h-135l-47 82h-2l-47 -82h-135z" />
    <glyph glyph-name="Idieresis" unicode="&#xcf;" horiz-adv-x="437" 
d="M49 0v130h80v455h-80v130h339v-130h-80v-455h80v-130h-339zM276 771v140h131v-140h-131zM32 771v140h131v-140h-131z" />
    <glyph glyph-name="Eth" unicode="&#xd0;" horiz-adv-x="794" 
d="M49 0v130h80v154h-70v140h70v161h-80v130h336c114.667 0 205.167 -31.5 271.5 -94.5s99.5 -150.167 99.5 -261.5c0 -112 -33.333 -199.833 -100 -263.5s-157 -95.5 -271 -95.5h-336zM308 140h70c60.667 0 108 18.833 142 56.5s51 91.834 51 162.501
c0 69.333 -17.333 122.666 -52 159.999s-81.667 56 -141 56h-70v-151h114v-140h-114v-144z" />
    <glyph glyph-name="Ntilde" unicode="&#xd1;" horiz-adv-x="859" 
d="M49 0v130h80v455h-80v130h261l224 -379c5.33301 -8.66699 10.5 -19 15.5 -31s8.5 -22 10.5 -30l4 -12h4c-4 32 -6 58.667 -6 80v242h-84v130h343v-130h-80v-585h-180l-225 377c-5.33301 8.66699 -10.5 19 -15.5 31s-8.5 22 -10.5 30l-4 12h-4c4 -32 6 -58.667 6 -80v-240
h84v-130h-343zM231 761c0 102 42.667 153 128 153c19.333 0 36.666 -5 51.999 -15s29 -20 41 -30s23 -15 33 -15c24.667 0 37 19 37 57h112c0 -102 -42.667 -153 -128 -153c-19.333 0 -36.666 5 -51.999 15s-29 20 -41 30s-23 15 -33 15c-24.667 0 -37 -19 -37 -57h-112z
" />
    <glyph glyph-name="Ograve" unicode="&#xd2;" 
d="M34 362c0 103.333 35.667 190 107 260s161 105 269 105s197.667 -35 269 -105s107 -156.667 107 -260c0 -106 -35.667 -194.833 -107 -266.5s-161 -107.5 -269 -107.5s-197.667 35.833 -269 107.5s-107 160.5 -107 266.5zM219 362c0 -62 18.667 -114 56 -156
s82.333 -63 135 -63s97.667 21 135 63s56 94 56 156c0 59.333 -18.667 109.166 -56 149.499s-82.333 60.5 -135 60.5s-97.667 -20.167 -135 -60.5s-56 -90.166 -56 -149.499zM358 761l-151 150h177l116 -150h-142z" />
    <glyph glyph-name="Oacute" unicode="&#xd3;" 
d="M34 362c0 103.333 35.667 190 107 260s161 105 269 105s197.667 -35 269 -105s107 -156.667 107 -260c0 -106 -35.667 -194.833 -107 -266.5s-161 -107.5 -269 -107.5s-197.667 35.833 -269 107.5s-107 160.5 -107 266.5zM219 362c0 -62 18.667 -114 56 -156
s82.333 -63 135 -63s97.667 21 135 63s56 94 56 156c0 59.333 -18.667 109.166 -56 149.499s-82.333 60.5 -135 60.5s-97.667 -20.167 -135 -60.5s-56 -90.166 -56 -149.499zM320 761l116 150h177l-151 -150h-142z" />
    <glyph glyph-name="Ocircumflex" unicode="&#xd4;" 
d="M34 362c0 103.333 35.667 190 107 260s161 105 269 105s197.667 -35 269 -105s107 -156.667 107 -260c0 -106 -35.667 -194.833 -107 -266.5s-161 -107.5 -269 -107.5s-197.667 35.833 -269 107.5s-107 160.5 -107 266.5zM219 362c0 -62 18.667 -114 56 -156
s82.333 -63 135 -63s97.667 21 135 63s56 94 56 156c0 59.333 -18.667 109.166 -56 149.499s-82.333 60.5 -135 60.5s-97.667 -20.167 -135 -60.5s-56 -90.166 -56 -149.499zM227 761l99 150h168l99 -150h-135l-47 82h-2l-47 -82h-135z" />
    <glyph glyph-name="Otilde" unicode="&#xd5;" 
d="M34 362c0 103.333 35.667 190 107 260s161 105 269 105s197.667 -35 269 -105s107 -156.667 107 -260c0 -106 -35.667 -194.833 -107 -266.5s-161 -107.5 -269 -107.5s-197.667 35.833 -269 107.5s-107 160.5 -107 266.5zM219 362c0 -62 18.667 -114 56 -156
s82.333 -63 135 -63s97.667 21 135 63s56 94 56 156c0 59.333 -18.667 109.166 -56 149.499s-82.333 60.5 -135 60.5s-97.667 -20.167 -135 -60.5s-56 -90.166 -56 -149.499zM209 761c0 102 42.667 153 128 153c19.333 0 36.666 -5 51.999 -15s29 -20 41 -30s23 -15 33 -15
c24.667 0 37 19 37 57h112c0 -102 -42.667 -153 -128 -153c-19.333 0 -36.666 5 -51.999 15s-29 20 -41 30s-23 15 -33 15c-24.667 0 -37 -19 -37 -57h-112z" />
    <glyph glyph-name="Odieresis" unicode="&#xd6;" 
d="M34 362c0 103.333 35.667 190 107 260s161 105 269 105s197.667 -35 269 -105s107 -156.667 107 -260c0 -106 -35.667 -194.833 -107 -266.5s-161 -107.5 -269 -107.5s-197.667 35.833 -269 107.5s-107 160.5 -107 266.5zM219 362c0 -62 18.667 -114 56 -156
s82.333 -63 135 -63s97.667 21 135 63s56 94 56 156c0 59.333 -18.667 109.166 -56 149.499s-82.333 60.5 -135 60.5s-97.667 -20.167 -135 -60.5s-56 -90.166 -56 -149.499zM467 771v140h131v-140h-131zM223 771v140h131v-140h-131z" />
    <glyph glyph-name="multiply" unicode="&#xd7;" horiz-adv-x="630" 
d="M43 92l182 195l-182 196l92 92l179 -192l180 192l92 -92l-183 -196l183 -195l-92 -92l-180 192l-179 -192z" />
    <glyph glyph-name="Oslash" unicode="&#xd8;" horiz-adv-x="816" 
d="M102 20l48 66c-77.333 72 -116 164 -116 276c0 103.333 35.5 190 106.5 260s160.167 105 267.5 105c65.333 0 124 -13.333 176 -40l41 56l70 -47l-40 -55c84.667 -72 127 -165 127 -279c0 -106 -35.5 -194.833 -106.5 -266.5s-160.167 -107.5 -267.5 -107.5
c-70 0 -133.333 16 -190 48l-46 -64zM254 230l232 320c-24.667 11.333 -50.667 17 -78 17c-54 0 -99.667 -19.5 -137 -58.5s-56 -87.833 -56 -146.5c0 -51.333 13 -95.333 39 -132zM316 172c28.667 -16 59.333 -24 92 -24c54 0 99.667 20.333 137 61s56 91.667 56 153
c0 54 -16 99.667 -48 137z" />
    <glyph glyph-name="Ugrave" unicode="&#xd9;" 
d="M107 273v312h-80v130h339v-130h-80v-312c0 -32 6 -58.333 18 -79c20 -34 55.667 -51 107 -51c48 0 82.667 16.667 104 50c12.667 20.667 19 47.334 19 80.001v312h-80v130h339v-130h-80v-312c0 -75.333 -19.667 -137.333 -59 -186
c-26.667 -32.667 -61.667 -57.334 -105 -74.001s-89.666 -25 -138.999 -25c-50.667 0 -97.334 8.5 -140.001 25.5s-77 40.5 -103 70.5c-40 46 -60 109 -60 189zM358 761l-151 150h177l116 -150h-142z" />
    <glyph glyph-name="Uacute" unicode="&#xda;" 
d="M107 273v312h-80v130h339v-130h-80v-312c0 -32 6 -58.333 18 -79c20 -34 55.667 -51 107 -51c48 0 82.667 16.667 104 50c12.667 20.667 19 47.334 19 80.001v312h-80v130h339v-130h-80v-312c0 -75.333 -19.667 -137.333 -59 -186
c-26.667 -32.667 -61.667 -57.334 -105 -74.001s-89.666 -25 -138.999 -25c-50.667 0 -97.334 8.5 -140.001 25.5s-77 40.5 -103 70.5c-40 46 -60 109 -60 189zM320 761l116 150h177l-151 -150h-142z" />
    <glyph glyph-name="Ucircumflex" unicode="&#xdb;" 
d="M107 273v312h-80v130h339v-130h-80v-312c0 -32 6 -58.333 18 -79c20 -34 55.667 -51 107 -51c48 0 82.667 16.667 104 50c12.667 20.667 19 47.334 19 80.001v312h-80v130h339v-130h-80v-312c0 -75.333 -19.667 -137.333 -59 -186
c-26.667 -32.667 -61.667 -57.334 -105 -74.001s-89.666 -25 -138.999 -25c-50.667 0 -97.334 8.5 -140.001 25.5s-77 40.5 -103 70.5c-40 46 -60 109 -60 189zM227 761l99 150h168l99 -150h-135l-47 82h-2l-47 -82h-135z" />
    <glyph glyph-name="Udieresis" unicode="&#xdc;" 
d="M107 273v312h-80v130h339v-130h-80v-312c0 -32 6 -58.333 18 -79c20 -34 55.667 -51 107 -51c48 0 82.667 16.667 104 50c12.667 20.667 19 47.334 19 80.001v312h-80v130h339v-130h-80v-312c0 -75.333 -19.667 -137.333 -59 -186
c-26.667 -32.667 -61.667 -57.334 -105 -74.001s-89.666 -25 -138.999 -25c-50.667 0 -97.334 8.5 -140.001 25.5s-77 40.5 -103 70.5c-40 46 -60 109 -60 189zM467 771v140h131v-140h-131zM223 771v140h131v-140h-131z" />
    <glyph glyph-name="Yacute" unicode="&#xdd;" horiz-adv-x="671" 
d="M166 0l0.000976562 130h80v163l-175 292h-61v130h296v-130h-60l73 -132l16 -35h2c3.33301 10 8.66602 21.667 15.999 35l73 132h-60v130h295v-130h-61l-175 -292v-163h80v-130h-339zM248.001 761l116 150h177l-151 -150h-142z" />
    <glyph glyph-name="Thorn" unicode="&#xde;" horiz-adv-x="672" 
d="M49 0v130.001h80v455h-80v130h339v-130h-84v-46h140c68.667 0 121.667 -15.667 159 -47s56 -74.333 56 -129c0 -56.667 -18.667 -101.334 -56 -134.001s-90.333 -49 -159 -49h-140v-50h84v-130h-339zM304 310.001h92.999c30 0 51.5 4.33301 64.5 13s19.5 22 19.5 40
c0 16.667 -6.16699 28.5 -18.5 35.5s-33.166 10.5 -62.499 10.5h-96v-99z" />
    <glyph glyph-name="germandbls" unicode="&#xdf;" horiz-adv-x="665" 
d="M28 0l-0.00195312 125.004h65v402c0 62.667 25 111.667 75 147s110 53 180 53c62.667 0 116.834 -18.167 162.501 -54.5s68.5 -82.5 68.5 -138.5c0 -22.667 -6 -43.5 -18 -62.5s-24 -36.333 -36 -52s-18 -30.834 -18 -45.501c0 -10.667 7 -22.5 21 -35.5
s29.333 -25.667 46 -38s32 -30.333 46 -54s21 -49.834 21 -78.501c0 -56 -18.667 -99.167 -56 -129.5s-83.333 -45.5 -138 -45.5c-26 0 -49.333 1.66699 -70 5s-35 6.66602 -43 9.99902l-11 6v142c30.667 -12.667 62.334 -19 95.001 -19c33.333 0 50 14 50 42
c0 10 -7 21.333 -21 34s-29.5 25 -46.5 37s-32.5 28.667 -46.5 50s-21 44.666 -21 69.999c0 20.667 6 40.667 18 60s24 37.333 36 54s18 32 18 46c0 16 -5.5 28.833 -16.5 38.5s-26.167 14.5 -45.5 14.5c-51.333 0 -77 -22.667 -77 -68v-515h-238z" />
    <glyph glyph-name="agrave" unicode="&#xe0;" horiz-adv-x="583" 
d="M23 147c0 35.333 10.167 65.333 30.5 90s46.5 42.5 78.5 53.5s61.333 18.667 88 23s52.667 6.5 78 6.5h31v15c0 38 -24.333 57 -73 57c-20.667 0 -42.834 -4 -66.501 -12s-42.167 -16 -55.5 -24l-20 -13l-60 117l10.5 7.5c4.33301 3 13.833 8.33301 28.5 16
s30 14.5 46 20.5s36.167 11.333 60.5 16s48.5 7 72.5 7c74.667 0 131.667 -18 171 -54s59 -88 59 -156v-170c0 -14.667 7.33301 -22 22 -22h38v-125h-149c-23.333 -0 -40.666 5.33301 -51.999 16s-17 23.334 -17 38.001v3l2 16h-2c-1.33301 -2 -3.16602 -5 -5.49902 -9
s-7.83301 -10.833 -16.5 -20.5s-18.334 -18.334 -29.001 -26.001s-25 -14.5 -43 -20.5s-37.333 -9 -58 -9c-47.333 0 -87.333 14 -120 42s-49 67 -49 117zM197 159c0 -13.333 4.16699 -24.333 12.5 -33s19.5 -13 33.5 -13c21.333 0 41.333 10.667 60 32s28 43.333 28 66v12
h-16c-32 0 -59.667 -5.33301 -83 -16s-35 -26.667 -35 -48zM227 565l-151 150h177l116 -150h-142z" />
    <glyph glyph-name="aacute" unicode="&#xe1;" horiz-adv-x="583" 
d="M23 147c0 35.333 10.167 65.333 30.5 90s46.5 42.5 78.5 53.5s61.333 18.667 88 23s52.667 6.5 78 6.5h31v15c0 38 -24.333 57 -73 57c-20.667 0 -42.834 -4 -66.501 -12s-42.167 -16 -55.5 -24l-20 -13l-60 117l10.5 7.5c4.33301 3 13.833 8.33301 28.5 16
s30 14.5 46 20.5s36.167 11.333 60.5 16s48.5 7 72.5 7c74.667 0 131.667 -18 171 -54s59 -88 59 -156v-170c0 -14.667 7.33301 -22 22 -22h38v-125h-149c-23.333 -0 -40.666 5.33301 -51.999 16s-17 23.334 -17 38.001v3l2 16h-2c-1.33301 -2 -3.16602 -5 -5.49902 -9
s-7.83301 -10.833 -16.5 -20.5s-18.334 -18.334 -29.001 -26.001s-25 -14.5 -43 -20.5s-37.333 -9 -58 -9c-47.333 0 -87.333 14 -120 42s-49 67 -49 117zM197 159c0 -13.333 4.16699 -24.333 12.5 -33s19.5 -13 33.5 -13c21.333 0 41.333 10.667 60 32s28 43.333 28 66v12
h-16c-32 0 -59.667 -5.33301 -83 -16s-35 -26.667 -35 -48zM189 565l116 150h177l-151 -150h-142z" />
    <glyph glyph-name="acircumflex" unicode="&#xe2;" horiz-adv-x="583" 
d="M23 147c0 35.333 10.167 65.333 30.5 90s46.5 42.5 78.5 53.5s61.333 18.667 88 23s52.667 6.5 78 6.5h31v15c0 38 -24.333 57 -73 57c-20.667 0 -42.834 -4 -66.501 -12s-42.167 -16 -55.5 -24l-20 -13l-60 117l10.5 7.5c4.33301 3 13.833 8.33301 28.5 16
s30 14.5 46 20.5s36.167 11.333 60.5 16s48.5 7 72.5 7c74.667 0 131.667 -18 171 -54s59 -88 59 -156v-170c0 -14.667 7.33301 -22 22 -22h38v-125h-149c-23.333 -0 -40.666 5.33301 -51.999 16s-17 23.334 -17 38.001v3l2 16h-2c-1.33301 -2 -3.16602 -5 -5.49902 -9
s-7.83301 -10.833 -16.5 -20.5s-18.334 -18.334 -29.001 -26.001s-25 -14.5 -43 -20.5s-37.333 -9 -58 -9c-47.333 0 -87.333 14 -120 42s-49 67 -49 117zM197 159c0 -13.333 4.16699 -24.333 12.5 -33s19.5 -13 33.5 -13c21.333 0 41.333 10.667 60 32s28 43.333 28 66v12
h-16c-32 0 -59.667 -5.33301 -83 -16s-35 -26.667 -35 -48zM96 565l99 150h168l99 -150h-135l-47 82h-2l-47 -82h-135z" />
    <glyph glyph-name="atilde" unicode="&#xe3;" horiz-adv-x="583" 
d="M23 147c0 35.333 10.167 65.333 30.5 90s46.5 42.5 78.5 53.5s61.333 18.667 88 23s52.667 6.5 78 6.5h31v15c0 38 -24.333 57 -73 57c-20.667 0 -42.834 -4 -66.501 -12s-42.167 -16 -55.5 -24l-20 -13l-60 117l10.5 7.5c4.33301 3 13.833 8.33301 28.5 16
s30 14.5 46 20.5s36.167 11.333 60.5 16s48.5 7 72.5 7c74.667 0 131.667 -18 171 -54s59 -88 59 -156v-170c0 -14.667 7.33301 -22 22 -22h38v-125h-149c-23.333 -0 -40.666 5.33301 -51.999 16s-17 23.334 -17 38.001v3l2 16h-2c-1.33301 -2 -3.16602 -5 -5.49902 -9
s-7.83301 -10.833 -16.5 -20.5s-18.334 -18.334 -29.001 -26.001s-25 -14.5 -43 -20.5s-37.333 -9 -58 -9c-47.333 0 -87.333 14 -120 42s-49 67 -49 117zM197 159c0 -13.333 4.16699 -24.333 12.5 -33s19.5 -13 33.5 -13c21.333 0 41.333 10.667 60 32s28 43.333 28 66v12
h-16c-32 0 -59.667 -5.33301 -83 -16s-35 -26.667 -35 -48zM78 565c0 102 42.667 153 128 153c19.333 0 36.666 -5 51.999 -15s29 -20 41 -30s23 -15 33 -15c24.667 0 37 19 37 57h112c0 -102 -42.667 -153 -128 -153c-19.333 0 -36.666 5 -51.999 15s-29 20 -41 30
s-23 15 -33 15c-24.667 0 -37 -19 -37 -57h-112z" />
    <glyph glyph-name="adieresis" unicode="&#xe4;" horiz-adv-x="583" 
d="M23 147c0 35.333 10.167 65.333 30.5 90s46.5 42.5 78.5 53.5s61.333 18.667 88 23s52.667 6.5 78 6.5h31v15c0 38 -24.333 57 -73 57c-20.667 0 -42.834 -4 -66.501 -12s-42.167 -16 -55.5 -24l-20 -13l-60 117l10.5 7.5c4.33301 3 13.833 8.33301 28.5 16
s30 14.5 46 20.5s36.167 11.333 60.5 16s48.5 7 72.5 7c74.667 0 131.667 -18 171 -54s59 -88 59 -156v-170c0 -14.667 7.33301 -22 22 -22h38v-125h-149c-23.333 -0 -40.666 5.33301 -51.999 16s-17 23.334 -17 38.001v3l2 16h-2c-1.33301 -2 -3.16602 -5 -5.49902 -9
s-7.83301 -10.833 -16.5 -20.5s-18.334 -18.334 -29.001 -26.001s-25 -14.5 -43 -20.5s-37.333 -9 -58 -9c-47.333 0 -87.333 14 -120 42s-49 67 -49 117zM197 159c0 -13.333 4.16699 -24.333 12.5 -33s19.5 -13 33.5 -13c21.333 0 41.333 10.667 60 32s28 43.333 28 66v12
h-16c-32 0 -59.667 -5.33301 -83 -16s-35 -26.667 -35 -48zM336 575v140h131v-140h-131zM92 575v140h131v-140h-131z" />
    <glyph glyph-name="aring" unicode="&#xe5;" horiz-adv-x="583" 
d="M23 147c0 35.333 10.167 65.333 30.5 90s46.5 42.5 78.5 53.5s61.333 18.667 88 23s52.667 6.5 78 6.5h31v15c0 38 -24.333 57 -73 57c-20.667 0 -42.834 -4 -66.501 -12s-42.167 -16 -55.5 -24l-20 -13l-60 117l10.5 7.5c4.33301 3 13.833 8.33301 28.5 16
s30 14.5 46 20.5s36.167 11.333 60.5 16s48.5 7 72.5 7c74.667 0 131.667 -18 171 -54s59 -88 59 -156v-170c0 -14.667 7.33301 -22 22 -22h38v-125h-149c-23.333 -0 -40.666 5.33301 -51.999 16s-17 23.334 -17 38.001v3l2 16h-2c-1.33301 -2 -3.16602 -5 -5.49902 -9
s-7.83301 -10.833 -16.5 -20.5s-18.334 -18.334 -29.001 -26.001s-25 -14.5 -43 -20.5s-37.333 -9 -58 -9c-47.333 0 -87.333 14 -120 42s-49 67 -49 117zM197 159c0 -13.333 4.16699 -24.333 12.5 -33s19.5 -13 33.5 -13c21.333 0 41.333 10.667 60 32s28 43.333 28 66v12
h-16c-32 0 -59.667 -5.33301 -83 -16s-35 -26.667 -35 -48zM279 551c-31.333 0 -58.666 7.83301 -81.999 23.5s-35 38.167 -35 67.5c0 30 11.667 53 35 69s50.666 24 81.999 24s59 -8 83 -24s36 -39 36 -69c0 -29.333 -11.833 -51.833 -35.5 -67.5s-51.5 -23.5 -83.5 -23.5z
M279 605c11.333 0 20.5 3.33301 27.5 10s10.5 15.667 10.5 27c0 12 -3.5 21.5 -10.5 28.5s-16.167 10.5 -27.5 10.5c-10.667 0 -19.334 -3.5 -26.001 -10.5s-10 -16.5 -10 -28.5c0 -11.333 3.33301 -20.333 10 -27s15.334 -10 26.001 -10z" />
    <glyph glyph-name="ae" unicode="&#xe6;" horiz-adv-x="849" 
d="M21 152c0 28.667 7.66797 53.834 23.001 75.501s33.833 38.167 55.5 49.5s47.167 20.5 76.5 27.5s54.833 11.333 76.5 13s43.5 2.5 65.5 2.5h9v10c0 24 -6 40.333 -18 49s-29.333 13 -52 13c-20.667 0 -43.167 -4 -67.5 -12s-43.5 -16 -57.5 -24l-20 -13l-60 117
c6.66699 5.33301 16.334 11.666 29.001 18.999s38.167 17.166 76.5 29.499s76.833 18.5 115.5 18.5c66.667 0 118 -17 154 -51h2c41.333 34 92.666 51 153.999 51c72 0 129.667 -23.833 173 -71.5s65 -108.5 65 -182.5l-4 -49h-325c6 -32.667 20 -57 42 -73s48 -24 78 -24
c22 0 44.833 4.16699 68.5 12.5s41.834 16.833 54.501 25.5l19 13l64 -115c-6 -5.33301 -14.833 -12.166 -26.5 -20.499s-36.667 -19.5 -75 -33.5s-77.833 -21 -118.5 -21c-88.667 0 -157.667 30 -207 90h-2c-10.667 -19.333 -32.334 -39 -65.001 -59
s-75.334 -30 -128.001 -30c-49.333 0 -90.833 14.833 -124.5 44.5s-50.5 69.167 -50.5 118.5zM496.001 320h151c0 19.333 -6.16699 37 -18.5 53s-27.5 24 -45.5 24c-46 0 -75 -25.667 -87 -77zM190.001 159c0 -12.667 4.33301 -23 13 -31s20.334 -12 35.001 -12
c23.333 0 44.333 10.167 63 30.5s28 41.833 28 64.5v12h-16c-32.667 0 -61.334 -5.33301 -86.001 -16s-37 -26.667 -37 -48z" />
    <glyph glyph-name="ccedilla" unicode="&#xe7;" horiz-adv-x="567" 
d="M216 -104l32.001 99c-64.667 13.333 -118 43 -160 89s-63 103.333 -63 172c0 76 26.5 140.167 79.5 192.5s120.5 78.5 202.5 78.5c37.333 0 72.333 -4.16699 105 -12.5s61.167 -22.666 85.5 -42.999s36.5 -45.5 36.5 -75.5v-82h-147v31c0 12 -7 21.333 -21 28
s-31.333 10 -52 10c-38.667 0 -67.5 -11 -86.5 -33s-28.5 -51.333 -28.5 -88c0 -43.333 12.167 -76 36.5 -98s55.5 -33 93.5 -33c55.333 0 107 19 155 57l58 -121c-26 -24 -58.333 -42.833 -97 -56.5s-78.334 -21.167 -119.001 -22.5l-13 -38
c27.333 -1.33301 50 -9.5 68 -24.5s27 -35.5 27 -61.5c0 -32.667 -13.667 -57.167 -41 -73.5s-60 -24.5 -98 -24.5c-10.667 0 -21.667 0.666992 -33 2s-20 2.66602 -26 3.99902l-10 3v75c14 -5.33301 30.333 -8 49 -8c32 0 48 8.66699 48 26c0 18.667 -18.667 28 -56 28h-25
z" />
    <glyph glyph-name="egrave" unicode="&#xe8;" horiz-adv-x="562" 
d="M25 258c0 77.333 24.334 141.5 73.001 192.5s113.667 76.5 195 76.5c75.333 0 134.166 -23.167 176.499 -69.5s63.5 -106.166 63.5 -179.499l-4 -52h-327c6 -31.333 20.167 -55 42.5 -71s48.166 -24 77.499 -24c22.667 0 46 4.16699 70 12.5s42.667 16.5 56 24.5l19 12
l63 -120c-6 -5.33301 -15 -12 -27 -20s-37.167 -18.667 -75.5 -32s-78.166 -20 -119.499 -20c-87.333 0 -156.333 26.667 -207 80s-76 116.666 -76 189.999zM206.001 321h148c0 20.667 -6.16699 38.5 -18.5 53.5s-27.833 22.5 -46.5 22.5c-44 0 -71.667 -25.333 -83 -76z
M239.001 565l-151 150h177l116 -150h-142z" />
    <glyph glyph-name="eacute" unicode="&#xe9;" horiz-adv-x="562" 
d="M25 258c0 77.333 24.334 141.5 73.001 192.5s113.667 76.5 195 76.5c75.333 0 134.166 -23.167 176.499 -69.5s63.5 -106.166 63.5 -179.499l-4 -52h-327c6 -31.333 20.167 -55 42.5 -71s48.166 -24 77.499 -24c22.667 0 46 4.16699 70 12.5s42.667 16.5 56 24.5l19 12
l63 -120c-6 -5.33301 -15 -12 -27 -20s-37.167 -18.667 -75.5 -32s-78.166 -20 -119.499 -20c-87.333 0 -156.333 26.667 -207 80s-76 116.666 -76 189.999zM206.001 321h148c0 20.667 -6.16699 38.5 -18.5 53.5s-27.833 22.5 -46.5 22.5c-44 0 -71.667 -25.333 -83 -76z
M201.001 565l116 150h177l-151 -150h-142z" />
    <glyph glyph-name="ecircumflex" unicode="&#xea;" horiz-adv-x="562" 
d="M25 258c0 77.333 24.334 141.5 73.001 192.5s113.667 76.5 195 76.5c75.333 0 134.166 -23.167 176.499 -69.5s63.5 -106.166 63.5 -179.499l-4 -52h-327c6 -31.333 20.167 -55 42.5 -71s48.166 -24 77.499 -24c22.667 0 46 4.16699 70 12.5s42.667 16.5 56 24.5l19 12
l63 -120c-6 -5.33301 -15 -12 -27 -20s-37.167 -18.667 -75.5 -32s-78.166 -20 -119.499 -20c-87.333 0 -156.333 26.667 -207 80s-76 116.666 -76 189.999zM206.001 321h148c0 20.667 -6.16699 38.5 -18.5 53.5s-27.833 22.5 -46.5 22.5c-44 0 -71.667 -25.333 -83 -76z
M108.001 565l99 150h168l99 -150h-135l-47 82h-2l-47 -82h-135z" />
    <glyph glyph-name="edieresis" unicode="&#xeb;" horiz-adv-x="562" 
d="M25 258c0 77.333 24.334 141.5 73.001 192.5s113.667 76.5 195 76.5c75.333 0 134.166 -23.167 176.499 -69.5s63.5 -106.166 63.5 -179.499l-4 -52h-327c6 -31.333 20.167 -55 42.5 -71s48.166 -24 77.499 -24c22.667 0 46 4.16699 70 12.5s42.667 16.5 56 24.5l19 12
l63 -120c-6 -5.33301 -15 -12 -27 -20s-37.167 -18.667 -75.5 -32s-78.166 -20 -119.499 -20c-87.333 0 -156.333 26.667 -207 80s-76 116.666 -76 189.999zM206.001 321h148c0 20.667 -6.16699 38.5 -18.5 53.5s-27.833 22.5 -46.5 22.5c-44 0 -71.667 -25.333 -83 -76z
M348.001 575v140h131v-140h-131zM104.001 575v140h131v-140h-131z" />
    <glyph glyph-name="igrave" unicode="&#xec;" horiz-adv-x="373" 
d="M42 0v125h65v265h-70v125h243v-390h65v-125h-303zM140 565l-151 150h177l116 -150h-142z" />
    <glyph glyph-name="iacute" unicode="&#xed;" horiz-adv-x="373" 
d="M42 0v125h65v265h-70v125h243v-390h65v-125h-303zM102 565l116 150h177l-151 -150h-142z" />
    <glyph glyph-name="icircumflex" unicode="&#xee;" horiz-adv-x="373" 
d="M42 0v125h65v265h-70v125h243v-390h65v-125h-303zM9 565l99 150h168l99 -150h-135l-47 82h-2l-47 -82h-135z" />
    <glyph glyph-name="idieresis" unicode="&#xef;" horiz-adv-x="373" 
d="M42 0v125h65v265h-70v125h243v-390h65v-125h-303zM229 575v140h131v-140h-131zM15 575v140h131v-140h-131z" />
    <glyph glyph-name="eth" unicode="&#xf0;" horiz-adv-x="591" 
d="M26 241c0 60.667 21.168 113.001 63.501 157.001s98.166 66 167.499 66c11.333 0 22.833 -0.666992 34.5 -2s20.5 -2.66602 26.5 -3.99902l8 -3h2c-19.333 29.333 -44.333 52.666 -75 69.999l-187 -76v75l105 43c-44.667 18.667 -80.667 30.667 -108 36l48 135
c90.667 -19.333 172.334 -51 245.001 -95l148 63v-75l-86 -37c88 -84.667 132 -188.334 132 -311.001c0 -28.667 -2.83301 -56.5 -8.5 -83.5s-15.334 -53.5 -29.001 -79.5s-30.5 -48.667 -50.5 -68s-45.667 -34.833 -77 -46.5s-66.333 -17.5 -105 -17.5
c-77.333 0 -139 25 -185 75s-69 109.333 -69 178zM200.001 236.001c0 -29.333 6.66699 -54.001 20 -74.001s34.333 -30 63 -30c32 0 55.5 11.5 70.5 34.5s22.5 50.833 22.5 83.5c0 24.667 -7.33301 44.5 -22 59.5s-35 22.5 -61 22.5c-30 0 -53 -9.16699 -69 -27.5
s-24 -41.166 -24 -68.499z" />
    <glyph glyph-name="ntilde" unicode="&#xf1;" horiz-adv-x="708" 
d="M42 0v124.999h65v243c0 14.667 -7.33301 22 -22 22h-48v125h164c23.333 0 41 -5.16699 53 -15.5s18 -24.5 18 -42.5v-17l-1 -12h2l5.5 10.5c2.33301 4.33301 8.5 12.333 18.5 24s21 21.834 33 30.501s28.667 16.5 50 23.5s44 10.5 68 10.5c116 0 174 -64.333 174 -193
v-209h65v-125h-238v302c0 45.333 -19.333 68 -58 68c-36 0 -63.5 -15.333 -82.5 -46s-28.5 -66 -28.5 -106v-93h65v-125h-303zM167 564.999c0 102 42.667 153 128 153c19.333 0 36.666 -5 51.999 -15s29 -20 41 -30s23 -15 33 -15c24.667 0 37 19 37 57h112
c0 -102 -42.667 -153 -128 -153c-19.333 0 -36.666 5 -51.999 15s-29 20 -41 30s-23 15 -33 15c-24.667 0 -37 -19 -37 -57h-112z" />
    <glyph glyph-name="ograve" unicode="&#xf2;" horiz-adv-x="634" 
d="M25 256c0 79.333 28 144.333 84 195s125 76 207 76c82.667 0 152.167 -25.167 208.5 -75.5s84.5 -115.5 84.5 -195.5c0 -79.333 -28 -143.833 -84 -193.5s-125.333 -74.5 -208 -74.5s-152 24.833 -208 74.5s-84 114.167 -84 193.5zM200 256
c0 -37.333 11.333 -67.333 34 -90s50.334 -34 83.001 -34s60.334 11.333 83.001 34s34 52.667 34 90c0 38 -11.333 68.667 -34 92s-50.334 35 -83.001 35s-60.334 -11.667 -83.001 -35s-34 -54 -34 -92zM265 565l-151 150h177l116 -150h-142z" />
    <glyph glyph-name="oacute" unicode="&#xf3;" horiz-adv-x="634" 
d="M25 256c0 79.333 28 144.333 84 195s125 76 207 76c82.667 0 152.167 -25.167 208.5 -75.5s84.5 -115.5 84.5 -195.5c0 -79.333 -28 -143.833 -84 -193.5s-125.333 -74.5 -208 -74.5s-152 24.833 -208 74.5s-84 114.167 -84 193.5zM200 256
c0 -37.333 11.333 -67.333 34 -90s50.334 -34 83.001 -34s60.334 11.333 83.001 34s34 52.667 34 90c0 38 -11.333 68.667 -34 92s-50.334 35 -83.001 35s-60.334 -11.667 -83.001 -35s-34 -54 -34 -92zM227 565l116 150h177l-151 -150h-142z" />
    <glyph glyph-name="ocircumflex" unicode="&#xf4;" horiz-adv-x="634" 
d="M25 256c0 79.333 28 144.333 84 195s125 76 207 76c82.667 0 152.167 -25.167 208.5 -75.5s84.5 -115.5 84.5 -195.5c0 -79.333 -28 -143.833 -84 -193.5s-125.333 -74.5 -208 -74.5s-152 24.833 -208 74.5s-84 114.167 -84 193.5zM200 256
c0 -37.333 11.333 -67.333 34 -90s50.334 -34 83.001 -34s60.334 11.333 83.001 34s34 52.667 34 90c0 38 -11.333 68.667 -34 92s-50.334 35 -83.001 35s-60.334 -11.667 -83.001 -35s-34 -54 -34 -92zM134 565l99 150h168l99 -150h-135l-47 82h-2l-47 -82h-135z" />
    <glyph glyph-name="otilde" unicode="&#xf5;" horiz-adv-x="634" 
d="M25 256c0 79.333 28 144.333 84 195s125 76 207 76c82.667 0 152.167 -25.167 208.5 -75.5s84.5 -115.5 84.5 -195.5c0 -79.333 -28 -143.833 -84 -193.5s-125.333 -74.5 -208 -74.5s-152 24.833 -208 74.5s-84 114.167 -84 193.5zM200 256
c0 -37.333 11.333 -67.333 34 -90s50.334 -34 83.001 -34s60.334 11.333 83.001 34s34 52.667 34 90c0 38 -11.333 68.667 -34 92s-50.334 35 -83.001 35s-60.334 -11.667 -83.001 -35s-34 -54 -34 -92zM116 565c0 102 42.667 153 128 153c19.333 0 36.666 -5 51.999 -15
s29 -20 41 -30s23 -15 33 -15c24.667 0 37 19 37 57h112c0 -102 -42.667 -153 -128 -153c-19.333 0 -36.666 5 -51.999 15s-29 20 -41 30s-23 15 -33 15c-24.667 0 -37 -19 -37 -57h-112z" />
    <glyph glyph-name="odieresis" unicode="&#xf6;" horiz-adv-x="634" 
d="M25 256c0 79.333 28 144.333 84 195s125 76 207 76c82.667 0 152.167 -25.167 208.5 -75.5s84.5 -115.5 84.5 -195.5c0 -79.333 -28 -143.833 -84 -193.5s-125.333 -74.5 -208 -74.5s-152 24.833 -208 74.5s-84 114.167 -84 193.5zM200 256
c0 -37.333 11.333 -67.333 34 -90s50.334 -34 83.001 -34s60.334 11.333 83.001 34s34 52.667 34 90c0 38 -11.333 68.667 -34 92s-50.334 35 -83.001 35s-60.334 -11.667 -83.001 -35s-34 -54 -34 -92zM374 575v140h131v-140h-131zM130 575v140h131v-140h-131z" />
    <glyph glyph-name="divide" unicode="&#xf7;" horiz-adv-x="630" 
d="M242 440v135h146v-135h-146zM42 222v130h546v-130h-546zM242 0v135h146v-135h-146z" />
    <glyph glyph-name="oslash" unicode="&#xf8;" horiz-adv-x="633" 
d="M86 -6l38.999 54.999c-66.667 52 -100 121 -100 207c0 79.333 28 144.333 84 195s125 76 207 76c45.333 0 90 -9.33301 134 -28l42 58l60 -41l-40 -55c64.667 -53.333 97 -121.666 97 -204.999c0 -79.333 -28 -143.833 -84 -193.5s-125.333 -74.5 -208 -74.5
c-43.333 0 -85.666 8.33301 -126.999 25l-44 -61zM221.999 182.999l138 190.999c-19.333 6 -33.666 9 -42.999 9c-32.667 0 -60.334 -11.667 -83.001 -35s-34 -54 -34 -92c0 -25.333 7.33301 -49.666 22 -72.999zM279.999 137.998c14.667 -4 26.999 -6 36.999 -6
c32.667 0 60.334 11.333 83.001 34s34 52.667 34 90c0 22 -6.33301 45 -19 69z" />
    <glyph glyph-name="ugrave" unicode="&#xf9;" horiz-adv-x="694" 
d="M91 181v209.001h-70v125h243v-307c0 -45.333 19 -68 57 -68c32.667 0 58.667 15.833 78 47.5s29 68.167 29 109.5v93h-70v125h243v-368c0 -14.667 7.33301 -22 22 -22h43v-125h-159c-23.333 0 -41 5.16699 -53 15.5s-18 24.5 -18 42.5v14l1 15h-2l-5.5 -10.5
c-2.33301 -4.33301 -8.33301 -12.333 -18 -24s-20.5 -21.834 -32.5 -30.501s-28.667 -16.5 -50 -23.5s-44.333 -10.5 -69 -10.5c-50 0 -90.667 15.167 -122 45.5s-47 79.5 -47 147.5zM278 565.001l-151 150h177l116 -150h-142z" />
    <glyph glyph-name="uacute" unicode="&#xfa;" horiz-adv-x="694" 
d="M91 181v209.001h-70v125h243v-307c0 -45.333 19 -68 57 -68c32.667 0 58.667 15.833 78 47.5s29 68.167 29 109.5v93h-70v125h243v-368c0 -14.667 7.33301 -22 22 -22h43v-125h-159c-23.333 0 -41 5.16699 -53 15.5s-18 24.5 -18 42.5v14l1 15h-2l-5.5 -10.5
c-2.33301 -4.33301 -8.33301 -12.333 -18 -24s-20.5 -21.834 -32.5 -30.501s-28.667 -16.5 -50 -23.5s-44.333 -10.5 -69 -10.5c-50 0 -90.667 15.167 -122 45.5s-47 79.5 -47 147.5zM240 565.001l116 150h177l-151 -150h-142z" />
    <glyph glyph-name="ucircumflex" unicode="&#xfb;" horiz-adv-x="694" 
d="M91 181v209.001h-70v125h243v-307c0 -45.333 19 -68 57 -68c32.667 0 58.667 15.833 78 47.5s29 68.167 29 109.5v93h-70v125h243v-368c0 -14.667 7.33301 -22 22 -22h43v-125h-159c-23.333 0 -41 5.16699 -53 15.5s-18 24.5 -18 42.5v14l1 15h-2l-5.5 -10.5
c-2.33301 -4.33301 -8.33301 -12.333 -18 -24s-20.5 -21.834 -32.5 -30.501s-28.667 -16.5 -50 -23.5s-44.333 -10.5 -69 -10.5c-50 0 -90.667 15.167 -122 45.5s-47 79.5 -47 147.5zM147 565.001l99 150h168l99 -150h-135l-47 82h-2l-47 -82h-135z" />
    <glyph glyph-name="udieresis" unicode="&#xfc;" horiz-adv-x="694" 
d="M91 181v209.001h-70v125h243v-307c0 -45.333 19 -68 57 -68c32.667 0 58.667 15.833 78 47.5s29 68.167 29 109.5v93h-70v125h243v-368c0 -14.667 7.33301 -22 22 -22h43v-125h-159c-23.333 0 -41 5.16699 -53 15.5s-18 24.5 -18 42.5v14l1 15h-2l-5.5 -10.5
c-2.33301 -4.33301 -8.33301 -12.333 -18 -24s-20.5 -21.834 -32.5 -30.501s-28.667 -16.5 -50 -23.5s-44.333 -10.5 -69 -10.5c-50 0 -90.667 15.167 -122 45.5s-47 79.5 -47 147.5zM387 575.001v140h131v-140h-131zM143 575.001v140h131v-140h-131z" />
    <glyph glyph-name="yacute" unicode="&#xfd;" horiz-adv-x="627" 
d="M65 -47c20 -16 48.333 -24.001 85 -24.001c44.667 0 73 14 85 42l2 5l-170 414h-58v125h283v-125h-50l63 -191c2.66699 -9.33301 5 -19.5 7 -30.5s3.33301 -19.833 4 -26.5l1 -10h4c3.33301 24 8.66602 46.333 15.999 67l61 191h-47v125h267v-125h-53l-166 -435
c-42 -110 -122 -165 -240 -165c-26.667 0 -52.167 3.33301 -76.5 10s-42.166 13.334 -53.499 20.001l-17 10zM227 564.999l116 150h177l-151 -150h-142z" />
    <glyph glyph-name="thorn" unicode="&#xfe;" horiz-adv-x="640" 
d="M0 590v124.998h244v-202l-2 -44h2c2.66699 4 7.16699 9.33301 13.5 16s21 15.334 44 26.001s48.5 16 76.5 16c70 0 126.833 -25.5 170.5 -76.5s65.5 -115.167 65.5 -192.5s-21.833 -141.666 -65.5 -192.999s-100.5 -77 -170.5 -77c-28.667 0 -54.167 4.5 -76.5 13.5
s-37.5 17.833 -45.5 26.5l-12 13h-2c1.33301 -12 2 -26.667 2 -44v-72h65v-125h-303v125h65v665h-71zM239 256.998c0 -83.333 34.667 -124.999 104 -124.999c29.333 0 52.833 12.167 70.5 36.5s26.5 54.166 26.5 89.499s-8.83301 65 -26.5 89s-41.167 36 -70.5 36
c-69.333 0 -104 -42 -104 -126z" />
    <glyph glyph-name="ydieresis" unicode="&#xff;" horiz-adv-x="627" 
d="M65 -47c20 -16 48.333 -24.001 85 -24.001c44.667 0 73 14 85 42l2 5l-170 414h-58v125h283v-125h-50l63 -191c2.66699 -9.33301 5 -19.5 7 -30.5s3.33301 -19.833 4 -26.5l1 -10h4c3.33301 24 8.66602 46.333 15.999 67l61 191h-47v125h267v-125h-53l-166 -435
c-42 -110 -122 -165 -240 -165c-26.667 0 -52.167 3.33301 -76.5 10s-42.166 13.334 -53.499 20.001l-17 10zM374 574.999v140h131v-140h-131zM130 574.999v140h131v-140h-131z" />
    <glyph glyph-name="Amacron" unicode="&#x100;" horiz-adv-x="732" 
d="M10 0v130h59l195 585h204l195 -585h59v-130h-299v130h62l-27 95h-184l-27 -95h62v-130h-299zM312 361l106.999 0.000976562l-37 132c-3.33301 13.333 -6.16602 26.166 -8.49902 38.499s-3.83301 21.5 -4.5 27.5l-1 9h-4c-1.33301 -20.667 -6 -45.667 -14 -75z
M226.999 782.001v112h275v-112h-275z" />
    <glyph glyph-name="amacron" unicode="&#x101;" horiz-adv-x="583" 
d="M23 147c0 35.333 10.167 65.333 30.5 90s46.5 42.5 78.5 53.5s61.333 18.667 88 23s52.667 6.5 78 6.5h31v15c0 38 -24.333 57 -73 57c-20.667 0 -42.834 -4 -66.501 -12s-42.167 -16 -55.5 -24l-20 -13l-60 117l10.5 7.5c4.33301 3 13.833 8.33301 28.5 16
s30 14.5 46 20.5s36.167 11.333 60.5 16s48.5 7 72.5 7c74.667 0 131.667 -18 171 -54s59 -88 59 -156v-170c0 -14.667 7.33301 -22 22 -22h38v-125h-149c-23.333 -0 -40.666 5.33301 -51.999 16s-17 23.334 -17 38.001v3l2 16h-2c-1.33301 -2 -3.16602 -5 -5.49902 -9
s-7.83301 -10.833 -16.5 -20.5s-18.334 -18.334 -29.001 -26.001s-25 -14.5 -43 -20.5s-37.333 -9 -58 -9c-47.333 0 -87.333 14 -120 42s-49 67 -49 117zM197 159c0 -13.333 4.16699 -24.333 12.5 -33s19.5 -13 33.5 -13c21.333 0 41.333 10.667 60 32s28 43.333 28 66v12
h-16c-32 0 -59.667 -5.33301 -83 -16s-35 -26.667 -35 -48zM142 586v112h275v-112h-275z" />
    <glyph glyph-name="Abreve" unicode="&#x102;" horiz-adv-x="732" 
d="M10 0v130h59l195 585h204l195 -585h59v-130h-299v130h62l-27 95h-184l-27 -95h62v-130h-299zM312 361l106.999 0.000976562l-37 132c-3.33301 13.333 -6.16602 26.166 -8.49902 38.499s-3.83301 21.5 -4.5 27.5l-1 9h-4c-1.33301 -20.667 -6 -45.667 -14 -75z
M363.999 756.001c-48.667 0 -89.8301 13 -123.497 39s-50.5 61.333 -50.5 106v10h117v-11c0 -18.667 5.66699 -33 17 -43s24.666 -15 39.999 -15s28.666 5 39.999 15s17 24.333 17 43v11h117v-10c0 -44.667 -16.833 -80 -50.5 -106s-74.834 -39 -123.501 -39z" />
    <glyph glyph-name="abreve" unicode="&#x103;" horiz-adv-x="583" 
d="M23 147c0 35.333 10.167 65.333 30.5 90s46.5 42.5 78.5 53.5s61.333 18.667 88 23s52.667 6.5 78 6.5h31v15c0 38 -24.333 57 -73 57c-20.667 0 -42.834 -4 -66.501 -12s-42.167 -16 -55.5 -24l-20 -13l-60 117l10.5 7.5c4.33301 3 13.833 8.33301 28.5 16
s30 14.5 46 20.5s36.167 11.333 60.5 16s48.5 7 72.5 7c74.667 0 131.667 -18 171 -54s59 -88 59 -156v-170c0 -14.667 7.33301 -22 22 -22h38v-125h-149c-23.333 -0 -40.666 5.33301 -51.999 16s-17 23.334 -17 38.001v3l2 16h-2c-1.33301 -2 -3.16602 -5 -5.49902 -9
s-7.83301 -10.833 -16.5 -20.5s-18.334 -18.334 -29.001 -26.001s-25 -14.5 -43 -20.5s-37.333 -9 -58 -9c-47.333 0 -87.333 14 -120 42s-49 67 -49 117zM197 159c0 -13.333 4.16699 -24.333 12.5 -33s19.5 -13 33.5 -13c21.333 0 41.333 10.667 60 32s28 43.333 28 66v12
h-16c-32 0 -59.667 -5.33301 -83 -16s-35 -26.667 -35 -48zM279 560c-48.667 0 -89.8301 13 -123.497 39s-50.5 61.333 -50.5 106v10h117v-11c0 -18.667 5.66699 -33 17 -43s24.666 -15 39.999 -15s28.666 5 39.999 15s17 24.333 17 43v11h117v-10
c0 -44.667 -16.833 -80 -50.5 -106s-74.834 -39 -123.501 -39z" />
    <glyph glyph-name="Aogonek" unicode="&#x104;" horiz-adv-x="732" 
d="M520 -127c0 49.333 22.334 91.668 67.001 127.001h-164v130h62l-27 95h-184l-27 -95h62v-130h-299v130h59l195 585h204l195 -585h59v-130h-5c-14.667 0 -30.834 -10.833 -48.501 -32.5s-26.5 -42.167 -26.5 -61.5c0 -22.667 19 -35.334 57 -38.001l-28 -110
c-47.333 5.33301 -84.333 17.833 -111 37.5s-40 45.5 -40 77.5zM312.001 361.002l106.999 0.000976562l-37 132c-3.33301 13.333 -6.16602 26.166 -8.49902 38.499s-3.83301 21.5 -4.5 27.5l-1 9h-4c-1.33301 -20.667 -6 -45.667 -14 -75z" />
    <glyph glyph-name="aogonek" unicode="&#x105;" horiz-adv-x="583" 
d="M360 -127c0 49.333 22.334 91.668 67.001 127.001h-14c-23.333 0 -40.666 5.33301 -51.999 16s-17 23.334 -17 38.001v3l2 16h-2c-1.33301 -2 -3.16602 -5 -5.49902 -9s-7.83301 -10.833 -16.5 -20.5s-18.334 -18.334 -29.001 -26.001s-25 -14.5 -43 -20.5
s-37.333 -9 -58 -9c-47.333 0 -87.333 14 -120 42s-49 67 -49 117c0 35.333 10.167 65.333 30.5 90s46.5 42.5 78.5 53.5s61.333 18.667 88 23s52.667 6.5 78 6.5h31v15c0 38 -24.333 57 -73 57c-20.667 0 -42.834 -4 -66.501 -12s-42.167 -16 -55.5 -24l-20 -13l-60 117
l10.5 7.5c4.33301 3 13.833 8.33301 28.5 16s30 14.5 46 20.5s36.167 11.333 60.5 16s48.5 7 72.5 7c74.667 0 131.667 -18 171 -54s59 -88 59 -156v-170c0 -14.667 7.33301 -22 22 -22h38v-125h-5c-14.667 0 -30.834 -10.833 -48.501 -32.5s-26.5 -42.167 -26.5 -61.5
c0 -22.667 19 -35.334 57 -38.001l-28 -110c-47.333 5.33301 -84.333 17.833 -111 37.5s-40 45.5 -40 77.5zM197.001 159.002c0 -13.333 4.16699 -24.333 12.5 -33s19.5 -13 33.5 -13c21.333 0 41.333 10.667 60 32s28 43.333 28 66v12h-16c-32 0 -59.667 -5.33301 -83 -16
s-35 -26.667 -35 -48z" />
    <glyph glyph-name="Cacute" unicode="&#x106;" horiz-adv-x="748" 
d="M34 359c0 106 36.001 193.832 108.001 263.499s160.667 104.5 266 104.5c25.333 0 52.833 -2.16699 82.5 -6.5s60.834 -11.5 93.501 -21.5s59.667 -25 81 -45s32 -43.333 32 -70v-113h-160v55c0 18 -12.5 31 -37.5 39s-52.833 12 -83.5 12
c-59.333 0 -107 -18.333 -143 -55s-54 -87.667 -54 -153c0 -72 19.167 -128.5 57.5 -169.5s88.166 -61.5 149.499 -61.5c26 0 52.333 3.83301 79 11.5s40 20.834 40 39.501v55h160v-115c0 -25.333 -10.333 -47.833 -31 -67.5s-46.834 -34.5 -78.501 -44.5
s-63 -17.333 -94 -22s-60.5 -7 -88.5 -7c-108.667 0 -199 35.5 -271 106.5s-108 159.167 -108 264.5zM309.001 760.999l116 150h177l-151 -150h-142z" />
    <glyph glyph-name="cacute" unicode="&#x107;" horiz-adv-x="567" 
d="M25 256c0 76 26.5 140.166 79.5 192.499s120.5 78.5 202.5 78.5c37.333 0 72.333 -4.16699 105 -12.5s61.167 -22.666 85.5 -42.999s36.5 -45.5 36.5 -75.5v-82h-147v31c0 12 -7 21.333 -21 28s-31.333 10 -52 10c-38.667 0 -67.5 -11 -86.5 -33s-28.5 -51.333 -28.5 -88
c0 -43.333 12.167 -76 36.5 -98s55.5 -33 93.5 -33c55.333 0 107 19 155 57l58 -121c-27.333 -24.667 -61 -44 -101 -58s-81 -21 -123 -21c-80 0 -148.833 24.5 -206.5 73.5s-86.5 113.833 -86.5 194.5zM205 564.999l116 150h177l-151 -150h-142z" />
    <glyph glyph-name="Ccircumflex" unicode="&#x108;" horiz-adv-x="748" 
d="M34 359c0 106 36.001 193.832 108.001 263.499s160.667 104.5 266 104.5c25.333 0 52.833 -2.16699 82.5 -6.5s60.834 -11.5 93.501 -21.5s59.667 -25 81 -45s32 -43.333 32 -70v-113h-160v55c0 18 -12.5 31 -37.5 39s-52.833 12 -83.5 12
c-59.333 0 -107 -18.333 -143 -55s-54 -87.667 -54 -153c0 -72 19.167 -128.5 57.5 -169.5s88.166 -61.5 149.499 -61.5c26 0 52.333 3.83301 79 11.5s40 20.834 40 39.501v55h160v-115c0 -25.333 -10.333 -47.833 -31 -67.5s-46.834 -34.5 -78.501 -44.5
s-63 -17.333 -94 -22s-60.5 -7 -88.5 -7c-108.667 0 -199 35.5 -271 106.5s-108 159.167 -108 264.5zM216.001 760.999l99 150h168l99 -150h-135l-47 82h-2l-47 -82h-135z" />
    <glyph glyph-name="ccircumflex" unicode="&#x109;" horiz-adv-x="567" 
d="M25 256c0 76 26.5 140.166 79.5 192.499s120.5 78.5 202.5 78.5c37.333 0 72.333 -4.16699 105 -12.5s61.167 -22.666 85.5 -42.999s36.5 -45.5 36.5 -75.5v-82h-147v31c0 12 -7 21.333 -21 28s-31.333 10 -52 10c-38.667 0 -67.5 -11 -86.5 -33s-28.5 -51.333 -28.5 -88
c0 -43.333 12.167 -76 36.5 -98s55.5 -33 93.5 -33c55.333 0 107 19 155 57l58 -121c-27.333 -24.667 -61 -44 -101 -58s-81 -21 -123 -21c-80 0 -148.833 24.5 -206.5 73.5s-86.5 113.833 -86.5 194.5zM112 564.999l99 150h168l99 -150h-135l-47 82h-2l-47 -82h-135z" />
    <glyph glyph-name="Cdotaccent" unicode="&#x10a;" horiz-adv-x="748" 
d="M34 359c0 106 36.001 193.832 108.001 263.499s160.667 104.5 266 104.5c25.333 0 52.833 -2.16699 82.5 -6.5s60.834 -11.5 93.501 -21.5s59.667 -25 81 -45s32 -43.333 32 -70v-113h-160v55c0 18 -12.5 31 -37.5 39s-52.833 12 -83.5 12
c-59.333 0 -107 -18.333 -143 -55s-54 -87.667 -54 -153c0 -72 19.167 -128.5 57.5 -169.5s88.166 -61.5 149.499 -61.5c26 0 52.333 3.83301 79 11.5s40 20.834 40 39.501v55h160v-115c0 -25.333 -10.333 -47.833 -31 -67.5s-46.834 -34.5 -78.501 -44.5
s-63 -17.333 -94 -22s-60.5 -7 -88.5 -7c-108.667 0 -199 35.5 -271 106.5s-108 159.167 -108 264.5zM328.001 778.999v132h143v-132h-143z" />
    <glyph glyph-name="cdotaccent" unicode="&#x10b;" horiz-adv-x="567" 
d="M25 256c0 76 26.5 140.166 79.5 192.499s120.5 78.5 202.5 78.5c37.333 0 72.333 -4.16699 105 -12.5s61.167 -22.666 85.5 -42.999s36.5 -45.5 36.5 -75.5v-82h-147v31c0 12 -7 21.333 -21 28s-31.333 10 -52 10c-38.667 0 -67.5 -11 -86.5 -33s-28.5 -51.333 -28.5 -88
c0 -43.333 12.167 -76 36.5 -98s55.5 -33 93.5 -33c55.333 0 107 19 155 57l58 -121c-27.333 -24.667 -61 -44 -101 -58s-81 -21 -123 -21c-80 0 -148.833 24.5 -206.5 73.5s-86.5 113.833 -86.5 194.5zM224 582.999v132h143v-132h-143z" />
    <glyph glyph-name="Ccaron" unicode="&#x10c;" horiz-adv-x="748" 
d="M34 359c0 106 36.001 193.832 108.001 263.499s160.667 104.5 266 104.5c25.333 0 52.833 -2.16699 82.5 -6.5s60.834 -11.5 93.501 -21.5s59.667 -25 81 -45s32 -43.333 32 -70v-113h-160v55c0 18 -12.5 31 -37.5 39s-52.833 12 -83.5 12
c-59.333 0 -107 -18.333 -143 -55s-54 -87.667 -54 -153c0 -72 19.167 -128.5 57.5 -169.5s88.166 -61.5 149.499 -61.5c26 0 52.333 3.83301 79 11.5s40 20.834 40 39.501v55h160v-115c0 -25.333 -10.333 -47.833 -31 -67.5s-46.834 -34.5 -78.501 -44.5
s-63 -17.333 -94 -22s-60.5 -7 -88.5 -7c-108.667 0 -199 35.5 -271 106.5s-108 159.167 -108 264.5zM315.001 760.999l-99 150h135l47 -82h2l47 82h135l-99 -150h-168z" />
    <glyph glyph-name="ccaron" unicode="&#x10d;" horiz-adv-x="567" 
d="M25 256c0 76 26.5 140.166 79.5 192.499s120.5 78.5 202.5 78.5c37.333 0 72.333 -4.16699 105 -12.5s61.167 -22.666 85.5 -42.999s36.5 -45.5 36.5 -75.5v-82h-147v31c0 12 -7 21.333 -21 28s-31.333 10 -52 10c-38.667 0 -67.5 -11 -86.5 -33s-28.5 -51.333 -28.5 -88
c0 -43.333 12.167 -76 36.5 -98s55.5 -33 93.5 -33c55.333 0 107 19 155 57l58 -121c-27.333 -24.667 -61 -44 -101 -58s-81 -21 -123 -21c-80 0 -148.833 24.5 -206.5 73.5s-86.5 113.833 -86.5 194.5zM211 564.999l-99 150h135l47 -82h2l47 82h135l-99 -150h-168z" />
    <glyph glyph-name="Dcaron" unicode="&#x10e;" horiz-adv-x="788" 
d="M49 0l-0.000976562 130h80v455h-80v130h315c63.333 0 112.333 -5 147 -15c72.667 -20.667 130.834 -61 174.501 -121s65.5 -133.667 65.5 -221c0 -80.667 -19.167 -150.5 -57.5 -209.5s-90.833 -100.5 -157.5 -124.5c-44 -16 -101 -24 -171 -24h-316zM307.999 140
l52 0.000976562c44 0 80.333 6.66699 109 20c30.667 15.333 54.5 40.166 71.5 74.499s25.5 75.166 25.5 122.499c0 51.333 -9.83301 94.333 -29.5 129s-46.5 59.334 -80.5 74.001c-24 10 -56 15 -96 15h-52v-435zM298.999 761.001l-99 150h135l47 -82h2l47 82h135l-99 -150
h-168z" />
    <glyph glyph-name="dcaron" unicode="&#x10f;" horiz-adv-x="663" 
d="M27 257c0 81.333 21.8281 146.668 65.4951 196.001s101.167 74 172.5 74c18.667 0 35.834 -1.83301 51.501 -5.5s28.334 -7.83398 38.001 -12.501s17.834 -9.5 24.501 -14.5s11.334 -9.16699 14.001 -12.5l4 -6h2c-0.666992 9.33301 -1 20.333 -1 33v81h-70v125h243v-568
c0 -14.667 7.33301 -22 22 -22h38v-125h-149c-23.333 -0 -40.666 5.33301 -51.999 16s-17 23.334 -17 38.001v3l2 16h-2c-1.33301 -2 -3 -5 -5 -9s-7.5 -10.833 -16.5 -20.5s-19 -18.334 -30 -26.001s-26 -14.5 -45 -20.5s-39.833 -9 -62.5 -9
c-68 0 -122.833 24.833 -164.5 74.5s-62.5 114.5 -62.5 194.5zM200.995 257.002c0 -37.333 9.33203 -67.667 27.999 -91s42.667 -35 72 -35c28 0 52 10.5 72 31.5s30 51.167 30 90.5c0 36 -8.66699 66.333 -26 91s-41.666 37 -72.999 37c-29.333 0 -53.833 -11 -73.5 -33
s-29.5 -52.333 -29.5 -91zM635.994 715.001h138.999c5.33301 -18 8 -36.667 8 -56c0 -36 -10.667 -66.667 -32 -92s-49.666 -43.333 -84.999 -54l-61 54c30 22.667 45 50 45 82c0 19.333 -4.66699 41.333 -14 66z" />
    <glyph glyph-name="Dcroat" unicode="&#x110;" horiz-adv-x="794" 
d="M49 0v130h80v154h-70v140h70v161h-80v130h336c114.667 0 205.167 -31.5 271.5 -94.5s99.5 -150.167 99.5 -261.5c0 -112 -33.333 -199.833 -100 -263.5s-157 -95.5 -271 -95.5h-336zM308 140h70c60.667 0 108 18.833 142 56.5s51 91.834 51 162.501
c0 69.333 -17.333 122.666 -52 159.999s-81.667 56 -141 56h-70v-151h114v-140h-114v-144z" />
    <glyph glyph-name="dcroat" unicode="&#x111;" horiz-adv-x="663" 
d="M27 257c0 81.333 21.8281 146.668 65.4951 196.001s101.167 74 172.5 74c18.667 0 35.834 -1.83301 51.501 -5.5s28.334 -7.83398 38.001 -12.501s17.834 -9.5 24.501 -14.5s11.334 -9.16699 14.001 -12.5l4 -6h2c-0.666992 9.33301 -1 20.333 -1 33v50h-147v95h147v61
h173v-61h66v-95h-66v-412c0 -14.667 7.33301 -22 22 -22h38v-125h-149c-23.333 -0 -40.666 5.33301 -51.999 16s-17 23.334 -17 38.001v3l2 16h-2c-1.33301 -2 -3 -5 -5 -9s-7.5 -10.833 -16.5 -20.5s-19 -18.334 -30 -26.001s-26 -14.5 -45 -20.5s-39.833 -9 -62.5 -9
c-68 0 -122.833 24.833 -164.5 74.5s-62.5 114.5 -62.5 194.5zM200.995 257.002c0 -37.333 9.33203 -67.667 27.999 -91s42.667 -35 72 -35c28 0 52 10.5 72 31.5s30 51.167 30 90.5c0 36 -8.66699 66.333 -26 91s-41.666 37 -72.999 37c-29.333 0 -53.833 -11 -73.5 -33
s-29.5 -52.333 -29.5 -91z" />
    <glyph glyph-name="Emacron" unicode="&#x112;" horiz-adv-x="659" 
d="M49 0v130h80v455h-80v130h551v-211h-150v71h-142v-145h209v-140h-209v-150h154v71h150v-211h-563zM205 782v112h275v-112h-275z" />
    <glyph glyph-name="emacron" unicode="&#x113;" horiz-adv-x="562" 
d="M25 258c0 77.333 24.334 141.5 73.001 192.5s113.667 76.5 195 76.5c75.333 0 134.166 -23.167 176.499 -69.5s63.5 -106.166 63.5 -179.499l-4 -52h-327c6 -31.333 20.167 -55 42.5 -71s48.166 -24 77.499 -24c22.667 0 46 4.16699 70 12.5s42.667 16.5 56 24.5l19 12
l63 -120c-6 -5.33301 -15 -12 -27 -20s-37.167 -18.667 -75.5 -32s-78.166 -20 -119.499 -20c-87.333 0 -156.333 26.667 -207 80s-76 116.666 -76 189.999zM206.001 321h148c0 20.667 -6.16699 38.5 -18.5 53.5s-27.833 22.5 -46.5 22.5c-44 0 -71.667 -25.333 -83 -76z
M154.001 586v112h275v-112h-275z" />
    <glyph glyph-name="Ebreve" unicode="&#x114;" horiz-adv-x="659" 
d="M49 0v130h80v455h-80v130h551v-211h-150v71h-142v-145h209v-140h-209v-150h154v71h150v-211h-563zM342 756c-48.667 0 -89.8301 13 -123.497 39s-50.5 61.333 -50.5 106v10h117v-11c0 -18.667 5.66699 -33 17 -43s24.666 -15 39.999 -15s28.666 5 39.999 15
s17 24.333 17 43v11h117v-10c0 -44.667 -16.833 -80 -50.5 -106s-74.834 -39 -123.501 -39z" />
    <glyph glyph-name="ebreve" unicode="&#x115;" horiz-adv-x="562" 
d="M25 258c0 77.333 24.334 141.5 73.001 192.5s113.667 76.5 195 76.5c75.333 0 134.166 -23.167 176.499 -69.5s63.5 -106.166 63.5 -179.499l-4 -52h-327c6 -31.333 20.167 -55 42.5 -71s48.166 -24 77.499 -24c22.667 0 46 4.16699 70 12.5s42.667 16.5 56 24.5l19 12
l63 -120c-6 -5.33301 -15 -12 -27 -20s-37.167 -18.667 -75.5 -32s-78.166 -20 -119.499 -20c-87.333 0 -156.333 26.667 -207 80s-76 116.666 -76 189.999zM206.001 321h148c0 20.667 -6.16699 38.5 -18.5 53.5s-27.833 22.5 -46.5 22.5c-44 0 -71.667 -25.333 -83 -76z
M291.001 560c-48.667 0 -89.8301 13 -123.497 39s-50.5 61.333 -50.5 106v10h117v-11c0 -18.667 5.66699 -33 17 -43s24.666 -15 39.999 -15s28.666 5 39.999 15s17 24.333 17 43v11h117v-10c0 -44.667 -16.833 -80 -50.5 -106s-74.834 -39 -123.501 -39z" />
    <glyph glyph-name="Edotaccent" unicode="&#x116;" horiz-adv-x="659" 
d="M49 0v130h80v455h-80v130h551v-211h-150v71h-142v-145h209v-140h-209v-150h154v71h150v-211h-563zM271 779v132h143v-132h-143z" />
    <glyph glyph-name="edotaccent" unicode="&#x117;" horiz-adv-x="562" 
d="M25 258c0 77.333 24.334 141.5 73.001 192.5s113.667 76.5 195 76.5c75.333 0 134.166 -23.167 176.499 -69.5s63.5 -106.166 63.5 -179.499l-4 -52h-327c6 -31.333 20.167 -55 42.5 -71s48.166 -24 77.499 -24c22.667 0 46 4.16699 70 12.5s42.667 16.5 56 24.5l19 12
l63 -120c-6 -5.33301 -15 -12 -27 -20s-37.167 -18.667 -75.5 -32s-78.166 -20 -119.499 -20c-87.333 0 -156.333 26.667 -207 80s-76 116.666 -76 189.999zM206.001 321h148c0 20.667 -6.16699 38.5 -18.5 53.5s-27.833 22.5 -46.5 22.5c-44 0 -71.667 -25.333 -83 -76z
M220.001 583v132h143v-132h-143z" />
    <glyph glyph-name="Eogonek" unicode="&#x118;" horiz-adv-x="659" 
d="M49 0v130.002h80v455h-80v130h551v-211h-150v71h-142v-145h209v-140h-209v-150h154v71h150v-211h-8c-14.667 0 -31.167 -10.833 -49.5 -32.5s-27.5 -42.167 -27.5 -61.5c0 -22.667 19 -35.334 57 -38.001l-28 -110c-47.333 5.33301 -84.333 17.833 -111 37.5
s-40 45.5 -40 77.5c0 49.333 22.333 91.666 67 126.999h-423z" />
    <glyph glyph-name="eogonek" unicode="&#x119;" horiz-adv-x="562" 
d="M25 258c0 77.333 24.3359 141.502 73.0029 192.502s113.667 76.5 195 76.5c75.333 0 134.166 -23.167 176.499 -69.5s63.5 -106.166 63.5 -179.499l-4 -52h-327c6 -31.333 20.167 -55 42.5 -71s48.166 -24 77.499 -24c22.667 0 46 4.16699 70 12.5s42.667 16.5 56 24.5
l19 12l63 -120c-22.667 -16.667 -50.667 -33.334 -84 -50.001c-8.66699 -4.66699 -17.834 -10.5 -27.501 -17.5s-19.667 -18.667 -30 -35s-15.5 -33.5 -15.5 -51.5c0 -22.667 19 -35.334 57 -38.001l-28 -110c-47.333 5.33301 -84.333 17.833 -111 37.5s-40 45.5 -40 77.5
c0 43.333 18.333 81.666 55 114.999c-87.333 0.666992 -156 27.5 -206 80.5s-75 116.167 -75 189.5zM206.003 321.002h148c0 20.667 -6.16699 38.5 -18.5 53.5s-27.833 22.5 -46.5 22.5c-44 0 -71.667 -25.333 -83 -76z" />
    <glyph glyph-name="Ecaron" unicode="&#x11a;" horiz-adv-x="659" 
d="M49 0v130h80v455h-80v130h551v-211h-150v71h-142v-145h209v-140h-209v-150h154v71h150v-211h-563zM258 761l-99 150h135l47 -82h2l47 82h135l-99 -150h-168z" />
    <glyph glyph-name="ecaron" unicode="&#x11b;" horiz-adv-x="562" 
d="M25 258c0 77.333 24.334 141.5 73.001 192.5s113.667 76.5 195 76.5c75.333 0 134.166 -23.167 176.499 -69.5s63.5 -106.166 63.5 -179.499l-4 -52h-327c6 -31.333 20.167 -55 42.5 -71s48.166 -24 77.499 -24c22.667 0 46 4.16699 70 12.5s42.667 16.5 56 24.5l19 12
l63 -120c-6 -5.33301 -15 -12 -27 -20s-37.167 -18.667 -75.5 -32s-78.166 -20 -119.499 -20c-87.333 0 -156.333 26.667 -207 80s-76 116.666 -76 189.999zM206.001 321h148c0 20.667 -6.16699 38.5 -18.5 53.5s-27.833 22.5 -46.5 22.5c-44 0 -71.667 -25.333 -83 -76z
M207.001 565l-99 150h135l47 -82h2l47 82h135l-99 -150h-168z" />
    <glyph glyph-name="Gcircumflex" unicode="&#x11c;" horiz-adv-x="768" 
d="M34 362c0 107.333 35.833 195.001 107.5 263.001s163.5 102 275.5 102c45.333 0 89.5 -5.16699 132.5 -15.5s79.667 -26.5 110 -48.5s45.5 -47.333 45.5 -76v-116h-160v52c0 17.333 -11.167 30.666 -33.5 39.999s-50.5 14 -84.5 14
c-65.333 0 -116.333 -17.833 -153 -53.5s-55 -86.834 -55 -153.501c0 -68.667 19.167 -124.5 57.5 -167.5s91.833 -64.5 160.5 -64.5c30.667 0 59 4 85 12s39 21.333 39 40v49h-115v130h275v-238c0 -25.333 -10.833 -47.666 -32.5 -66.999s-49 -34.333 -82 -45
s-66 -18.5 -99 -23.5s-63.833 -7.5 -92.5 -7.5c-110 0 -201 35.5 -273 106.5s-108 160.167 -108 267.5zM218 761.001l99 150h168l99 -150h-135l-47 82h-2l-47 -82h-135z" />
    <glyph glyph-name="gcircumflex" unicode="&#x11d;" horiz-adv-x="654" 
d="M126 -38c42.667 -22 91.002 -32.998 145.002 -32.998c79.333 0 119 34.667 119 104v17l1 19h-2c-30 -36 -73 -54 -129 -54c-73.333 0 -130.333 25.333 -171 76s-61 111.667 -61 183c0 70.667 20 130.5 60 179.5s97 73.5 171 73.5c30 0 59.167 -5.66699 87.5 -17
s49.166 -28 62.499 -50h2c-0.666992 5.33301 -1 9.66602 -1 12.999c0 11.333 5.16699 21.166 15.5 29.499s24.5 12.5 42.5 12.5h156v-125h-39c-14.667 0 -22 -6.33301 -22 -19v-324c0 -45.333 -8.33301 -85 -25 -119s-39.334 -60.833 -68.001 -80.5
s-59.5 -34.167 -92.5 -43.5s-68.167 -14 -105.5 -14c-71.333 0 -136.333 15.333 -195 46zM301.002 159.002c26.667 0 48.832 8.5 66.499 25.5s26.5 46.167 26.5 87.5c0 74 -33.333 111 -100 111c-29.333 0 -52 -9.5 -68 -28.5s-24 -43.833 -24 -74.5
c0 -34.667 8.33301 -63.5 25 -86.5s41.334 -34.5 74.001 -34.5zM131 565.002l99 150h168l99 -150h-135l-47 82h-2l-47 -82h-135z" />
    <glyph glyph-name="Gbreve" unicode="&#x11e;" horiz-adv-x="768" 
d="M34 362c0 107.333 35.833 195.001 107.5 263.001s163.5 102 275.5 102c45.333 0 89.5 -5.16699 132.5 -15.5s79.667 -26.5 110 -48.5s45.5 -47.333 45.5 -76v-116h-160v52c0 17.333 -11.167 30.666 -33.5 39.999s-50.5 14 -84.5 14
c-65.333 0 -116.333 -17.833 -153 -53.5s-55 -86.834 -55 -153.501c0 -68.667 19.167 -124.5 57.5 -167.5s91.833 -64.5 160.5 -64.5c30.667 0 59 4 85 12s39 21.333 39 40v49h-115v130h275v-238c0 -25.333 -10.833 -47.666 -32.5 -66.999s-49 -34.333 -82 -45
s-66 -18.5 -99 -23.5s-63.833 -7.5 -92.5 -7.5c-110 0 -201 35.5 -273 106.5s-108 160.167 -108 267.5zM401 756.001c-48.667 0 -89.8301 13 -123.497 39s-50.5 61.333 -50.5 106v10h117v-11c0 -18.667 5.66699 -33 17 -43s24.666 -15 39.999 -15s28.666 5 39.999 15
s17 24.333 17 43v11h117v-10c0 -44.667 -16.833 -80 -50.5 -106s-74.834 -39 -123.501 -39z" />
    <glyph glyph-name="gbreve" unicode="&#x11f;" horiz-adv-x="654" 
d="M126 -38c42.667 -22 91.002 -32.998 145.002 -32.998c79.333 0 119 34.667 119 104v17l1 19h-2c-30 -36 -73 -54 -129 -54c-73.333 0 -130.333 25.333 -171 76s-61 111.667 -61 183c0 70.667 20 130.5 60 179.5s97 73.5 171 73.5c30 0 59.167 -5.66699 87.5 -17
s49.166 -28 62.499 -50h2c-0.666992 5.33301 -1 9.66602 -1 12.999c0 11.333 5.16699 21.166 15.5 29.499s24.5 12.5 42.5 12.5h156v-125h-39c-14.667 0 -22 -6.33301 -22 -19v-324c0 -45.333 -8.33301 -85 -25 -119s-39.334 -60.833 -68.001 -80.5
s-59.5 -34.167 -92.5 -43.5s-68.167 -14 -105.5 -14c-71.333 0 -136.333 15.333 -195 46zM301.002 159.002c26.667 0 48.832 8.5 66.499 25.5s26.5 46.167 26.5 87.5c0 74 -33.333 111 -100 111c-29.333 0 -52 -9.5 -68 -28.5s-24 -43.833 -24 -74.5
c0 -34.667 8.33301 -63.5 25 -86.5s41.334 -34.5 74.001 -34.5zM314 560.002c-48.667 0 -89.8301 13 -123.497 39s-50.5 61.333 -50.5 106v10h117v-11c0 -18.667 5.66699 -33 17 -43s24.666 -15 39.999 -15s28.666 5 39.999 15s17 24.333 17 43v11h117v-10
c0 -44.667 -16.833 -80 -50.5 -106s-74.834 -39 -123.501 -39z" />
    <glyph glyph-name="Gdotaccent" unicode="&#x120;" horiz-adv-x="768" 
d="M34 362c0 107.333 35.833 195.001 107.5 263.001s163.5 102 275.5 102c45.333 0 89.5 -5.16699 132.5 -15.5s79.667 -26.5 110 -48.5s45.5 -47.333 45.5 -76v-116h-160v52c0 17.333 -11.167 30.666 -33.5 39.999s-50.5 14 -84.5 14
c-65.333 0 -116.333 -17.833 -153 -53.5s-55 -86.834 -55 -153.501c0 -68.667 19.167 -124.5 57.5 -167.5s91.833 -64.5 160.5 -64.5c30.667 0 59 4 85 12s39 21.333 39 40v49h-115v130h275v-238c0 -25.333 -10.833 -47.666 -32.5 -66.999s-49 -34.333 -82 -45
s-66 -18.5 -99 -23.5s-63.833 -7.5 -92.5 -7.5c-110 0 -201 35.5 -273 106.5s-108 160.167 -108 267.5zM330 779.001v132h143v-132h-143z" />
    <glyph glyph-name="gdotaccent" unicode="&#x121;" horiz-adv-x="654" 
d="M126 -38c42.667 -22 91.002 -32.998 145.002 -32.998c79.333 0 119 34.667 119 104v17l1 19h-2c-30 -36 -73 -54 -129 -54c-73.333 0 -130.333 25.333 -171 76s-61 111.667 -61 183c0 70.667 20 130.5 60 179.5s97 73.5 171 73.5c30 0 59.167 -5.66699 87.5 -17
s49.166 -28 62.499 -50h2c-0.666992 5.33301 -1 9.66602 -1 12.999c0 11.333 5.16699 21.166 15.5 29.499s24.5 12.5 42.5 12.5h156v-125h-39c-14.667 0 -22 -6.33301 -22 -19v-324c0 -45.333 -8.33301 -85 -25 -119s-39.334 -60.833 -68.001 -80.5
s-59.5 -34.167 -92.5 -43.5s-68.167 -14 -105.5 -14c-71.333 0 -136.333 15.333 -195 46zM301.002 159.002c26.667 0 48.832 8.5 66.499 25.5s26.5 46.167 26.5 87.5c0 74 -33.333 111 -100 111c-29.333 0 -52 -9.5 -68 -28.5s-24 -43.833 -24 -74.5
c0 -34.667 8.33301 -63.5 25 -86.5s41.334 -34.5 74.001 -34.5zM243 583.002v132h143v-132h-143z" />
    <glyph glyph-name="Gcommaaccent" unicode="&#x122;" horiz-adv-x="768" 
d="M34 362c0 107.333 35.833 195.001 107.5 263.001s163.5 102 275.5 102c45.333 0 89.5 -5.16699 132.5 -15.5s79.667 -26.5 110 -48.5s45.5 -47.333 45.5 -76v-116h-160v52c0 17.333 -11.167 30.666 -33.5 39.999s-50.5 14 -84.5 14
c-65.333 0 -116.333 -17.833 -153 -53.5s-55 -86.834 -55 -153.501c0 -68.667 19.167 -124.5 57.5 -167.5s91.833 -64.5 160.5 -64.5c30.667 0 59 4 85 12s39 21.333 39 40v49h-115v130h275v-238c0 -25.333 -10.833 -47.666 -32.5 -66.999s-49 -34.333 -82 -45
s-66 -18.5 -99 -23.5s-63.833 -7.5 -92.5 -7.5c-110 0 -201 35.5 -273 106.5s-108 160.167 -108 267.5zM332 -45.999h138.999c5.33301 -18 8 -36.667 8 -56c0 -36 -10.667 -66.667 -32 -92s-49.666 -43.333 -84.999 -54l-61 54c30 22.667 45 50 45 82
c0 19.333 -4.66699 41.333 -14 66z" />
    <glyph glyph-name="gcommaaccent" unicode="&#x123;" horiz-adv-x="654" 
d="M126 -38c42.667 -22 91.002 -32.998 145.002 -32.998c79.333 0 119 34.667 119 104v17l1 19h-2c-30 -36 -73 -54 -129 -54c-73.333 0 -130.333 25.333 -171 76s-61 111.667 -61 183c0 70.667 20 130.5 60 179.5s97 73.5 171 73.5c30 0 59.167 -5.66699 87.5 -17
s49.166 -28 62.499 -50h2c-0.666992 5.33301 -1 9.66602 -1 12.999c0 11.333 5.16699 21.166 15.5 29.499s24.5 12.5 42.5 12.5h156v-125h-39c-14.667 0 -22 -6.33301 -22 -19v-324c0 -45.333 -8.33301 -85 -25 -119s-39.334 -60.833 -68.001 -80.5
s-59.5 -34.167 -92.5 -43.5s-68.167 -14 -105.5 -14c-71.333 0 -136.333 15.333 -195 46zM301.002 159.002c26.667 0 48.832 8.5 66.499 25.5s26.5 46.167 26.5 87.5c0 74 -33.333 111 -100 111c-29.333 0 -52 -9.5 -68 -28.5s-24 -43.833 -24 -74.5
c0 -34.667 8.33301 -63.5 25 -86.5s41.334 -34.5 74.001 -34.5zM371 571.002h-138.999c-5.33301 18 -8 36.667 -8 56c0 36 10.667 66.667 32 92s49.666 43.333 84.999 54l61 -54c-30 -22.667 -45 -50 -45 -82c0 -19.333 4.66699 -41.333 14 -66z" />
    <glyph glyph-name="Hcircumflex" unicode="&#x124;" horiz-adv-x="872" 
d="M49 0v130h80v455h-80v130h339v-130h-80v-160h256v160h-80v130h339v-130h-80v-455h80v-130h-339v130h80v155h-256v-155h80v-130h-339zM253 761l99 150h168l99 -150h-135l-47 82h-2l-47 -82h-135z" />
    <glyph glyph-name="hcircumflex" unicode="&#x125;" horiz-adv-x="694" 
d="M28 0v125h65v465h-70v125h243v-226l-2 -44h2c14.667 25.333 36 45.333 64 60s59 22 93 22c123.333 0 185 -64.333 185 -193v-209h65v-125h-238v302c0 45.333 -19 68 -57 68c-36 0 -63.667 -13.667 -83 -41s-29 -61 -29 -101v-103h65v-125h-303zM-4 761l99 150h168
l99 -150h-135l-47 82h-2l-47 -82h-135z" />
    <glyph glyph-name="Hbar" unicode="&#x126;" horiz-adv-x="872" 
d="M49 448v80h80v57h-80v130h339v-130h-80v-57h256v57h-80v130h339v-130h-80v-57h80v-80h-80v-318h80v-130h-339v130h80v145h-256v-145h80v-130h-339v130h80v318h-80zM308 385h256v63h-256v-63z" />
    <glyph glyph-name="hbar" unicode="&#x127;" horiz-adv-x="694" 
d="M28 0v125h65v434h-58v94h58v62h173v-62h154v-94h-154v-70l-2 -44h2c14.667 25.333 36 45.333 64 60s59 22 93 22c123.333 0 185 -64.333 185 -193v-209h65v-125h-238v302c0 45.333 -19 68 -57 68c-36 0 -63.667 -13.667 -83 -41s-29 -61 -29 -101v-103h51v-125h-289z" />
    <glyph glyph-name="Itilde" unicode="&#x128;" horiz-adv-x="437" 
d="M49 0v130h80v455h-80v130h339v-130h-80v-455h80v-130h-339zM18 761c0 102 42.667 153 128 153c19.333 0 36.666 -5 51.999 -15s29 -20 41 -30s23 -15 33 -15c24.667 0 37 19 37 57h112c0 -102 -42.667 -153 -128 -153c-19.333 0 -36.666 5 -51.999 15s-29 20 -41 30
s-23 15 -33 15c-24.667 0 -37 -19 -37 -57h-112z" />
    <glyph glyph-name="itilde" unicode="&#x129;" horiz-adv-x="373" 
d="M42 0v125h65v265h-70v125h243v-390h65v-125h-303zM-9 565c0 102 42.667 153 128 153c19.333 0 36.666 -5 51.999 -15s29 -20 41 -30s23 -15 33 -15c24.667 0 37 19 37 57h112c0 -102 -42.667 -153 -128 -153c-19.333 0 -36.666 5 -51.999 15s-29 20 -41 30s-23 15 -33 15
c-24.667 0 -37 -19 -37 -57h-112z" />
    <glyph glyph-name="Imacron" unicode="&#x12a;" horiz-adv-x="437" 
d="M49 0v130h80v455h-80v130h339v-130h-80v-455h80v-130h-339zM82 782v112h275v-112h-275z" />
    <glyph glyph-name="imacron" unicode="&#x12b;" horiz-adv-x="373" 
d="M42 0v125h65v265h-70v125h243v-390h65v-125h-303zM55 586v112h275v-112h-275z" />
    <glyph glyph-name="Ibreve" unicode="&#x12c;" horiz-adv-x="437" 
d="M49 0v130h80v455h-80v130h339v-130h-80v-455h80v-130h-339zM219 756c-48.667 0 -89.8301 13 -123.497 39s-50.5 61.333 -50.5 106v10h117v-11c0 -18.667 5.66699 -33 17 -43s24.666 -15 39.999 -15s28.666 5 39.999 15s17 24.333 17 43v11h117v-10
c0 -44.667 -16.833 -80 -50.5 -106s-74.834 -39 -123.501 -39z" />
    <glyph glyph-name="ibreve" unicode="&#x12d;" horiz-adv-x="373" 
d="M42 0v125h65v265h-70v125h243v-390h65v-125h-303zM192 560c-48.667 0 -89.8301 13 -123.497 39s-50.5 61.333 -50.5 106v10h117v-11c0 -18.667 5.66699 -33 17 -43s24.666 -15 39.999 -15s28.666 5 39.999 15s17 24.333 17 43v11h117v-10
c0 -44.667 -16.833 -80 -50.5 -106s-74.834 -39 -123.501 -39z" />
    <glyph glyph-name="Iogonek" unicode="&#x12e;" horiz-adv-x="437" 
d="M49 0l0.000976562 130.002h80v455h-80v130h339v-130h-80v-455h80v-130h-12c-14.667 0 -30.834 -10.833 -48.501 -32.5s-26.5 -42.167 -26.5 -61.5c0 -22.667 19 -35.334 57 -38.001l-28 -110c-47.333 5.33301 -84.333 17.833 -111 37.5s-40 45.5 -40 77.5
c0 49.333 22.333 91.666 67 126.999h-197z" />
    <glyph glyph-name="iogonek" unicode="&#x12f;" horiz-adv-x="373" 
d="M42 0l0.000976562 125.002h65v265h-70v125h243v-390h65v-125h-12c-14.667 0 -30.834 -10.833 -48.501 -32.5s-26.5 -42.167 -26.5 -61.5c0 -22.667 19 -35.334 57 -38.001l-28 -110c-47.333 5.33301 -84.333 17.833 -111 37.5s-40 45.5 -40 77.5
c0 49.333 22.333 91.666 67 126.999h-161zM109.001 580.002v135h169v-135h-169z" />
    <glyph glyph-name="Idotaccent" unicode="&#x130;" horiz-adv-x="437" 
d="M49 0v130h80v455h-80v130h339v-130h-80v-455h80v-130h-339zM148 779v132h143v-132h-143z" />
    <glyph glyph-name="dotlessi" unicode="&#x131;" horiz-adv-x="373" 
d="M42 0v125h65v265h-70v125h243v-390h65v-125h-303z" />
    <glyph glyph-name="IJ" unicode="&#x132;" 
d="M51 0v130h79v455h-80v130h339v-130h-80v-455h62v-130h-320zM423 139c26.667 -3.33301 52.667 2.83301 78 18.5s38 41.5 38 77.5v350h-90v130h339v-130h-70v-332c0 -50.667 -8.5 -94 -25.5 -130s-40.167 -63 -69.5 -81s-60.5 -30.333 -93.5 -37s-68.5 -8.66699 -106.5 -6
v140z" />
    <glyph glyph-name="ij" unicode="&#x133;" horiz-adv-x="692" 
d="M109 580v135h169v-135h-169zM42 0v125h65v265h-70v125h243v-390h65v-125h-303zM450 580v135h169v-135h-169zM333 -70c6 -0.666992 13.333 -0.998047 22 -0.998047c62 0 93 23.667 93 71v390h-71v125h244v-523c0 -32.667 -6 -61.667 -18 -87s-26.667 -44.833 -44 -58.5
s-37.666 -24.834 -60.999 -33.501s-44.333 -14.334 -63 -17.001s-37.334 -4 -56.001 -4l-46 3v135z" />
    <glyph glyph-name="Jcircumflex" unicode="&#x134;" horiz-adv-x="582" 
d="M14 210v61.998h170v-48c0 -25.333 4 -45.166 12 -59.499s24.333 -21.5 49 -21.5c37.333 0 56 27 56 81v361h-90v130h339v-130h-70v-365c0 -74 -23.333 -131.167 -70 -171.5s-102 -60.5 -166 -60.5c-63.333 0 -117.5 18.833 -162.5 56.5s-67.5 92.834 -67.5 165.501z
M205 760.998l99 150h168l99 -150h-135l-47 82h-2l-47 -82h-135z" />
    <glyph glyph-name="jcircumflex" unicode="&#x135;" horiz-adv-x="340" 
d="M-20 565l99 150h168l99 -150h-135l-47 82h-2l-47 -82h-135zM-19 -70c6 -0.666992 13.333 -0.998047 22 -0.998047c62 0 93 23.667 93 71v390h-71v125h244v-523c0 -32.667 -6 -61.667 -18 -87s-26.667 -44.833 -44 -58.5s-37.666 -24.834 -60.999 -33.501
s-44.333 -14.334 -63 -17.001s-37.334 -4 -56.001 -4l-46 3v135z" />
    <glyph glyph-name="Kcommaaccent" unicode="&#x136;" horiz-adv-x="751" 
d="M49 0l0.000976562 129.999h80v455h-80v130h311v-130h-52v-151h60l105 151h-54v130h294v-130h-60l-152 -205v-2c20 -9.33301 38.333 -30.666 55 -63.999l81 -161c7.33301 -15.333 22 -23 44 -23h31v-130h-122c-28.667 0 -50.334 4.16699 -65.001 12.5
s-26.667 21.833 -36 40.5l-107 218c-8 15.333 -24.667 23 -50 23h-24v-164h75v-130h-334zM321.001 -46.001h138.999c5.33301 -18 8 -36.667 8 -56c0 -36 -10.667 -66.667 -32 -92s-49.666 -43.333 -84.999 -54l-61 54c30 22.667 45 50 45 82
c0 19.333 -4.66699 41.333 -14 66z" />
    <glyph glyph-name="kcommaaccent" unicode="&#x137;" horiz-adv-x="634" 
d="M28 0l-0.000976562 124.999h65v465h-70v125h243v-391h59l54 66h-49v125h268v-125h-63l-89 -108v-2c14.667 -7.33301 28.334 -22.666 41.001 -45.999l51 -92c6.66699 -11.333 19.334 -17 38.001 -17h25v-125h-126c-19.333 0 -34.333 2.5 -45 7.5
s-20.334 15.5 -29.001 31.5l-79 146c-6 11.333 -19.667 17 -41 17h-15v-77h37v-125h-275zM265.999 -46.001h138.999c5.33301 -18 8 -36.667 8 -56c0 -36 -10.667 -66.667 -32 -92s-49.666 -43.333 -84.999 -54l-61 54c30 22.667 45 50 45 82
c0 19.333 -4.66699 41.333 -14 66z" />
    <glyph glyph-name="kgreenlandic" unicode="&#x138;" horiz-adv-x="646" 
d="M42 0l-0.000976562 125h65v265h-70v125h243v-184h64l48 59h-48v125h263v-125h-58l-89 -108v-2c16.667 -11.333 31.334 -28.333 44.001 -51l48 -87c6.66699 -11.333 19.334 -17 38.001 -17h25v-125h-126c-19.333 0 -34.333 2.5 -45 7.5s-20.334 15.5 -29.001 31.5l-79 146
c-6 11.333 -19.667 17 -41 17h-15v-77h37v-125h-275z" />
    <glyph glyph-name="Lacute" unicode="&#x139;" horiz-adv-x="634" 
d="M50 0v130h80v445h-80v140h339v-140h-80v-435h154v105h150v-245h-563zM126 761l116 150h177l-151 -150h-142z" />
    <glyph glyph-name="lacute" unicode="&#x13a;" horiz-adv-x="335" 
d="M63 190l0.00390625 400h-70v125h243v-515c0 -25.333 3.16699 -42.666 9.5 -51.999s19.166 -14 38.499 -14l21 1v-137c-16 -2 -33.333 -3 -52 -3c-26.667 0 -49.834 2.16699 -69.501 6.5s-39.334 12.833 -59.001 25.5s-34.834 32.667 -45.501 60s-16 61.666 -16 102.999z
M59.0039 761l116 150h177l-151 -150h-142z" />
    <glyph glyph-name="Lcommaaccent" unicode="&#x13b;" horiz-adv-x="634" 
d="M50 0v130h80v445h-80v140h339v-140h-80v-435h154v105h150v-245h-563zM282 -46h138.999c5.33301 -18 8 -36.667 8 -56c0 -36 -10.667 -66.667 -32 -92s-49.666 -43.333 -84.999 -54l-61 54c30 22.667 45 50 45 82c0 19.333 -4.66699 41.333 -14 66z" />
    <glyph glyph-name="lcommaaccent" unicode="&#x13c;" horiz-adv-x="335" 
d="M63 190l0.00390625 400h-70v125h243v-515c0 -25.333 3.16699 -42.666 9.5 -51.999s19.166 -14 38.499 -14l21 1v-137c-16 -2 -33.333 -3 -52 -3c-26.667 0 -49.834 2.16699 -69.501 6.5s-39.334 12.833 -59.001 25.5s-34.834 32.667 -45.501 60s-16 61.666 -16 102.999z
M121.004 -46h138.999c5.33301 -18 8 -36.667 8 -56c0 -36 -10.667 -66.667 -32 -92s-49.666 -43.333 -84.999 -54l-61 54c30 22.667 45 50 45 82c0 19.333 -4.66699 41.333 -14 66z" />
    <glyph glyph-name="Lcaron" unicode="&#x13d;" horiz-adv-x="634" 
d="M50 0v130h80v445h-80v140h339v-140h-80v-435h154v105h150v-245h-563zM282 -46h138.999c5.33301 -18 8 -36.667 8 -56c0 -36 -10.667 -66.667 -32 -92s-49.666 -43.333 -84.999 -54l-61 54c30 22.667 45 50 45 82c0 19.333 -4.66699 41.333 -14 66z" />
    <glyph glyph-name="lcaron" unicode="&#x13e;" horiz-adv-x="336" 
d="M63 190l0.00390625 400h-70v125h243v-515c0 -25.333 3.16699 -42.666 9.5 -51.999s19.166 -14 38.499 -14l21 1v-137c-16 -2 -33.333 -3 -52 -3c-26.667 0 -49.834 2.16699 -69.501 6.5s-39.334 12.833 -59.001 25.5s-34.834 32.667 -45.501 60s-16 61.666 -16 102.999z
M313.004 714h138.999c5.33301 -18 8 -36.667 8 -56c0 -36 -10.667 -66.667 -32 -92s-49.666 -43.333 -84.999 -54l-61 54c30 22.667 45 50 45 82c0 19.333 -4.66699 41.333 -14 66z" />
    <glyph glyph-name="Ldot" unicode="&#x13f;" horiz-adv-x="634" 
d="M50 0v130h80v445h-80v140h339v-140h-80v-435h154v105h150v-245h-563zM402 315v164h158v-164h-158z" />
    <glyph glyph-name="ldot" unicode="&#x140;" horiz-adv-x="494" 
d="M63 190l0.00390625 400h-70v125h243v-515c0 -25.333 3.16699 -42.666 9.5 -51.999s19.166 -14 38.499 -14l21 1v-137c-16 -2 -33.333 -3 -52 -3c-26.667 0 -49.834 2.16699 -69.501 6.5s-39.334 12.833 -59.001 25.5s-34.834 32.667 -45.501 60s-16 61.666 -16 102.999z
M318.004 316v164h158v-164h-158z" />
    <glyph glyph-name="Lslash" unicode="&#x141;" horiz-adv-x="633" 
d="M49 0v130h80v95l-80 -42v146l80 42v204h-80v140h339v-140h-80v-108l164 88v-146l-164 -88v-181h164v105h140v-245h-563z" />
    <glyph glyph-name="lslash" unicode="&#x142;" horiz-adv-x="360" 
d="M7 212l0.00390625 146l70 38v194h-70v125h243v-225l89 49v-146l-89 -49v-141c0 -25.333 3.16699 -42.666 9.5 -51.999s19.166 -14 38.499 -14l21 1v-140c-16 -2 -33.333 -3 -52 -3c-26.667 0 -49.834 2.16699 -69.501 6.5s-39.334 12.833 -59.001 25.5
s-34.834 32.667 -45.501 60s-16 61.666 -16 102.999v60z" />
    <glyph glyph-name="Nacute" unicode="&#x143;" horiz-adv-x="859" 
d="M49 0v130h80v455h-80v130h261l224 -379c5.33301 -8.66699 10.5 -19 15.5 -31s8.5 -22 10.5 -30l4 -12h4c-4 32 -6 58.667 -6 80v242h-84v130h343v-130h-80v-585h-180l-225 377c-5.33301 8.66699 -10.5 19 -15.5 31s-8.5 22 -10.5 30l-4 12h-4c4 -32 6 -58.667 6 -80v-240
h84v-130h-343zM342 761l116 150h177l-151 -150h-142z" />
    <glyph glyph-name="nacute" unicode="&#x144;" horiz-adv-x="708" 
d="M42 0v124.999h65v243c0 14.667 -7.33301 22 -22 22h-48v125h164c23.333 0 41 -5.16699 53 -15.5s18 -24.5 18 -42.5v-17l-1 -12h2l5.5 10.5c2.33301 4.33301 8.5 12.333 18.5 24s21 21.834 33 30.501s28.667 16.5 50 23.5s44 10.5 68 10.5c116 0 174 -64.333 174 -193
v-209h65v-125h-238v302c0 45.333 -19.333 68 -58 68c-36 0 -63.5 -15.333 -82.5 -46s-28.5 -66 -28.5 -106v-93h65v-125h-303zM278 564.999l116 150h177l-151 -150h-142z" />
    <glyph glyph-name="Ncommaaccent" unicode="&#x145;" horiz-adv-x="859" 
d="M49 0v130h80v455h-80v130h261l224 -379c5.33301 -8.66699 10.5 -19 15.5 -31s8.5 -22 10.5 -30l4 -12h4c-4 32 -6 58.667 -6 80v242h-84v130h343v-130h-80v-585h-180l-225 377c-5.33301 8.66699 -10.5 19 -15.5 31s-8.5 22 -10.5 30l-4 12h-4c4 -32 6 -58.667 6 -80v-240
h84v-130h-343zM363 -46h138.999c5.33301 -18 8 -36.667 8 -56c0 -36 -10.667 -66.667 -32 -92s-49.666 -43.333 -84.999 -54l-61 54c30 22.667 45 50 45 82c0 19.333 -4.66699 41.333 -14 66z" />
    <glyph glyph-name="ncommaaccent" unicode="&#x146;" horiz-adv-x="708" 
d="M42 0v124.999h65v243c0 14.667 -7.33301 22 -22 22h-48v125h164c23.333 0 41 -5.16699 53 -15.5s18 -24.5 18 -42.5v-17l-1 -12h2l5.5 10.5c2.33301 4.33301 8.5 12.333 18.5 24s21 21.834 33 30.501s28.667 16.5 50 23.5s44 10.5 68 10.5c116 0 174 -64.333 174 -193
v-209h65v-125h-238v302c0 45.333 -19.333 68 -58 68c-36 0 -63.5 -15.333 -82.5 -46s-28.5 -66 -28.5 -106v-93h65v-125h-303zM295 -46.001h138.999c5.33301 -18 8 -36.667 8 -56c0 -36 -10.667 -66.667 -32 -92s-49.666 -43.333 -84.999 -54l-61 54c30 22.667 45 50 45 82
c0 19.333 -4.66699 41.333 -14 66z" />
    <glyph glyph-name="Ncaron" unicode="&#x147;" horiz-adv-x="859" 
d="M49 0v130h80v455h-80v130h261l224 -379c5.33301 -8.66699 10.5 -19 15.5 -31s8.5 -22 10.5 -30l4 -12h4c-4 32 -6 58.667 -6 80v242h-84v130h343v-130h-80v-585h-180l-225 377c-5.33301 8.66699 -10.5 19 -15.5 31s-8.5 22 -10.5 30l-4 12h-4c4 -32 6 -58.667 6 -80v-240
h84v-130h-343zM348 761l-99 150h135l47 -82h2l47 82h135l-99 -150h-168z" />
    <glyph glyph-name="ncaron" unicode="&#x148;" horiz-adv-x="708" 
d="M42 0v124.999h65v243c0 14.667 -7.33301 22 -22 22h-48v125h164c23.333 0 41 -5.16699 53 -15.5s18 -24.5 18 -42.5v-17l-1 -12h2l5.5 10.5c2.33301 4.33301 8.5 12.333 18.5 24s21 21.834 33 30.501s28.667 16.5 50 23.5s44 10.5 68 10.5c116 0 174 -64.333 174 -193
v-209h65v-125h-238v302c0 45.333 -19.333 68 -58 68c-36 0 -63.5 -15.333 -82.5 -46s-28.5 -66 -28.5 -106v-93h65v-125h-303zM284 564.999l-99 150h135l47 -82h2l47 82h135l-99 -150h-168z" />
    <glyph glyph-name="napostrophe" unicode="&#x149;" horiz-adv-x="708" 
d="M42 0v124.999h65v243c0 14.667 -7.33301 22 -22 22h-48v125h164c23.333 0 41 -5.16699 53 -15.5s18 -24.5 18 -42.5v-17l-1 -12h2l5.5 10.5c2.33301 4.33301 8.5 12.333 18.5 24s21 21.834 33 30.501s28.667 16.5 50 23.5s44 10.5 68 10.5c116 0 174 -64.333 174 -193
v-209h65v-125h-238v302c0 45.333 -19.333 68 -58 68c-36 0 -63.5 -15.333 -82.5 -46s-28.5 -66 -28.5 -106v-93h65v-125h-303zM5 749.999h138.999c5.33301 -18 8 -36.667 8 -56c0 -36 -10.667 -66.667 -32 -92s-49.666 -43.333 -84.999 -54l-61 54c30 22.667 45 50 45 82
c0 19.333 -4.66699 41.333 -14 66z" />
    <glyph glyph-name="Eng" unicode="&#x14a;" horiz-adv-x="859" 
d="M49 0l-0.00195312 130h80v455h-80v130h261l224 -379c5.33301 -8.66699 10.5 -19 15.5 -31s8.5 -22 10.5 -30l4 -12h4c-4 32 -6 58.667 -6 80v242h-84v130h343v-130h-80v-518c0 -55.333 -7.16699 -101.333 -21.5 -138s-35.666 -64.5 -63.999 -83.5
s-59.166 -32.167 -92.499 -39.5s-73.666 -11 -120.999 -11v148c34 0 62.667 4.66699 86 14s35.666 22 36.999 38l-229 382c-5.33301 8.66699 -10.5 19 -15.5 31s-8.5 22 -10.5 30l-4 12h-4c4 -32 6 -58.667 6 -80v-240h84v-130h-343z" />
    <glyph glyph-name="eng" unicode="&#x14b;" horiz-adv-x="683" 
d="M42 0l-0.000976562 124.999h65v243c0 14.667 -7.33301 22 -22 22h-48v125h164c23.333 0 41 -5.16699 53 -15.5s18 -24.5 18 -42.5v-17l-1 -12h2l5.5 10.5c2.33301 4.33301 8.5 12.333 18.5 24s21 21.834 33 30.501s28.667 16.5 50 23.5s44 10.5 68 10.5
c116 0 174 -64.333 174 -193v-347c0 -32.667 -6 -61.5 -18 -86.5s-26.5 -44.167 -43.5 -57.5s-37.333 -24 -61 -32s-44.667 -13.167 -63 -15.5s-37.166 -3.5 -56.499 -3.5l-46 3v139c6 -0.666992 13.333 -1 22 -1c62 0 93 22 93 66v303c0 45.333 -19.333 68 -58 68
c-36 0 -63.5 -15.333 -82.5 -46s-28.5 -66 -28.5 -106v-93h65v-125h-303z" />
    <glyph glyph-name="Omacron" unicode="&#x14c;" 
d="M34 362c0 103.333 35.667 190 107 260s161 105 269 105s197.667 -35 269 -105s107 -156.667 107 -260c0 -106 -35.667 -194.833 -107 -266.5s-161 -107.5 -269 -107.5s-197.667 35.833 -269 107.5s-107 160.5 -107 266.5zM219 362c0 -62 18.667 -114 56 -156
s82.333 -63 135 -63s97.667 21 135 63s56 94 56 156c0 59.333 -18.667 109.166 -56 149.499s-82.333 60.5 -135 60.5s-97.667 -20.167 -135 -60.5s-56 -90.166 -56 -149.499zM273 782v112h275v-112h-275z" />
    <glyph glyph-name="omacron" unicode="&#x14d;" horiz-adv-x="634" 
d="M25 256c0 79.333 28 144.333 84 195s125 76 207 76c82.667 0 152.167 -25.167 208.5 -75.5s84.5 -115.5 84.5 -195.5c0 -79.333 -28 -143.833 -84 -193.5s-125.333 -74.5 -208 -74.5s-152 24.833 -208 74.5s-84 114.167 -84 193.5zM200 256
c0 -37.333 11.333 -67.333 34 -90s50.334 -34 83.001 -34s60.334 11.333 83.001 34s34 52.667 34 90c0 38 -11.333 68.667 -34 92s-50.334 35 -83.001 35s-60.334 -11.667 -83.001 -35s-34 -54 -34 -92zM180 586v112h275v-112h-275z" />
    <glyph glyph-name="Obreve" unicode="&#x14e;" 
d="M34 362c0 103.333 35.667 190 107 260s161 105 269 105s197.667 -35 269 -105s107 -156.667 107 -260c0 -106 -35.667 -194.833 -107 -266.5s-161 -107.5 -269 -107.5s-197.667 35.833 -269 107.5s-107 160.5 -107 266.5zM219 362c0 -62 18.667 -114 56 -156
s82.333 -63 135 -63s97.667 21 135 63s56 94 56 156c0 59.333 -18.667 109.166 -56 149.499s-82.333 60.5 -135 60.5s-97.667 -20.167 -135 -60.5s-56 -90.166 -56 -149.499zM410 756c-48.667 0 -89.8301 13 -123.497 39s-50.5 61.333 -50.5 106v10h117v-11
c0 -18.667 5.66699 -33 17 -43s24.666 -15 39.999 -15s28.666 5 39.999 15s17 24.333 17 43v11h117v-10c0 -44.667 -16.833 -80 -50.5 -106s-74.834 -39 -123.501 -39z" />
    <glyph glyph-name="obreve" unicode="&#x14f;" horiz-adv-x="634" 
d="M25 256c0 79.333 28 144.333 84 195s125 76 207 76c82.667 0 152.167 -25.167 208.5 -75.5s84.5 -115.5 84.5 -195.5c0 -79.333 -28 -143.833 -84 -193.5s-125.333 -74.5 -208 -74.5s-152 24.833 -208 74.5s-84 114.167 -84 193.5zM200 256
c0 -37.333 11.333 -67.333 34 -90s50.334 -34 83.001 -34s60.334 11.333 83.001 34s34 52.667 34 90c0 38 -11.333 68.667 -34 92s-50.334 35 -83.001 35s-60.334 -11.667 -83.001 -35s-34 -54 -34 -92zM317 560c-48.667 0 -89.8301 13 -123.497 39s-50.5 61.333 -50.5 106
v10h117v-11c0 -18.667 5.66699 -33 17 -43s24.666 -15 39.999 -15s28.666 5 39.999 15s17 24.333 17 43v11h117v-10c0 -44.667 -16.833 -80 -50.5 -106s-74.834 -39 -123.501 -39z" />
    <glyph glyph-name="Ohungarumlaut" unicode="&#x150;" 
d="M34 362c0 103.333 35.667 190 107 260s161 105 269 105s197.667 -35 269 -105s107 -156.667 107 -260c0 -106 -35.667 -194.833 -107 -266.5s-161 -107.5 -269 -107.5s-197.667 35.833 -269 107.5s-107 160.5 -107 266.5zM219 362c0 -62 18.667 -114 56 -156
s82.333 -63 135 -63s97.667 21 135 63s56 94 56 156c0 59.333 -18.667 109.166 -56 149.499s-82.333 60.5 -135 60.5s-97.667 -20.167 -135 -60.5s-56 -90.166 -56 -149.499zM436 761l81 150h163l-118 -150h-126zM228 761l76 150h139l-79 -150h-136z" />
    <glyph glyph-name="ohungarumlaut" unicode="&#x151;" horiz-adv-x="634" 
d="M25 256c0 79.333 28 144.333 84 195s125 76 207 76c82.667 0 152.167 -25.167 208.5 -75.5s84.5 -115.5 84.5 -195.5c0 -79.333 -28 -143.833 -84 -193.5s-125.333 -74.5 -208 -74.5s-152 24.833 -208 74.5s-84 114.167 -84 193.5zM200 256
c0 -37.333 11.333 -67.333 34 -90s50.334 -34 83.001 -34s60.334 11.333 83.001 34s34 52.667 34 90c0 38 -11.333 68.667 -34 92s-50.334 35 -83.001 35s-60.334 -11.667 -83.001 -35s-34 -54 -34 -92zM343 565l81 150h163l-118 -150h-126zM135 565l76 150h139l-79 -150
h-136z" />
    <glyph glyph-name="OE" unicode="&#x152;" horiz-adv-x="1013" 
d="M32 359c0 102 37.5 188.167 112.5 258.5s165.5 105.5 271.5 105.5c24.667 0 49.667 -1.33301 75 -4s44.333 -4 57 -4h406v-211h-140v71h-147v-146h204v-139h-204v-150h159v71h140v-211h-418c-12.667 0 -31.667 -1.33301 -57 -4s-50.333 -4 -75 -4
c-106 0 -196.5 35.667 -271.5 107s-112.5 158 -112.5 260zM213 359c0 -62 19.667 -114.666 59 -157.999s87.333 -65 144 -65c13.333 0 26 0.666992 38 2s20.667 2.66602 26 3.99902l8 1v429c-18.667 4.66699 -42.667 7 -72 7c-56.667 0 -104.667 -21.333 -144 -64
s-59 -94.667 -59 -156z" />
    <glyph glyph-name="oe" unicode="&#x153;" horiz-adv-x="967" 
d="M25 256c0 79.333 27.332 144.33 81.999 194.997s122.334 76 203.001 76c45.333 0 83.166 -6.83301 113.499 -20.5s58.833 -33.5 85.5 -59.5h2c23.333 26 49.333 45.833 78 59.5s66 20.5 112 20.5c74 0 132.167 -23.167 174.5 -69.5s63.5 -106.166 63.5 -179.499l-4 -54
h-324c6 -30.667 20.167 -54.5 42.5 -71.5s47.833 -25.5 76.5 -25.5c22 0 44.833 4.33301 68.5 13s41.834 17.334 54.501 26.001l19 13l64 -116c-6 -5.33301 -14.833 -12.166 -26.5 -20.499s-36.667 -19.5 -75 -33.5s-77.833 -21 -118.5 -21
c-48.667 0 -88.167 7.33301 -118.5 22s-57.833 35.667 -82.5 63h-2c-26.667 -27.333 -55.5 -48.333 -86.5 -63s-69.5 -22 -115.5 -22c-81.333 0 -149.333 24.833 -204 74.5s-82 114.167 -82 193.5zM613.999 319.997h150.999c-0.666992 19.333 -7.16699 37 -19.5 53
s-27.833 24 -46.5 24c-45.333 0 -73.666 -25.667 -84.999 -77zM198.998 255.997c0 -37.333 11.333 -67.333 34 -90s50.334 -34 83.001 -34s60.334 11.333 83.001 34s34 52.667 34 90c0 38 -11.333 68.667 -34 92s-50.334 35 -83.001 35s-60.334 -11.667 -83.001 -35
s-34 -54 -34 -92z" />
    <glyph glyph-name="Racute" unicode="&#x154;" horiz-adv-x="740" 
d="M49 0l-0.000976562 129.999h80v455h-80v130h323c63.333 0 111 -4.66699 143 -14c44 -13.333 78.833 -37.333 104.5 -72s38.5 -77.667 38.5 -129c0 -89.333 -38.667 -154.666 -116 -195.999v-2c18.667 -8 33.334 -22.333 44.001 -43l55 -106c8 -15.333 23.333 -23 46 -23
h25v-130h-118c-28.667 -0 -50.167 3.83301 -64.5 11.5s-26.5 21.5 -36.5 41.5l-87 167c-6 12 -13.333 20.167 -22 24.5s-22 6.5 -40 6.5h-36v-121h75v-130h-334zM307.999 390.999h81c60.667 0 91 31 91 93c0 40 -13 66.333 -39 79c-16 8 -39 12 -69 12h-64v-184z
M263.999 760.999l116 150h177l-151 -150h-142z" />
    <glyph glyph-name="racute" unicode="&#x155;" horiz-adv-x="476" 
d="M39 0l0.00195312 125h70v243c0 14.667 -7.33301 22 -22 22h-48v125h163c48.667 0 73 -22 73 -66v-27l-2 -26h2c11.333 36 32.166 66.333 62.499 91s64.166 37 101.499 37l20 -2v-170c-9.33301 2 -21 3 -35 3c-46.667 0 -82 -13.667 -106 -41s-36 -65.333 -36 -114v-75h70
v-125h-313zM181.002 565l116 150h177l-151 -150h-142z" />
    <glyph glyph-name="Rcommaaccent" unicode="&#x156;" horiz-adv-x="740" 
d="M49 0l-0.000976562 129.999h80v455h-80v130h323c63.333 0 111 -4.66699 143 -14c44 -13.333 78.833 -37.333 104.5 -72s38.5 -77.667 38.5 -129c0 -89.333 -38.667 -154.666 -116 -195.999v-2c18.667 -8 33.334 -22.333 44.001 -43l55 -106c8 -15.333 23.333 -23 46 -23
h25v-130h-118c-28.667 -0 -50.167 3.83301 -64.5 11.5s-26.5 21.5 -36.5 41.5l-87 167c-6 12 -13.333 20.167 -22 24.5s-22 6.5 -40 6.5h-36v-121h75v-130h-334zM307.999 390.999h81c60.667 0 91 31 91 93c0 40 -13 66.333 -39 79c-16 8 -39 12 -69 12h-64v-184z
M325.999 -46.001h138.999c5.33301 -18 8 -36.667 8 -56c0 -36 -10.667 -66.667 -32 -92s-49.666 -43.333 -84.999 -54l-61 54c30 22.667 45 50 45 82c0 19.333 -4.66699 41.333 -14 66z" />
    <glyph glyph-name="rcommaaccent" unicode="&#x157;" horiz-adv-x="476" 
d="M39 0l0.00195312 125h70v243c0 14.667 -7.33301 22 -22 22h-48v125h163c48.667 0 73 -22 73 -66v-27l-2 -26h2c11.333 36 32.166 66.333 62.499 91s64.166 37 101.499 37l20 -2v-170c-9.33301 2 -21 3 -35 3c-46.667 0 -82 -13.667 -106 -41s-36 -65.333 -36 -114v-75h70
v-125h-313zM126.002 -46h138.999c5.33301 -18 8 -36.667 8 -56c0 -36 -10.667 -66.667 -32 -92s-49.666 -43.333 -84.999 -54l-61 54c30 22.667 45 50 45 82c0 19.333 -4.66699 41.333 -14 66z" />
    <glyph glyph-name="Rcaron" unicode="&#x158;" horiz-adv-x="740" 
d="M49 0l-0.000976562 129.999h80v455h-80v130h323c63.333 0 111 -4.66699 143 -14c44 -13.333 78.833 -37.333 104.5 -72s38.5 -77.667 38.5 -129c0 -89.333 -38.667 -154.666 -116 -195.999v-2c18.667 -8 33.334 -22.333 44.001 -43l55 -106c8 -15.333 23.333 -23 46 -23
h25v-130h-118c-28.667 -0 -50.167 3.83301 -64.5 11.5s-26.5 21.5 -36.5 41.5l-87 167c-6 12 -13.333 20.167 -22 24.5s-22 6.5 -40 6.5h-36v-121h75v-130h-334zM307.999 390.999h81c60.667 0 91 31 91 93c0 40 -13 66.333 -39 79c-16 8 -39 12 -69 12h-64v-184z
M269.999 760.999l-99 150h135l47 -82h2l47 82h135l-99 -150h-168z" />
    <glyph glyph-name="rcaron" unicode="&#x159;" horiz-adv-x="476" 
d="M39 0l0.00195312 125h70v243c0 14.667 -7.33301 22 -22 22h-48v125h163c48.667 0 73 -22 73 -66v-27l-2 -26h2c11.333 36 32.166 66.333 62.499 91s64.166 37 101.499 37l20 -2v-170c-9.33301 2 -21 3 -35 3c-46.667 0 -82 -13.667 -106 -41s-36 -65.333 -36 -114v-75h70
v-125h-313zM187.002 565l-99 150h135l47 -82h2l47 82h135l-99 -150h-168z" />
    <glyph glyph-name="Sacute" unicode="&#x15a;" horiz-adv-x="618" 
d="M40 254h160.002v-53c0 -18 9.83301 -32.167 29.5 -42.5s44.167 -15.5 73.5 -15.5c28.667 0 51.834 5 69.501 15s26.5 24.333 26.5 43c0 8.66699 -2.33301 16.834 -7 24.501s-10 14.167 -16 19.5s-14.833 10.833 -26.5 16.5s-21.834 10.167 -30.501 13.5l-37 14l-37 14
c-28.667 10.667 -52.5 21.167 -71.5 31.5s-38.333 23.666 -58 39.999s-34.334 36.5 -44.001 60.5s-14.5 51.667 -14.5 83c0 38 7.33301 71 22 99s34.5 49.833 59.5 65.5s52 27 81 34s60.5 10.5 94.5 10.5c42 0 81 -5 117 -15s66 -25.5 90 -46.5s36 -46.167 36 -75.5v-106
h-160v45c0 13.333 -8 23.833 -24 31.5s-35.667 11.5 -59 11.5c-51.333 0 -77 -16.333 -77 -49c0 -12 3 -22.5 9 -31.5s16 -17.333 30 -25s26.333 -13.834 37 -18.501s26.667 -10.667 48 -18c26.667 -9.33301 48.5 -17.5 65.5 -24.5s36.167 -16.833 57.5 -29.5
s38.166 -26 50.499 -40s22.833 -31.667 31.5 -53s13 -45 13 -71c0 -39.333 -7.83301 -73.833 -23.5 -103.5s-37 -53 -64 -70s-56.333 -29.667 -88 -38s-65.167 -12.5 -100.5 -12.5c-71.333 0 -133 15.333 -185 46s-78 73.334 -78 128.001v92zM217.002 761l116 150h177
l-151 -150h-142z" />
    <glyph glyph-name="sacute" unicode="&#x15b;" horiz-adv-x="509" 
d="M27 113l-0.00292969 69h145v-26c0 -24.667 25 -37 75 -37c42 0 63 10 63 30c0 4.66699 -0.666992 8.66699 -2 12s-3.66602 6.5 -6.99902 9.5s-6.66602 5.5 -9.99902 7.5s-8.33301 4.33301 -15 7s-12.667 4.83398 -18 6.50098l-23 7c-10 3 -18.667 5.83301 -26 8.5
c-23.333 8 -42.833 15.5 -58.5 22.5s-32.5 16.833 -50.5 29.5s-31.667 28.5 -41 47.5s-14 40.833 -14 65.5c0 38 12 69.167 36 93.5s51.5 40.666 82.5 48.999s65.167 12.5 102.5 12.5c21.333 0 42.833 -2 64.5 -6s42.667 -10.167 63 -18.5s37 -20 50 -35
s19.5 -32.5 19.5 -52.5v-70h-145v23c0 18.667 -17.333 28 -52 28c-32.667 0 -49 -8.66699 -49 -26c0 -14 7.33301 -24.833 22 -32.5s37.334 -15.5 68.001 -23.5c24.667 -6.66699 45.167 -13.167 61.5 -19.5s34.333 -15.5 54 -27.5s34.5 -27.5 44.5 -46.5
s15 -41.167 15 -66.5c0 -54.667 -22.5 -96 -67.5 -124s-100.833 -42 -167.5 -42c-53.333 0 -103.333 11 -150 33s-70 52.667 -70 92zM166.997 565l116 150h177l-151 -150h-142z" />
    <glyph glyph-name="Scircumflex" unicode="&#x15c;" horiz-adv-x="618" 
d="M40 254h160.002v-53c0 -18 9.83301 -32.167 29.5 -42.5s44.167 -15.5 73.5 -15.5c28.667 0 51.834 5 69.501 15s26.5 24.333 26.5 43c0 8.66699 -2.33301 16.834 -7 24.501s-10 14.167 -16 19.5s-14.833 10.833 -26.5 16.5s-21.834 10.167 -30.501 13.5l-37 14l-37 14
c-28.667 10.667 -52.5 21.167 -71.5 31.5s-38.333 23.666 -58 39.999s-34.334 36.5 -44.001 60.5s-14.5 51.667 -14.5 83c0 38 7.33301 71 22 99s34.5 49.833 59.5 65.5s52 27 81 34s60.5 10.5 94.5 10.5c42 0 81 -5 117 -15s66 -25.5 90 -46.5s36 -46.167 36 -75.5v-106
h-160v45c0 13.333 -8 23.833 -24 31.5s-35.667 11.5 -59 11.5c-51.333 0 -77 -16.333 -77 -49c0 -12 3 -22.5 9 -31.5s16 -17.333 30 -25s26.333 -13.834 37 -18.501s26.667 -10.667 48 -18c26.667 -9.33301 48.5 -17.5 65.5 -24.5s36.167 -16.833 57.5 -29.5
s38.166 -26 50.499 -40s22.833 -31.667 31.5 -53s13 -45 13 -71c0 -39.333 -7.83301 -73.833 -23.5 -103.5s-37 -53 -64 -70s-56.333 -29.667 -88 -38s-65.167 -12.5 -100.5 -12.5c-71.333 0 -133 15.333 -185 46s-78 73.334 -78 128.001v92zM124.002 761l99 150h168
l99 -150h-135l-47 82h-2l-47 -82h-135z" />
    <glyph glyph-name="scircumflex" unicode="&#x15d;" horiz-adv-x="509" 
d="M27 113l-0.00292969 69h145v-26c0 -24.667 25 -37 75 -37c42 0 63 10 63 30c0 4.66699 -0.666992 8.66699 -2 12s-3.66602 6.5 -6.99902 9.5s-6.66602 5.5 -9.99902 7.5s-8.33301 4.33301 -15 7s-12.667 4.83398 -18 6.50098l-23 7c-10 3 -18.667 5.83301 -26 8.5
c-23.333 8 -42.833 15.5 -58.5 22.5s-32.5 16.833 -50.5 29.5s-31.667 28.5 -41 47.5s-14 40.833 -14 65.5c0 38 12 69.167 36 93.5s51.5 40.666 82.5 48.999s65.167 12.5 102.5 12.5c21.333 0 42.833 -2 64.5 -6s42.667 -10.167 63 -18.5s37 -20 50 -35
s19.5 -32.5 19.5 -52.5v-70h-145v23c0 18.667 -17.333 28 -52 28c-32.667 0 -49 -8.66699 -49 -26c0 -14 7.33301 -24.833 22 -32.5s37.334 -15.5 68.001 -23.5c24.667 -6.66699 45.167 -13.167 61.5 -19.5s34.333 -15.5 54 -27.5s34.5 -27.5 44.5 -46.5
s15 -41.167 15 -66.5c0 -54.667 -22.5 -96 -67.5 -124s-100.833 -42 -167.5 -42c-53.333 0 -103.333 11 -150 33s-70 52.667 -70 92zM73.9971 565l99 150h168l99 -150h-135l-47 82h-2l-47 -82h-135z" />
    <glyph glyph-name="Scedilla" unicode="&#x15e;" horiz-adv-x="618" 
d="M232 -104l31.002 94.0029c-63.333 5.33301 -116.333 23 -159 53s-64 69.667 -64 119v92h160v-53c0 -18 9.83301 -32.167 29.5 -42.5s44.167 -15.5 73.5 -15.5c28.667 0 51.834 5 69.501 15s26.5 24.333 26.5 43c0 8.66699 -2.33301 16.834 -7 24.501s-10 14.167 -16 19.5
s-14.833 10.833 -26.5 16.5s-21.834 10.167 -30.501 13.5l-37 14l-37 14c-28.667 10.667 -52.5 21.167 -71.5 31.5s-38.333 23.666 -58 39.999s-34.334 36.5 -44.001 60.5s-14.5 51.667 -14.5 83c0 38 7.33301 71 22 99s34.5 49.833 59.5 65.5s52 27 81 34
s60.5 10.5 94.5 10.5c42 0 81 -5 117 -15s66 -25.5 90 -46.5s36 -46.167 36 -75.5v-106h-160v45c0 13.333 -8 23.833 -24 31.5s-35.667 11.5 -59 11.5c-51.333 0 -77 -16.333 -77 -49c0 -12 3 -22.5 9 -31.5s16 -17.333 30 -25s26.333 -13.834 37 -18.501
s26.667 -10.667 48 -18c26.667 -9.33301 48.5 -17.5 65.5 -24.5s36.167 -16.833 57.5 -29.5s38.166 -26 50.499 -40s22.833 -31.667 31.5 -53s13 -45 13 -71c0 -68.667 -22.333 -121.334 -67 -158.001s-101 -58 -169 -64l-14 -40c27.333 -1.33301 50 -9.5 68 -24.5
s27 -35.5 27 -61.5c0 -32.667 -13.667 -57.167 -41 -73.5s-60 -24.5 -98 -24.5c-10.667 0 -21.667 0.666992 -33 2s-20 2.66602 -26 3.99902l-10 3v75c14 -5.33301 30.333 -8 49 -8c32 0 48 8.66699 48 26c0 18.667 -18.667 28 -56 28h-25z" />
    <glyph glyph-name="scedilla" unicode="&#x15f;" horiz-adv-x="509" 
d="M183 -104l30.9971 94.001c-49.333 4.66699 -92.833 17.5 -130.5 38.5s-56.5 49.167 -56.5 84.5v69h145v-26c0 -24.667 25 -37 75 -37c42 0 63 10 63 30c0 4.66699 -0.666992 8.66699 -2 12s-3.66602 6.5 -6.99902 9.5s-6.66602 5.5 -9.99902 7.5s-8.33301 4.33301 -15 7
s-12.667 4.83398 -18 6.50098l-23 7c-10 3 -18.667 5.83301 -26 8.5c-23.333 8 -42.833 15.5 -58.5 22.5s-32.5 16.833 -50.5 29.5s-31.667 28.5 -41 47.5s-14 40.833 -14 65.5c0 38 12 69.167 36 93.5s51.5 40.666 82.5 48.999s65.167 12.5 102.5 12.5
c21.333 0 42.833 -2 64.5 -6s42.667 -10.167 63 -18.5s37 -20 50 -35s19.5 -32.5 19.5 -52.5v-70h-145v23c0 18.667 -17.333 28 -52 28c-32.667 0 -49 -8.66699 -49 -26c0 -14 7.33301 -24.833 22 -32.5s37.334 -15.5 68.001 -23.5
c24.667 -6.66699 45.167 -13.167 61.5 -19.5s34.333 -15.5 54 -27.5s34.5 -27.5 44.5 -46.5s15 -41.167 15 -66.5c0 -48 -17.5 -85.667 -52.5 -113s-80.167 -44 -135.5 -50l-14 -41c27.333 -1.33301 50 -9.5 68 -24.5s27 -35.5 27 -61.5
c0 -32.667 -13.667 -57.167 -41 -73.5s-60 -24.5 -98 -24.5c-10.667 0 -21.667 0.666992 -33 2s-20.333 2.66602 -27 3.99902l-9 3v75c14 -5.33301 30.333 -8 49 -8c32 0 48 8.66699 48 26c0 18.667 -18.667 28 -56 28h-25z" />
    <glyph glyph-name="Scaron" unicode="&#x160;" horiz-adv-x="618" 
d="M40 254h160.002v-53c0 -18 9.83301 -32.167 29.5 -42.5s44.167 -15.5 73.5 -15.5c28.667 0 51.834 5 69.501 15s26.5 24.333 26.5 43c0 8.66699 -2.33301 16.834 -7 24.501s-10 14.167 -16 19.5s-14.833 10.833 -26.5 16.5s-21.834 10.167 -30.501 13.5l-37 14l-37 14
c-28.667 10.667 -52.5 21.167 -71.5 31.5s-38.333 23.666 -58 39.999s-34.334 36.5 -44.001 60.5s-14.5 51.667 -14.5 83c0 38 7.33301 71 22 99s34.5 49.833 59.5 65.5s52 27 81 34s60.5 10.5 94.5 10.5c42 0 81 -5 117 -15s66 -25.5 90 -46.5s36 -46.167 36 -75.5v-106
h-160v45c0 13.333 -8 23.833 -24 31.5s-35.667 11.5 -59 11.5c-51.333 0 -77 -16.333 -77 -49c0 -12 3 -22.5 9 -31.5s16 -17.333 30 -25s26.333 -13.834 37 -18.501s26.667 -10.667 48 -18c26.667 -9.33301 48.5 -17.5 65.5 -24.5s36.167 -16.833 57.5 -29.5
s38.166 -26 50.499 -40s22.833 -31.667 31.5 -53s13 -45 13 -71c0 -39.333 -7.83301 -73.833 -23.5 -103.5s-37 -53 -64 -70s-56.333 -29.667 -88 -38s-65.167 -12.5 -100.5 -12.5c-71.333 0 -133 15.333 -185 46s-78 73.334 -78 128.001v92zM223.002 761l-99 150h135
l47 -82h2l47 82h135l-99 -150h-168z" />
    <glyph glyph-name="scaron" unicode="&#x161;" horiz-adv-x="509" 
d="M27 113l-0.00292969 69h145v-26c0 -24.667 25 -37 75 -37c42 0 63 10 63 30c0 4.66699 -0.666992 8.66699 -2 12s-3.66602 6.5 -6.99902 9.5s-6.66602 5.5 -9.99902 7.5s-8.33301 4.33301 -15 7s-12.667 4.83398 -18 6.50098l-23 7c-10 3 -18.667 5.83301 -26 8.5
c-23.333 8 -42.833 15.5 -58.5 22.5s-32.5 16.833 -50.5 29.5s-31.667 28.5 -41 47.5s-14 40.833 -14 65.5c0 38 12 69.167 36 93.5s51.5 40.666 82.5 48.999s65.167 12.5 102.5 12.5c21.333 0 42.833 -2 64.5 -6s42.667 -10.167 63 -18.5s37 -20 50 -35
s19.5 -32.5 19.5 -52.5v-70h-145v23c0 18.667 -17.333 28 -52 28c-32.667 0 -49 -8.66699 -49 -26c0 -14 7.33301 -24.833 22 -32.5s37.334 -15.5 68.001 -23.5c24.667 -6.66699 45.167 -13.167 61.5 -19.5s34.333 -15.5 54 -27.5s34.5 -27.5 44.5 -46.5
s15 -41.167 15 -66.5c0 -54.667 -22.5 -96 -67.5 -124s-100.833 -42 -167.5 -42c-53.333 0 -103.333 11 -150 33s-70 52.667 -70 92zM172.997 565l-99 150h135l47 -82h2l47 82h135l-99 -150h-168z" />
    <glyph glyph-name="Tcommaaccent" unicode="&#x162;" horiz-adv-x="695" 
d="M178 0v130.001h80v445h-85v-101h-150v241h649v-241h-150v101h-85v-445h80v-130h-133l-17 -50c27.333 -1.33301 50 -9.5 68 -24.5s27 -35.5 27 -61.5c0 -32.667 -13.667 -57.167 -41 -73.5s-60 -24.5 -98 -24.5c-10.667 0 -21.667 0.666992 -33 2s-20 2.66602 -26 3.99902
l-10 3v75c14 -5.33301 30.333 -8 49 -8c32 0 48 8.66699 48 26c0 18.667 -18.667 28 -56 28h-25l34 104h-126z" />
    <glyph glyph-name="tcommaaccent" unicode="&#x163;" horiz-adv-x="410" 
d="M158 -104l40.001 123.001c-71.333 30.667 -107 87.667 -107 171v200h-70v125h75v139h168v-139h108v-125h-108v-182c0 -47.333 30.667 -71 92 -71l23 1v-140c-12.667 -2 -28.334 -3 -47.001 -3c-20.667 0 -40.667 1.33301 -60 4l-17 -49c27.333 -1.33301 50 -9.5 68 -24.5
s27 -35.5 27 -61.5c0 -32.667 -13.667 -57.167 -41 -73.5s-60 -24.5 -98 -24.5c-10.667 0 -21.667 0.666992 -33 2s-20 2.66602 -26 3.99902l-10 3v75c14 -5.33301 30.333 -8 49 -8c32 0 48 8.66699 48 26c0 18.667 -18.667 28 -56 28h-25z" />
    <glyph glyph-name="Tcaron" unicode="&#x164;" horiz-adv-x="695" 
d="M178 0v130h80v445h-85v-101h-150v241h649v-241h-150v101h-85v-445h80v-130h-339zM263 761l-99 150h135l47 -82h2l47 82h135l-99 -150h-168z" />
    <glyph glyph-name="tcaron" unicode="&#x165;" horiz-adv-x="408" 
d="M89 190l0.00195312 199.999h-70v125h75v139h168v-139h108v-125h-108v-182c0 -47.333 30.667 -71 92 -71l23 1v-140c-12.667 -2 -28.334 -3 -47.001 -3c-16 0 -31.5 0.833008 -46.5 2.5s-32.333 4.83398 -52 9.50098s-37.334 11.667 -53.001 21s-30.5 20.833 -44.5 34.5
s-25 31.5 -33 53.5s-12 46.667 -12 74zM344.002 748.999h138.999c5.33301 -18 8 -36.667 8 -56c0 -36 -10.667 -66.667 -32 -92s-49.666 -43.333 -84.999 -54l-61 54c30 22.667 45 50 45 82c0 19.333 -4.66699 41.333 -14 66z" />
    <glyph glyph-name="Tbar" unicode="&#x166;" horiz-adv-x="695" 
d="M95 279v112h163v184h-85v-101h-150v241h649v-241h-150v101h-85v-184h162v-112h-162v-149h80v-130h-339v130h80v149h-163z" />
    <glyph glyph-name="tbar" unicode="&#x167;" horiz-adv-x="408" 
d="M20 221l0.00195312 111.999h69v67h-70v115h75v139h168v-139h108v-115h-108v-67h102v-112h-102v-13c0 -47.333 30.667 -71 92 -71l23 1v-140c-12.667 -2 -28.334 -3 -47.001 -3c-16 0 -31.5 0.833008 -46.5 2.5s-32.333 4.83398 -52 9.50098s-37.334 11.667 -53.001 21
s-30.5 20.833 -44.5 34.5s-25 31.5 -33 53.5s-12 46.667 -12 74v31h-69z" />
    <glyph glyph-name="Utilde" unicode="&#x168;" 
d="M107 273v312h-80v130h339v-130h-80v-312c0 -32 6 -58.333 18 -79c20 -34 55.667 -51 107 -51c48 0 82.667 16.667 104 50c12.667 20.667 19 47.334 19 80.001v312h-80v130h339v-130h-80v-312c0 -75.333 -19.667 -137.333 -59 -186
c-26.667 -32.667 -61.667 -57.334 -105 -74.001s-89.666 -25 -138.999 -25c-50.667 0 -97.334 8.5 -140.001 25.5s-77 40.5 -103 70.5c-40 46 -60 109 -60 189zM209 761c0 102 42.667 153 128 153c19.333 0 36.666 -5 51.999 -15s29 -20 41 -30s23 -15 33 -15
c24.667 0 37 19 37 57h112c0 -102 -42.667 -153 -128 -153c-19.333 0 -36.666 5 -51.999 15s-29 20 -41 30s-23 15 -33 15c-24.667 0 -37 -19 -37 -57h-112z" />
    <glyph glyph-name="utilde" unicode="&#x169;" horiz-adv-x="694" 
d="M91 181v209.001h-70v125h243v-307c0 -45.333 19 -68 57 -68c32.667 0 58.667 15.833 78 47.5s29 68.167 29 109.5v93h-70v125h243v-368c0 -14.667 7.33301 -22 22 -22h43v-125h-159c-23.333 0 -41 5.16699 -53 15.5s-18 24.5 -18 42.5v14l1 15h-2l-5.5 -10.5
c-2.33301 -4.33301 -8.33301 -12.333 -18 -24s-20.5 -21.834 -32.5 -30.501s-28.667 -16.5 -50 -23.5s-44.333 -10.5 -69 -10.5c-50 0 -90.667 15.167 -122 45.5s-47 79.5 -47 147.5zM129 565.001c0 102 42.667 153 128 153c19.333 0 36.666 -5 51.999 -15s29 -20 41 -30
s23 -15 33 -15c24.667 0 37 19 37 57h112c0 -102 -42.667 -153 -128 -153c-19.333 0 -36.666 5 -51.999 15s-29 20 -41 30s-23 15 -33 15c-24.667 0 -37 -19 -37 -57h-112z" />
    <glyph glyph-name="Umacron" unicode="&#x16a;" 
d="M107 273v312h-80v130h339v-130h-80v-312c0 -32 6 -58.333 18 -79c20 -34 55.667 -51 107 -51c48 0 82.667 16.667 104 50c12.667 20.667 19 47.334 19 80.001v312h-80v130h339v-130h-80v-312c0 -75.333 -19.667 -137.333 -59 -186
c-26.667 -32.667 -61.667 -57.334 -105 -74.001s-89.666 -25 -138.999 -25c-50.667 0 -97.334 8.5 -140.001 25.5s-77 40.5 -103 70.5c-40 46 -60 109 -60 189zM273 782v112h275v-112h-275z" />
    <glyph glyph-name="umacron" unicode="&#x16b;" horiz-adv-x="694" 
d="M91 181v209.001h-70v125h243v-307c0 -45.333 19 -68 57 -68c32.667 0 58.667 15.833 78 47.5s29 68.167 29 109.5v93h-70v125h243v-368c0 -14.667 7.33301 -22 22 -22h43v-125h-159c-23.333 0 -41 5.16699 -53 15.5s-18 24.5 -18 42.5v14l1 15h-2l-5.5 -10.5
c-2.33301 -4.33301 -8.33301 -12.333 -18 -24s-20.5 -21.834 -32.5 -30.501s-28.667 -16.5 -50 -23.5s-44.333 -10.5 -69 -10.5c-50 0 -90.667 15.167 -122 45.5s-47 79.5 -47 147.5zM193 586.001v112h275v-112h-275z" />
    <glyph glyph-name="Ubreve" unicode="&#x16c;" 
d="M107 273v312h-80v130h339v-130h-80v-312c0 -32 6 -58.333 18 -79c20 -34 55.667 -51 107 -51c48 0 82.667 16.667 104 50c12.667 20.667 19 47.334 19 80.001v312h-80v130h339v-130h-80v-312c0 -75.333 -19.667 -137.333 -59 -186
c-26.667 -32.667 -61.667 -57.334 -105 -74.001s-89.666 -25 -138.999 -25c-50.667 0 -97.334 8.5 -140.001 25.5s-77 40.5 -103 70.5c-40 46 -60 109 -60 189zM410 756c-48.667 0 -89.8301 13 -123.497 39s-50.5 61.333 -50.5 106v10h117v-11c0 -18.667 5.66699 -33 17 -43
s24.666 -15 39.999 -15s28.666 5 39.999 15s17 24.333 17 43v11h117v-10c0 -44.667 -16.833 -80 -50.5 -106s-74.834 -39 -123.501 -39z" />
    <glyph glyph-name="ubreve" unicode="&#x16d;" horiz-adv-x="694" 
d="M91 181v209.001h-70v125h243v-307c0 -45.333 19 -68 57 -68c32.667 0 58.667 15.833 78 47.5s29 68.167 29 109.5v93h-70v125h243v-368c0 -14.667 7.33301 -22 22 -22h43v-125h-159c-23.333 0 -41 5.16699 -53 15.5s-18 24.5 -18 42.5v14l1 15h-2l-5.5 -10.5
c-2.33301 -4.33301 -8.33301 -12.333 -18 -24s-20.5 -21.834 -32.5 -30.501s-28.667 -16.5 -50 -23.5s-44.333 -10.5 -69 -10.5c-50 0 -90.667 15.167 -122 45.5s-47 79.5 -47 147.5zM330 560.001c-48.667 0 -89.8301 13 -123.497 39s-50.5 61.333 -50.5 106v10h117v-11
c0 -18.667 5.66699 -33 17 -43s24.666 -15 39.999 -15s28.666 5 39.999 15s17 24.333 17 43v11h117v-10c0 -44.667 -16.833 -80 -50.5 -106s-74.834 -39 -123.501 -39z" />
    <glyph glyph-name="Uring" unicode="&#x16e;" 
d="M107 273v312h-80v130h339v-130h-80v-312c0 -32 6 -58.333 18 -79c20 -34 55.667 -51 107 -51c48 0 82.667 16.667 104 50c12.667 20.667 19 47.334 19 80.001v312h-80v130h339v-130h-80v-312c0 -75.333 -19.667 -137.333 -59 -186
c-26.667 -32.667 -61.667 -57.334 -105 -74.001s-89.666 -25 -138.999 -25c-50.667 0 -97.334 8.5 -140.001 25.5s-77 40.5 -103 70.5c-40 46 -60 109 -60 189zM410 747c-31.333 0 -58.666 7.83301 -81.999 23.5s-35 38.167 -35 67.5c0 30 11.667 53 35 69
s50.666 24 81.999 24s59 -8 83 -24s36 -39 36 -69c0 -29.333 -11.833 -51.833 -35.5 -67.5s-51.5 -23.5 -83.5 -23.5zM410 801c11.333 0 20.5 3.33301 27.5 10s10.5 15.667 10.5 27c0 12 -3.5 21.5 -10.5 28.5s-16.167 10.5 -27.5 10.5
c-10.667 0 -19.334 -3.5 -26.001 -10.5s-10 -16.5 -10 -28.5c0 -11.333 3.33301 -20.333 10 -27s15.334 -10 26.001 -10z" />
    <glyph glyph-name="uring" unicode="&#x16f;" horiz-adv-x="694" 
d="M91 181v209.001h-70v125h243v-307c0 -45.333 19 -68 57 -68c32.667 0 58.667 15.833 78 47.5s29 68.167 29 109.5v93h-70v125h243v-368c0 -14.667 7.33301 -22 22 -22h43v-125h-159c-23.333 0 -41 5.16699 -53 15.5s-18 24.5 -18 42.5v14l1 15h-2l-5.5 -10.5
c-2.33301 -4.33301 -8.33301 -12.333 -18 -24s-20.5 -21.834 -32.5 -30.501s-28.667 -16.5 -50 -23.5s-44.333 -10.5 -69 -10.5c-50 0 -90.667 15.167 -122 45.5s-47 79.5 -47 147.5zM330 551.001c-31.333 0 -58.666 7.83301 -81.999 23.5s-35 38.167 -35 67.5
c0 30 11.667 53 35 69s50.666 24 81.999 24s59 -8 83 -24s36 -39 36 -69c0 -29.333 -11.833 -51.833 -35.5 -67.5s-51.5 -23.5 -83.5 -23.5zM330 605.001c11.333 0 20.5 3.33301 27.5 10s10.5 15.667 10.5 27c0 12 -3.5 21.5 -10.5 28.5s-16.167 10.5 -27.5 10.5
c-10.667 0 -19.334 -3.5 -26.001 -10.5s-10 -16.5 -10 -28.5c0 -11.333 3.33301 -20.333 10 -27s15.334 -10 26.001 -10z" />
    <glyph glyph-name="Uhungarumlaut" unicode="&#x170;" 
d="M107 273v312h-80v130h339v-130h-80v-312c0 -32 6 -58.333 18 -79c20 -34 55.667 -51 107 -51c48 0 82.667 16.667 104 50c12.667 20.667 19 47.334 19 80.001v312h-80v130h339v-130h-80v-312c0 -75.333 -19.667 -137.333 -59 -186
c-26.667 -32.667 -61.667 -57.334 -105 -74.001s-89.666 -25 -138.999 -25c-50.667 0 -97.334 8.5 -140.001 25.5s-77 40.5 -103 70.5c-40 46 -60 109 -60 189zM436 761l81 150h163l-118 -150h-126zM228 761l76 150h139l-79 -150h-136z" />
    <glyph glyph-name="uhungarumlaut" unicode="&#x171;" horiz-adv-x="694" 
d="M91 181v209.001h-70v125h243v-307c0 -45.333 19 -68 57 -68c32.667 0 58.667 15.833 78 47.5s29 68.167 29 109.5v93h-70v125h243v-368c0 -14.667 7.33301 -22 22 -22h43v-125h-159c-23.333 0 -41 5.16699 -53 15.5s-18 24.5 -18 42.5v14l1 15h-2l-5.5 -10.5
c-2.33301 -4.33301 -8.33301 -12.333 -18 -24s-20.5 -21.834 -32.5 -30.501s-28.667 -16.5 -50 -23.5s-44.333 -10.5 -69 -10.5c-50 0 -90.667 15.167 -122 45.5s-47 79.5 -47 147.5zM356 565.001l81 150h163l-118 -150h-126zM148 565.001l76 150h139l-79 -150h-136z" />
    <glyph glyph-name="Uogonek" unicode="&#x172;" horiz-adv-x="821" 
d="M107 263l-0.000976562 322h-80v130h339v-130h-80v-322c0 -38.667 11.167 -68.334 33.5 -89.001s52.5 -31 90.5 -31s68.167 10.333 90.5 31s33.5 50.334 33.5 89.001v322h-80v130h339v-130h-80v-322c0 -56 -14.5 -105.333 -43.5 -148s-68.833 -77 -119.5 -103
c-9.33301 -4.66699 -18.666 -10.667 -27.999 -18s-19.333 -19.166 -30 -35.499s-16 -33.833 -16 -52.5c0 -22.667 19 -35.334 57 -38.001l-28 -110c-47.333 5.33301 -84.333 17.833 -111 37.5s-40 45.5 -40 77.5c0 43.333 18.333 81.666 55 114.999
c-91.333 0.666992 -164.5 26.334 -219.5 77.001s-82.5 116.667 -82.5 198z" />
    <glyph glyph-name="uogonek" unicode="&#x173;" horiz-adv-x="694" 
d="M465 -127c0 49.333 22.334 91.6689 67.001 127.002h-25c-23.333 0 -41 5.16699 -53 15.5s-18 24.5 -18 42.5v14l1 15h-2l-5.5 -10.5c-2.33301 -4.33301 -8.5 -12.333 -18.5 -24s-20.833 -21.834 -32.5 -30.501s-27.834 -16.5 -48.501 -23.5s-43 -10.5 -67 -10.5
c-52 0 -93.667 15.167 -125 45.5s-47 79.5 -47 147.5v209h-70v125h243v-307c0 -45.333 18.667 -68 56 -68c34.667 0 61.334 15.833 80.001 47.5s28 68.167 28 109.5v93h-70v125h243v-368c0 -14.667 7.33301 -22 22 -22h43v-125h-4c-14.667 0 -30.834 -10.833 -48.501 -32.5
s-26.5 -42.167 -26.5 -61.5c0 -22.667 19 -35.334 57 -38.001l-28 -110c-47.333 5.33301 -84.333 17.833 -111 37.5s-40 45.5 -40 77.5z" />
    <glyph glyph-name="Wcircumflex" unicode="&#x174;" horiz-adv-x="1032" 
d="M12 585v129.998h317v-130h-83l66 -317l9 -75h4c2 26.667 6 51.667 12 75l110 447h138l110 -447c2.66699 -10.667 5 -22.167 7 -34.5s3.33301 -22.166 4 -29.499l1 -11h4c1.33301 26.667 4.33301 51.667 9 75l66 317h-83v130h317v-130h-60l-142 -585h-197l-91 366
c-2.66699 10.667 -5 22.5 -7 35.5s-3.33301 23.5 -4 31.5l-1 12h-4c-2 -29.333 -6 -55.666 -12 -78.999l-91 -366h-197l-142 585h-60zM333 760.998l99 150h168l99 -150h-135l-47 82h-2l-47 -82h-135z" />
    <glyph glyph-name="wcircumflex" unicode="&#x175;" horiz-adv-x="872" 
d="M10 390l-0.000976562 125.001h274v-125h-51l38 -179l8 -68h4c0.666992 25.333 3.33398 48 8.00098 68l71 304h148l71 -304c2 -8.66699 3.66699 -18.667 5 -30s2 -20.333 2 -27l1 -11h4c1.33301 25.333 4 48 8 68l38 179h-51v125h274v-125h-59l-98 -390h-200l-58 238
c-2.66699 9.33301 -4.66699 19.666 -6 30.999s-2.33301 20.333 -3 27v10h-4c-0.666992 -24 -3.66699 -46.667 -9 -68l-58 -238h-200l-98 390h-59zM252.999 565.001l99 150h168l99 -150h-135l-47 82h-2l-47 -82h-135z" />
    <glyph glyph-name="Ycircumflex" unicode="&#x176;" horiz-adv-x="671" 
d="M166 0l0.000976562 130h80v163l-175 292h-61v130h296v-130h-60l73 -132l16 -35h2c3.33301 10 8.66602 21.667 15.999 35l73 132h-60v130h295v-130h-61l-175 -292v-163h80v-130h-339zM155.001 761l99 150h168l99 -150h-135l-47 82h-2l-47 -82h-135z" />
    <glyph glyph-name="ycircumflex" unicode="&#x177;" horiz-adv-x="627" 
d="M65 -47c20 -16 48.333 -24.001 85 -24.001c44.667 0 73 14 85 42l2 5l-170 414h-58v125h283v-125h-50l63 -191c2.66699 -9.33301 5 -19.5 7 -30.5s3.33301 -19.833 4 -26.5l1 -10h4c3.33301 24 8.66602 46.333 15.999 67l61 191h-47v125h267v-125h-53l-166 -435
c-42 -110 -122 -165 -240 -165c-26.667 0 -52.167 3.33301 -76.5 10s-42.166 13.334 -53.499 20.001l-17 10zM134 564.999l99 150h168l99 -150h-135l-47 82h-2l-47 -82h-135z" />
    <glyph glyph-name="Ydieresis" unicode="&#x178;" horiz-adv-x="671" 
d="M166 0l0.000976562 130h80v163l-175 292h-61v130h296v-130h-60l73 -132l16 -35h2c3.33301 10 8.66602 21.667 15.999 35l73 132h-60v130h295v-130h-61l-175 -292v-163h80v-130h-339zM395.001 771v140h131v-140h-131zM151.001 771v140h131v-140h-131z" />
    <glyph glyph-name="Zacute" unicode="&#x179;" horiz-adv-x="660" 
d="M49 0v110l305 432c4 6 8.66699 11.833 14 17.5s9.66602 9.83398 12.999 12.501l5 4v2c-15.333 -2 -29.666 -3 -42.999 -3h-140v-101h-150v241h549v-108l-306 -434c-4 -6 -8.66699 -11.833 -14 -17.5s-9.66602 -9.83398 -12.999 -12.501l-5 -4v-2
c15.333 2 29.666 3 42.999 3h157v105h150v-245h-565zM247 761l116 150h177l-151 -150h-142z" />
    <glyph glyph-name="zacute" unicode="&#x17a;" horiz-adv-x="552" 
d="M41 106l226 255.001c4.66699 5.33301 9.66699 10.333 15 15s9.33301 8 12 10l5 4v2c-17.333 -1.33301 -32.666 -2 -45.999 -2h-67v-62h-145v187h460v-107l-222 -254c-4.66699 -5.33301 -9.66699 -10.333 -15 -15s-9.33301 -8.33398 -12 -11.001l-5 -3v-2
c17.333 1.33301 32.666 2 45.999 2h78v62h145v-187h-475v106zM183 565.001l116 150h177l-151 -150h-142z" />
    <glyph glyph-name="Zdotaccent" unicode="&#x17b;" horiz-adv-x="660" 
d="M49 0v110l305 432c4 6 8.66699 11.833 14 17.5s9.66602 9.83398 12.999 12.501l5 4v2c-15.333 -2 -29.666 -3 -42.999 -3h-140v-101h-150v241h549v-108l-306 -434c-4 -6 -8.66699 -11.833 -14 -17.5s-9.66602 -9.83398 -12.999 -12.501l-5 -4v-2
c15.333 2 29.666 3 42.999 3h157v105h150v-245h-565zM266 779v132h143v-132h-143z" />
    <glyph glyph-name="zdotaccent" unicode="&#x17c;" horiz-adv-x="552" 
d="M41 106l226 255.001c4.66699 5.33301 9.66699 10.333 15 15s9.33301 8 12 10l5 4v2c-17.333 -1.33301 -32.666 -2 -45.999 -2h-67v-62h-145v187h460v-107l-222 -254c-4.66699 -5.33301 -9.66699 -10.333 -15 -15s-9.33301 -8.33398 -12 -11.001l-5 -3v-2
c17.333 1.33301 32.666 2 45.999 2h78v62h145v-187h-475v106zM202 583.001v132h143v-132h-143z" />
    <glyph glyph-name="Zcaron" unicode="&#x17d;" horiz-adv-x="660" 
d="M49 0v110l305 432c4 6 8.66699 11.833 14 17.5s9.66602 9.83398 12.999 12.501l5 4v2c-15.333 -2 -29.666 -3 -42.999 -3h-140v-101h-150v241h549v-108l-306 -434c-4 -6 -8.66699 -11.833 -14 -17.5s-9.66602 -9.83398 -12.999 -12.501l-5 -4v-2
c15.333 2 29.666 3 42.999 3h157v105h150v-245h-565zM253 761l-99 150h135l47 -82h2l47 82h135l-99 -150h-168z" />
    <glyph glyph-name="zcaron" unicode="&#x17e;" horiz-adv-x="552" 
d="M41 106l226 255.001c4.66699 5.33301 9.66699 10.333 15 15s9.33301 8 12 10l5 4v2c-17.333 -1.33301 -32.666 -2 -45.999 -2h-67v-62h-145v187h460v-107l-222 -254c-4.66699 -5.33301 -9.66699 -10.333 -15 -15s-9.33301 -8.33398 -12 -11.001l-5 -3v-2
c17.333 1.33301 32.666 2 45.999 2h78v62h145v-187h-475v106zM189 565.001l-99 150h135l47 -82h2l47 82h135l-99 -150h-168z" />
    <glyph glyph-name="longs" unicode="&#x17f;" horiz-adv-x="380" 
d="M42 0l-0.000976562 125.001h65v265h-70v125h70v21c0 32 5.66699 60.167 17 84.5s25.333 43.166 42 56.499s36.334 24 59.001 32s43.167 13.167 61.5 15.5s37.5 3.5 57.5 3.5l61 -4v-140c-8.66699 2 -22.667 3 -42 3c-55.333 0 -83 -15.667 -83 -47v-415h76v-125h-314z
" />
    <glyph glyph-name="florin" unicode="&#x192;" horiz-adv-x="546" 
d="M-5 28c36 -4.66699 59.335 -7 70.002 -7c57.333 0 88 21.333 92 64l19 225h-62v135h74l9 90c3.33301 32 11.666 60.167 24.999 84.5s28.666 43.166 45.999 56.499s37.5 24 60.5 32s43.833 13.167 62.5 15.5s38 3.5 58 3.5l88 -8v-146c-40 4.66699 -65.333 7 -76 7
c-58 0 -89 -21.333 -93 -64l-7 -71h95v-135h-107l-21 -244c-2.66699 -32 -10.667 -60.167 -24 -84.5s-28.833 -43.166 -46.5 -56.499s-38 -24 -61 -32s-43.833 -13.167 -62.5 -15.5s-37.667 -3.5 -57 -3.5l-82 8v146z" />
    <glyph glyph-name="Scommaaccent" unicode="&#x218;" horiz-adv-x="618" 
d="M40 254h160.002v-53c0 -18 9.83301 -32.167 29.5 -42.5s44.167 -15.5 73.5 -15.5c28.667 0 51.834 5 69.501 15s26.5 24.333 26.5 43c0 8.66699 -2.33301 16.834 -7 24.501s-10 14.167 -16 19.5s-14.833 10.833 -26.5 16.5s-21.834 10.167 -30.501 13.5l-37 14l-37 14
c-28.667 10.667 -52.5 21.167 -71.5 31.5s-38.333 23.666 -58 39.999s-34.334 36.5 -44.001 60.5s-14.5 51.667 -14.5 83c0 38 7.33301 71 22 99s34.5 49.833 59.5 65.5s52 27 81 34s60.5 10.5 94.5 10.5c42 0 81 -5 117 -15s66 -25.5 90 -46.5s36 -46.167 36 -75.5v-106
h-160v45c0 13.333 -8 23.833 -24 31.5s-35.667 11.5 -59 11.5c-51.333 0 -77 -16.333 -77 -49c0 -12 3 -22.5 9 -31.5s16 -17.333 30 -25s26.333 -13.834 37 -18.501s26.667 -10.667 48 -18c26.667 -9.33301 48.5 -17.5 65.5 -24.5s36.167 -16.833 57.5 -29.5
s38.166 -26 50.499 -40s22.833 -31.667 31.5 -53s13 -45 13 -71c0 -39.333 -7.83301 -73.833 -23.5 -103.5s-37 -53 -64 -70s-56.333 -29.667 -88 -38s-65.167 -12.5 -100.5 -12.5c-71.333 0 -133 15.333 -185 46s-78 73.334 -78 128.001v92zM240.002 -46h138.999
c5.33301 -18 8 -36.667 8 -56c0 -36 -10.667 -66.667 -32 -92s-49.666 -43.333 -84.999 -54l-61 54c30 22.667 45 50 45 82c0 19.333 -4.66699 41.333 -14 66z" />
    <glyph glyph-name="scommaaccent" unicode="&#x219;" horiz-adv-x="509" 
d="M27 113l-0.00292969 69h145v-26c0 -24.667 25 -37 75 -37c42 0 63 10 63 30c0 4.66699 -0.666992 8.66699 -2 12s-3.66602 6.5 -6.99902 9.5s-6.66602 5.5 -9.99902 7.5s-8.33301 4.33301 -15 7s-12.667 4.83398 -18 6.50098l-23 7c-10 3 -18.667 5.83301 -26 8.5
c-23.333 8 -42.833 15.5 -58.5 22.5s-32.5 16.833 -50.5 29.5s-31.667 28.5 -41 47.5s-14 40.833 -14 65.5c0 38 12 69.167 36 93.5s51.5 40.666 82.5 48.999s65.167 12.5 102.5 12.5c21.333 0 42.833 -2 64.5 -6s42.667 -10.167 63 -18.5s37 -20 50 -35
s19.5 -32.5 19.5 -52.5v-70h-145v23c0 18.667 -17.333 28 -52 28c-32.667 0 -49 -8.66699 -49 -26c0 -14 7.33301 -24.833 22 -32.5s37.334 -15.5 68.001 -23.5c24.667 -6.66699 45.167 -13.167 61.5 -19.5s34.333 -15.5 54 -27.5s34.5 -27.5 44.5 -46.5
s15 -41.167 15 -66.5c0 -54.667 -22.5 -96 -67.5 -124s-100.833 -42 -167.5 -42c-53.333 0 -103.333 11 -150 33s-70 52.667 -70 92zM190.997 -46h138.999c5.33301 -18 8 -36.667 8 -56c0 -36 -10.667 -66.667 -32 -92s-49.666 -43.333 -84.999 -54l-61 54
c30 22.667 45 50 45 82c0 19.333 -4.66699 41.333 -14 66z" />
    <glyph glyph-name="uni021A" unicode="&#x21a;" horiz-adv-x="695" 
d="M178 0v130h80v445h-85v-101h-150v241h649v-241h-150v101h-85v-445h80v-130h-339zM278 -46h138.999c5.33301 -18 8 -36.667 8 -56c0 -36 -10.667 -66.667 -32 -92s-49.666 -43.333 -84.999 -54l-61 54c30 22.667 45 50 45 82c0 19.333 -4.66699 41.333 -14 66z" />
    <glyph glyph-name="uni021B" unicode="&#x21b;" horiz-adv-x="408" 
d="M89 190l0.00195312 199.999h-70v125h75v139h168v-139h108v-125h-108v-182c0 -47.333 30.667 -71 92 -71l23 1v-140c-12.667 -2 -28.334 -3 -47.001 -3c-16 0 -31.5 0.833008 -46.5 2.5s-32.333 4.83398 -52 9.50098s-37.334 11.667 -53.001 21s-30.5 20.833 -44.5 34.5
s-25 31.5 -33 53.5s-12 46.667 -12 74zM164.002 -46.001h138.999c5.33301 -18 8 -36.667 8 -56c0 -36 -10.667 -66.667 -32 -92s-49.666 -43.333 -84.999 -54l-61 54c30 22.667 45 50 45 82c0 19.333 -4.66699 41.333 -14 66z" />
    <glyph glyph-name="circumflex" unicode="&#x2c6;" horiz-adv-x="486" 
d="M60 761l99 150h168l99 -150h-135l-47 82h-2l-47 -82h-135z" />
    <glyph glyph-name="caron" unicode="&#x2c7;" horiz-adv-x="486" 
d="M159 761l-99 150h135l47 -82h2l47 82h135l-99 -150h-168z" />
    <glyph glyph-name="breve" unicode="&#x2d8;" horiz-adv-x="484" 
d="M242 756c-48.667 0 -89.8301 13 -123.497 39s-50.5 61.333 -50.5 106v10h117v-11c0 -18.667 5.66699 -33 17 -43s24.666 -15 39.999 -15s28.666 5 39.999 15s17 24.333 17 43v11h117v-10c0 -44.667 -16.833 -80 -50.5 -106s-74.834 -39 -123.501 -39z" />
    <glyph glyph-name="dotaccent" unicode="&#x2d9;" horiz-adv-x="485" 
d="M171 779v132h143v-132h-143z" />
    <glyph glyph-name="ring" unicode="&#x2da;" horiz-adv-x="485" 
d="M242 747c-31.333 0 -58.666 7.83301 -81.999 23.5s-35 38.167 -35 67.5c0 30 11.667 53 35 69s50.666 24 81.999 24s59 -8 83 -24s36 -39 36 -69c0 -29.333 -11.833 -51.833 -35.5 -67.5s-51.5 -23.5 -83.5 -23.5zM242 801c11.333 0 20.5 3.33301 27.5 10
s10.5 15.667 10.5 27c0 12 -3.5 21.5 -10.5 28.5s-16.167 10.5 -27.5 10.5c-10.667 0 -19.334 -3.5 -26.001 -10.5s-10 -16.5 -10 -28.5c0 -11.333 3.33301 -20.333 10 -27s15.334 -10 26.001 -10z" />
    <glyph glyph-name="ogonek" unicode="&#x2db;" horiz-adv-x="486" 
d="M132 -127c0 29.333 9.16699 57.501 27.5 84.501s43.5 48.833 75.5 65.5h96v-23c-14.667 0 -31.167 -10.833 -49.5 -32.5s-27.5 -42.167 -27.5 -61.5c0 -22.667 19 -35.334 57 -38.001l-28 -110c-47.333 5.33301 -84.333 17.833 -111 37.5s-40 45.5 -40 77.5z" />
    <glyph glyph-name="tilde" unicode="&#x2dc;" horiz-adv-x="485" 
d="M41 761c0 102 42.667 153 128 153c19.333 0 36.666 -5 51.999 -15s29 -20 41 -30s23 -15 33 -15c24.667 0 37 19 37 57h112c0 -102 -42.667 -153 -128 -153c-19.333 0 -36.666 5 -51.999 15s-29 20 -41 30s-23 15 -33 15c-24.667 0 -37 -19 -37 -57h-112z" />
    <glyph glyph-name="hungarumlaut" unicode="&#x2dd;" horiz-adv-x="485" 
d="M225 761l81 150h163l-118 -150h-126zM17 761l76 150h139l-79 -150h-136z" />
    <glyph glyph-name="uni1E9E" unicode="&#x1e9e;" horiz-adv-x="763" 
d="M31 0l-0.000976562 129.997h81v330c0 76.667 23.833 138.334 71.5 185.001s110.834 70 189.501 70h306v-120l-93 -141l-25 -32v-2c53.333 -14.667 94.666 -41.167 123.999 -79.5s44 -79.166 44 -122.499c0 -60 -22.833 -113 -68.5 -159s-112.5 -69 -200.5 -69
c-32.667 0 -66 3.33301 -100 10v150c26.667 -5.33301 52 -8 76 -8c42.667 0 72.167 7.83301 88.5 23.5s24.5 33.167 24.5 52.5c0 48 -53 74.667 -159 80v106l76 128c4 6 8.33301 11.833 13 17.5s8.33398 9.83398 11.001 12.501l4 4v2c-12.667 -2 -25.667 -3 -39 -3h-81
c-24.667 0 -44.667 -9.5 -60 -28.5s-23 -43.167 -23 -72.5v-464h-260z" />
    <glyph glyph-name="thinspace" unicode="&#x2009;" horiz-adv-x="232" 
 />
    <glyph glyph-name="endash" unicode="&#x2013;" horiz-adv-x="738" 
d="M71 222v130h596v-130h-596z" />
    <glyph glyph-name="emdash" unicode="&#x2014;" horiz-adv-x="938" 
d="M71 222v130h796v-130h-796z" />
    <glyph glyph-name="quoteleft" unicode="&#x2018;" horiz-adv-x="261" 
d="M31 475l89 255h117l-54 -255h-152z" />
    <glyph glyph-name="quoteright" unicode="&#x2019;" horiz-adv-x="252" 
d="M36 475l54 255h152l-89 -255h-117z" />
    <glyph glyph-name="quotesinglbase" unicode="&#x201a;" horiz-adv-x="268" 
d="M22 -89l54 255h147l-89 -255h-112z" />
    <glyph glyph-name="quotedblleft" unicode="&#x201c;" horiz-adv-x="460" 
d="M229 475l89 255h118l-54 -255h-153zM31 475l89 255h118l-54 -255h-153z" />
    <glyph glyph-name="quotedblright" unicode="&#x201d;" horiz-adv-x="451" 
d="M234 475l54 255h153l-89 -255h-118zM36 475l54 255h153l-89 -255h-118z" />
    <glyph glyph-name="quotedblbase" unicode="&#x201e;" horiz-adv-x="460" 
d="M214 -89l54 255h147l-89 -255h-112zM22 -89l54 255h147l-89 -255h-112z" />
    <glyph glyph-name="dagger" unicode="&#x2020;" horiz-adv-x="492" 
d="M163 -50v435h-130v130h130v200h165v-200h131v-130h-131v-435h-165z" />
    <glyph glyph-name="daggerdbl" unicode="&#x2021;" horiz-adv-x="502" 
d="M38 150v130h130v105h-130v130h130v200h165v-200h131v-130h-131v-105h131v-130h-131v-200h-165v200h-130z" />
    <glyph glyph-name="bullet" unicode="&#x2022;" horiz-adv-x="460" 
d="M230 105c-51.333 0 -95.166 18.167 -131.499 54.5s-54.5 80.166 -54.5 131.499s18.167 95.166 54.5 131.499s80.166 54.5 131.499 54.5s95.166 -18.167 131.499 -54.5s54.5 -80.166 54.5 -131.499s-18.167 -95.166 -54.5 -131.499s-80.166 -54.5 -131.499 -54.5z" />
    <glyph glyph-name="ellipsis" unicode="&#x2026;" horiz-adv-x="926" 
d="M708 0v164h158v-164h-158zM384 0v164h158v-164h-158zM60 0v164h158v-164h-158z" />
    <glyph glyph-name="perthousand" unicode="&#x2030;" horiz-adv-x="1257" 
d="M220 382c-50.667 0 -93.5 16.667 -128.5 50s-52.5 74 -52.5 122c0 47.333 17.667 88 53 122s78 51 128 51s92.667 -17 128 -51s53 -74.667 53 -122c0 -48 -17.667 -88.667 -53 -122s-78 -50 -128 -50zM79 0l552 715h152l-552 -715h-152zM220 502
c15.333 0 28.333 5.16699 39 15.5s16 22.833 16 37.5c0 14 -5.5 26.167 -16.5 36.5s-23.833 15.5 -38.5 15.5s-27.5 -5.16699 -38.5 -15.5s-16.5 -22.5 -16.5 -36.5c0 -14.667 5.33301 -27.167 16 -37.5s23.667 -15.5 39 -15.5zM868 160c0 47.333 17.667 88 53 122
s78 51 128 51s92.667 -17 128 -51s53 -74.667 53 -122c0 -48 -17.667 -88.667 -53 -122s-78 -50 -128 -50c-50.667 0 -93.5 16.667 -128.5 50s-52.5 74 -52.5 122zM466 160c0 47.333 17.667 88 53 122s78 51 128 51s92.667 -17 128 -51s53 -74.667 53 -122
c0 -48 -17.667 -88.667 -53 -122s-78 -50 -128 -50c-50.667 0 -93.5 16.667 -128.5 50s-52.5 74 -52.5 122zM994 161c0 -14.667 5.33301 -27.167 16 -37.5s23.667 -15.5 39 -15.5s28.333 5.16699 39 15.5s16 22.833 16 37.5c0 14 -5.5 26.167 -16.5 36.5
s-23.833 15.5 -38.5 15.5s-27.5 -5.16699 -38.5 -15.5s-16.5 -22.5 -16.5 -36.5zM592 161c0 -14.667 5.33301 -27.167 16 -37.5s23.667 -15.5 39 -15.5s28.333 5.16699 39 15.5s16 22.833 16 37.5c0 14 -5.5 26.167 -16.5 36.5s-23.833 15.5 -38.5 15.5
s-27.5 -5.16699 -38.5 -15.5s-16.5 -22.5 -16.5 -36.5z" />
    <glyph glyph-name="guilsinglleft" unicode="&#x2039;" horiz-adv-x="392" 
d="M193 77l-164 205l164 206h158l-164 -206l164 -205h-158z" />
    <glyph glyph-name="guilsinglright" unicode="&#x203a;" horiz-adv-x="392" 
d="M41 77l164 205l-164 206h158l164 -206l-164 -205h-158z" />
    <glyph glyph-name="fraction" unicode="&#x2044;" horiz-adv-x="195" 
d="M-129 0l336 715h119l-336 -715h-119z" />
    <glyph glyph-name="zerosuperior" unicode="&#x2070;" horiz-adv-x="406" 
d="M203 413c-113.333 0 -170 77 -170 231c0 153.333 56.667 230 170 230s170 -76.667 170 -230c0 -154 -56.667 -231 -170 -231zM203 528c28.667 0 43 38.667 43 116c0 76 -14.333 114 -43 114s-43 -38 -43 -114c0 -77.333 14.333 -116 43 -116z" />
    <glyph glyph-name="foursuperior" unicode="&#x2074;" horiz-adv-x="418" 
d="M214 423v92h-197v79l171 270h150v-257h53v-92h-53v-92h-124zM126 607h88v105l5 50h-4c-5.33301 -18 -12 -33.333 -20 -46l-69 -107v-2z" />
    <glyph glyph-name="fivesuperior" unicode="&#x2075;" horiz-adv-x="392" 
d="M184 413c-29.333 0 -57.668 4.83105 -85.001 14.498s-47 19.167 -59 28.5l-19 15l60 87c28.667 -23.333 59 -35 91 -35c17.333 0 32 4.5 44 13.5s18 20.833 18 35.5c0 31.333 -22 47 -66 47c-10 0 -20 -1.16699 -30 -3.5s-17.333 -4.5 -22 -6.5l-8 -3l-65 24l20 234h278
v-141h-97v47h-79l-2 -53l-2 -18l2 -1c11.333 4 25 6 41 6c47.333 0 85.333 -12.667 114 -38s43 -57.666 43 -96.999c0 -41.333 -15.667 -77.666 -47 -108.999s-74.666 -47 -129.999 -47z" />
    <glyph glyph-name="sixsuperior" unicode="&#x2076;" horiz-adv-x="397" 
d="M212 413c-50 0 -93.001 17.999 -129.001 53.999s-54 87.667 -54 155c0 66 19.167 124.5 57.5 175.5s90.166 76.5 155.499 76.5c18.667 0 36.834 -2 54.501 -6s30.834 -8 39.501 -12l12 -6l-32 -108c-24.667 10.667 -46.667 16 -66 16c-38.667 0 -64 -17.333 -76 -52h2
c12 4 24.333 6 37 6c49.333 0 87.833 -14 115.5 -42s41.5 -62.667 41.5 -104s-14.333 -77.166 -43 -107.499s-67 -45.5 -115 -45.5zM211.999 527.999c10 0 18 3.83105 24 11.498s9 16.834 9 27.501c0 15.333 -4.5 28.833 -13.5 40.5s-22.5 17.5 -40.5 17.5
c-22.667 0 -34 -6.33301 -34 -19c0 -23.333 5.5 -42.166 16.5 -56.499s23.833 -21.5 38.5 -21.5z" />
    <glyph glyph-name="sevensuperior" unicode="&#x2077;" horiz-adv-x="380" 
d="M44 423l171.999 323l17 24v4c-11.333 -2.66699 -21.666 -4 -30.999 -4h-77v-47h-97v141h337v-85l-190 -356h-131z" />
    <glyph glyph-name="eightsuperior" unicode="&#x2078;" horiz-adv-x="406" 
d="M204 413c-47.333 0 -88.333 12.168 -123 36.501s-52 58.5 -52 102.5c0 37.333 21.333 72.666 64 105.999c-28.667 24 -43 53.333 -43 88c0 40.667 15.167 72.167 45.5 94.5s66.833 33.5 109.5 33.5c42 0 79 -11.5 111 -34.5s48 -54.5 48 -94.5
c0 -30.667 -16.333 -64 -49 -100c39.333 -25.333 59 -58.333 59 -99c0 -41.333 -16.833 -73.833 -50.5 -97.5s-73.5 -35.5 -119.5 -35.5zM231 684.001c11.333 18 17 35.667 17 53c0 9.33301 -4.5 16.833 -13.5 22.5s-18.833 8.5 -29.5 8.5c-23.333 0 -35 -9.33301 -35 -28
c0 -12 5.16699 -22.167 15.5 -30.5s25.5 -16.833 45.5 -25.5zM203 519.001c12 0 22.498 2.99805 31.498 8.99805s13.5 14.333 13.5 25c0 6 -1.66699 11.667 -5 17s-9.66602 10.833 -18.999 16.5s-16.666 9.83398 -21.999 12.501s-15.333 7.33398 -30 14.001
c-14.667 -17.333 -22 -35 -22 -53c0 -12.667 5.16699 -22.667 15.5 -30s22.833 -11 37.5 -11z" />
    <glyph glyph-name="ninesuperior" unicode="&#x2079;" horiz-adv-x="397" 
d="M154 413c-18 0 -35.833 2.00195 -53.5 6.00195s-30.5 8 -38.5 12l-13 6l32 108c24 -10.667 46.667 -16 68 -16c38 0 62.667 17.333 74 52h-2c-11.333 -4 -24.666 -6 -39.999 -6c-46.667 0 -84 14.167 -112 42.5s-42 62.833 -42 103.5
c0 41.333 14.167 77.166 42.5 107.499s66.166 45.5 113.499 45.5c50.667 0 94.167 -17.833 130.5 -53.5s54.5 -86.5 54.5 -152.5c0 -68.667 -19.167 -128.334 -57.5 -179.001s-90.5 -76 -156.5 -76zM210 662.002c20 0 30 9.33496 30 28.002
c0 17.333 -5.66699 33.166 -17 47.499s-24.333 21.5 -39 21.5c-10 0 -17.833 -3.83301 -23.5 -11.5s-8.5 -17.167 -8.5 -28.5c0 -14.667 4.66699 -27.834 14 -39.501s24 -17.5 44 -17.5z" />
    <glyph glyph-name="zeroinferior" unicode="&#x2080;" horiz-adv-x="406" 
d="M203 -167c-113.333 0 -170 77 -170 231c0 153.333 56.667 230 170 230s170 -76.667 170 -230c0 -154 -56.667 -231 -170 -231zM203 -52c28.667 0 43 38.667 43 116c0 76 -14.333 114 -43 114s-43 -38 -43 -114c0 -77.333 14.333 -116 43 -116z" />
    <glyph glyph-name="oneinferior" unicode="&#x2081;" horiz-adv-x="378" 
d="M37 -157v98h99v153l4 30h-4c-3.33301 -6 -8 -11.667 -14 -17l-31 -27l-72 79l135 125h108v-343h100v-98h-325z" />
    <glyph glyph-name="twoinferior" unicode="&#x2082;" horiz-adv-x="400" 
d="M27 -106c0 31.333 7 59.3291 21 83.9961s31 44.334 51 59.001s40 27.667 60 39s37 22.666 51 33.999s21 23 21 35c0 10.667 -4.33301 19 -13 25s-18.667 9 -30 9c-12.667 0 -25 -3.83301 -37 -11.5s-21 -15.167 -27 -22.5l-9 -11l-83 71c1.33301 2.66699 3.5 6 6.5 10
s9.66699 11 20 21s21.5 19 33.5 27s27.833 15.167 47.5 21.5s40.167 9.5 61.5 9.5c44.667 0 82 -12 112 -36s45 -57 45 -99c0 -22 -4.66699 -42.333 -14 -61s-21.166 -33.667 -35.499 -45s-30 -22.166 -47 -32.499s-32.833 -19.166 -47.5 -26.499
s-27.334 -15.666 -38.001 -24.999s-17 -18.666 -19 -27.999h110v43h97v-141h-331c-4 22 -6 39 -6 51z" />
    <glyph glyph-name="threeinferior" unicode="&#x2083;" horiz-adv-x="393" 
d="M36 143l-0.000976562 141.002h311v-79l-88 -101c68 -14.667 102 -53.334 102 -116.001c0 -41.333 -15.333 -77.5 -46 -108.5s-73 -46.5 -127 -46.5c-32 0 -61.333 5.66699 -88 17s-45.334 22.666 -56.001 33.999l-16 17l61 85
c2.66699 -3.33301 6.33398 -7.33301 11.001 -12s15 -11 31 -19s32.333 -12 49 -12s29.834 4 39.501 12s14.5 18 14.5 30c0 24 -20.667 36 -62 36h-31l-24 57l72 89l24 23v4c-12 -2.66699 -23.333 -4 -34 -4h-46v-47h-97z" />
    <glyph glyph-name="fourinferior" unicode="&#x2084;" horiz-adv-x="418" 
d="M214 -157v92h-197v79l171 270h150v-257h53v-92h-53v-92h-124zM126 27h88v105l5 50h-4c-5.33301 -18 -12 -33.333 -20 -46l-69 -107v-2z" />
    <glyph glyph-name="fiveinferior" unicode="&#x2085;" horiz-adv-x="392" 
d="M184 -167c-29.333 0 -57.501 4.83105 -84.501 14.498s-46.833 19.167 -59.5 28.5l-19 15l60 87c28.667 -23.333 59 -35 91 -35c17.333 0 32 4.5 44 13.5s18 20.833 18 35.5c0 31.333 -22 47 -66 47c-10 0 -20 -1.16699 -30 -3.5s-17.333 -4.5 -22 -6.5l-8 -3l-65 24
l20 234h278v-141h-97v47h-79l-2 -53l-2 -18l2 -1c11.333 4 25 6 41 6c47.333 0 85.333 -12.667 114 -38s43 -57.666 43 -96.999c0 -41.333 -15.667 -77.666 -47 -108.999s-74.666 -47 -129.999 -47z" />
    <glyph glyph-name="sixinferior" unicode="&#x2086;" horiz-adv-x="397" 
d="M212 -167c-50 0 -93.001 17.999 -129.001 53.999s-54 87.667 -54 155c0 66 19.167 124.5 57.5 175.5s90.166 76.5 155.499 76.5c18.667 0 36.834 -2 54.501 -6s30.834 -8 39.501 -12l12 -6l-32 -108c-24.667 10.667 -46.667 16 -66 16c-38.667 0 -64 -17.333 -76 -52h2
c12 4 24.333 6 37 6c49.333 0 87.833 -14 115.5 -42s41.5 -62.667 41.5 -104s-14.333 -77.166 -43 -107.499s-67 -45.5 -115 -45.5zM211.999 -52.001c10 0 18 3.83105 24 11.498s9 16.834 9 27.501c0 15.333 -4.5 28.833 -13.5 40.5s-22.5 17.5 -40.5 17.5
c-22.667 0 -34 -6.33301 -34 -19c0 -23.333 5.5 -42.166 16.5 -56.499s23.833 -21.5 38.5 -21.5z" />
    <glyph glyph-name="seveninferior" unicode="&#x2087;" horiz-adv-x="380" 
d="M44 -157l171.999 323l17 24v4c-11.333 -2.66699 -21.666 -4 -30.999 -4h-77v-47h-97v141h337v-85l-190 -356h-131z" />
    <glyph glyph-name="eightinferior" unicode="&#x2088;" horiz-adv-x="405" 
d="M204 -167c-47.333 0 -88.333 12.168 -123 36.501s-52 58.5 -52 102.5c0 37.333 21.333 72.666 64 105.999c-28.667 24 -43 53.333 -43 88c0 40.667 15.167 72.167 45.5 94.5s66.833 33.5 109.5 33.5c42 0 79 -11.5 111 -34.5s48 -54.5 48 -94.5
c0 -30.667 -16.333 -64 -49 -100c39.333 -25.333 59 -58.333 59 -99c0 -41.333 -16.833 -73.833 -50.5 -97.5s-73.5 -35.5 -119.5 -35.5zM231 104.001c11.333 18 17 35.667 17 53c0 9.33301 -4.5 16.833 -13.5 22.5s-18.833 8.5 -29.5 8.5c-23.333 0 -35 -9.33301 -35 -28
c0 -12 5.16699 -22.167 15.5 -30.5s25.5 -16.833 45.5 -25.5zM203 -60.999c12 0 22.498 2.99805 31.498 8.99805s13.5 14.333 13.5 25c0 6 -1.66699 11.667 -5 17s-9.66602 10.833 -18.999 16.5s-16.666 9.83398 -21.999 12.501s-15.333 7.33398 -30 14.001
c-14.667 -17.333 -22 -35 -22 -53c0 -12.667 5.16699 -22.667 15.5 -30s22.833 -11 37.5 -11z" />
    <glyph glyph-name="nineinferior" unicode="&#x2089;" horiz-adv-x="397" 
d="M154 -167c-18 0 -35.833 2.00195 -53.5 6.00195s-30.5 8 -38.5 12l-13 6l32 108c24 -10.667 46.667 -16 68 -16c38 0 62.667 17.333 74 52h-2c-11.333 -4 -24.666 -6 -39.999 -6c-46.667 0 -84 14.167 -112 42.5s-42 62.833 -42 103.5
c0 41.333 14.167 77.166 42.5 107.499s66.166 45.5 113.499 45.5c50.667 0 94.167 -17.833 130.5 -53.5s54.5 -86.5 54.5 -152.5c0 -68.667 -19.167 -128.334 -57.5 -179.001s-90.5 -76 -156.5 -76zM210 82.002c20 0 30 9.33496 30 28.002
c0 17.333 -5.66699 33.166 -17 47.499s-24.333 21.5 -39 21.5c-10 0 -17.833 -3.83301 -23.5 -11.5s-8.5 -17.167 -8.5 -28.5c0 -14.667 4.66699 -27.834 14 -39.501s24 -17.5 44 -17.5z" />
    <glyph glyph-name="Euro" unicode="&#x20ac;" horiz-adv-x="610" 
d="M35 232l0.000976562 91.001h56c-2 25.333 -2.33301 48 -1 68h-55v91h72c23.333 72 66.333 130.833 129 176.5s134.667 68.5 216 68.5c18 0 36.667 -1.16699 56 -3.5s34.333 -4.83301 45 -7.5l16 -3l-41 -148c-27.333 6.66699 -54.333 10 -81 10
c-68 0 -118.667 -31 -152 -93h215l-20 -91h-218c-2 -20.667 -1.33301 -43.334 2 -68.001h202l-20 -91h-150c16.667 -27.333 38 -49 64 -65s54.333 -24 85 -24c14.667 0 30.167 1.16699 46.5 3.5s28.833 4.83301 37.5 7.5l13 4l28 -150
c-36.667 -13.333 -79.334 -20 -128.001 -20c-84 0 -156.167 22.333 -216.5 67s-102.5 103.667 -126.5 177h-74z" />
    <glyph glyph-name="trademark" unicode="&#x2122;" horiz-adv-x="979" 
d="M448 268l35 447h118l73 -175l13 -44h2c4.66699 19.333 9 34 13 44l73 175h118l33 -447h-127l-10 174l1 32h-2l-51 -125h-98l-51 125h-2l1 -32l-12 -174h-127zM163 268v338h-142v109h408v-109h-140v-338h-126z" />
    <glyph glyph-name="minus" unicode="&#x2212;" horiz-adv-x="630" 
d="M42 222v130h546v-130h-546z" />
    <glyph glyph-name="infinity" unicode="&#x221e;" horiz-adv-x="503" 
d="M252 143c-56.667 0 -105.167 20.167 -145.5 60.5s-60.5 88.833 -60.5 145.5s20.167 105 60.5 145s88.833 60 145.5 60c57.333 0 105.833 -20 145.5 -60s59.5 -88.333 59.5 -145s-20 -105.167 -60 -145.5s-88.333 -60.5 -145 -60.5z" />
    <glyph glyph-name="approxequal" unicode="&#x2248;" horiz-adv-x="630" 
d="M113 322l-63 99c54 54 109 81 165 81c33.333 0 69.166 -11.667 107.499 -35s68.5 -35 90.5 -35c36.667 0 70.667 18 102 54l63 -99c-54 -54 -109 -81 -165 -81c-33.333 0 -69.166 11.667 -107.499 35s-68.5 35 -90.5 35c-34.667 0 -68.667 -18 -102 -54zM113 93l-63 99
c54 54 109 81 165 81c33.333 0 69.166 -11.667 107.499 -35s68.5 -35 90.5 -35c36.667 0 70.667 18 102 54l63 -99c-54 -54 -109 -81 -165 -81c-33.333 0 -69.166 11.667 -107.499 35s-68.5 35 -90.5 35c-34.667 0 -68.667 -18 -102 -54z" />
    <glyph glyph-name="notequal" unicode="&#x2260;" horiz-adv-x="630" 
d="M112 47l38 60h-88v130h171l64 100h-235v130h319l69 108l76 -49l-38 -59h80v-130h-163l-64 -100h227v-130h-310l-68 -107z" />
    <glyph glyph-name="lessequal" unicode="&#x2264;" horiz-adv-x="630" 
d="M53 234v107l504 223v-145l-330 -131v-2l330 -130v-145zM56 -70h501v-130h-501v130z" />
    <glyph glyph-name="greaterequal" unicode="&#x2265;" horiz-adv-x="630" 
d="M73 11v145l330 130v2l-330 131v145l504 -223v-107zM74 -70h501v-130h-501v130z" />
    <glyph glyph-name=".null" horiz-adv-x="0" 
 />
    <glyph glyph-name="nonmarkingreturn" horiz-adv-x="333" 
 />
    <glyph glyph-name="commaaccent" horiz-adv-x="335" 
d="M107 -46h138.999c5.33301 -18 8 -36.667 8 -56c0 -36 -10.667 -66.667 -32 -92s-49.666 -43.333 -84.999 -54l-61 54c30 22.667 45 50 45 82c0 19.333 -4.66699 41.333 -14 66z" />
    <glyph glyph-name="apple" horiz-adv-x="1130" 
d="M168 -5v152l-126 72v278l126 71v151l265 142l134 -71l132 71l265 -142v-151l124 -71v-278l-124 -72v-152l-265 -141l-132 71l-134 -71zM208 30l238 -126l121 66l118 -66l238 126v139l114 64v249l-114 66v136l-238 126l-118 -64l-121 64l-238 -126v-136l-114 -66v-249
l114 -64v-139zM242 64v121l-99 60v225l99 58v123l215 114l110 -59l107 59l214 -114v-123l100 -58v-225l-100 -60v-121l-214 -114l-107 58l-110 -58zM426 91l129 0.000976562v171h176v108h-176v128h85c6.66699 0 11 -1.5 13 -4.5s3 -8.5 3 -16.5v-21h115v102
c0 17.333 -3.33301 29.666 -10 36.999s-19 11 -37 11h-346v-108h48v-407z" />
    <glyph glyph-name="zero.tnum" horiz-adv-x="600" 
d="M300 -12c-49.333 0 -91.833 9.5 -127.5 28.5s-63.5 45.833 -83.5 80.5s-34.667 73.667 -44 117s-14 91.666 -14 144.999s4.66699 101.5 14 144.5s24 81.667 44 116s47.833 60.833 83.5 79.5s78.167 28 127.5 28s91.833 -9.33301 127.5 -28s63.5 -45.167 83.5 -79.5
s34.667 -73 44 -116s14 -91.167 14 -144.5s-4.66699 -101.666 -14 -144.999s-24 -82.333 -44 -117s-47.833 -61.5 -83.5 -80.5s-78.167 -28.5 -127.5 -28.5zM300 143c59.333 0 89 72 89 216c0 142 -29.667 213 -89 213s-89 -71 -89 -213c0 -144 29.667 -216 89 -216z" />
    <glyph glyph-name="one.tnum" horiz-adv-x="600" 
d="M78 0v140h152v308l1 55h-2c-6 -13.333 -15.333 -26 -28 -38l-43 -39l-101 108l193 181h151v-575h153v-140h-476z" />
    <glyph glyph-name="two.tnum" horiz-adv-x="600" 
d="M41 0c-5.33301 30 -7.99805 55.667 -7.99805 77c0 41.333 8 79.5 24 114.5s35.833 63.5 59.5 85.5s49.334 43.333 77.001 64s53.334 38.334 77.001 53.001s43.5 31 59.5 49s24 36.333 24 55c0 26.667 -7.33301 45.667 -22 57s-33 17 -55 17
c-12.667 0 -25.334 -2.83301 -38.001 -8.5s-23.334 -12.5 -32.001 -20.5s-16.667 -16 -24 -24s-12.666 -15 -15.999 -21l-5 -8l-121 83l8.5 16.5c3.66699 7 12.667 19.333 27 37s30.166 33.334 47.499 47.001s41.166 26 71.499 37s62.833 16.5 97.5 16.5
c65.333 0 122.666 -18.833 171.999 -56.5s74 -91.834 74 -162.501c0 -38.667 -10.5 -74.334 -31.5 -107.001s-46.833 -60 -77.5 -82s-61.167 -42.333 -91.5 -61s-56.5 -38 -78.5 -58s-33.333 -40 -34 -60h180v85h150v-225h-515z" />
    <glyph glyph-name="three.tnum" horiz-adv-x="600" 
d="M57 500l0.00195312 215.002h472v-124l-134 -164c48 -11.333 86.167 -34.5 114.5 -69.5s42.5 -76.833 42.5 -125.5c0 -66.667 -23.333 -124 -70 -172s-113.334 -72 -200.001 -72c-30 0 -58.833 3.16699 -86.5 9.5s-50.667 14.166 -69 23.499s-34.5 18.666 -48.5 27.999
s-24 17 -30 23l-10 10l81 125l21 -17.5c8.66699 -7 26.167 -16.5 52.5 -28.5s51.833 -18 76.5 -18c31.333 0 56.166 7.66699 74.499 23s27.5 34.666 27.5 57.999c0 24.667 -9.83301 44.334 -29.5 59.001s-47.5 22 -83.5 22c-7.33301 0 -19 -0.666992 -35 -2l-37 80l125 159
l34 34v2c-16.667 -2 -31.667 -3 -45 -3h-93v-75h-150z" />
    <glyph glyph-name="four.tnum" horiz-adv-x="600" 
d="M4 173v106l276 436h214v-407h85v-135h-85v-173h-173v173h-317zM293 489l-115 -179v-2h143v173l7 74h-4c-8 -24 -18.333 -46 -31 -66z" />
    <glyph glyph-name="five.tnum" horiz-adv-x="600" 
d="M35 79l76.998 128c5.33301 -4.66699 12.5 -10.5 21.5 -17.5s27 -16.5 54 -28.5s53.167 -18 78.5 -18c31.333 0 57.5 8.16699 78.5 24.5s31.5 38.5 31.5 66.5c0 26 -10 47.167 -30 63.5s-49.333 24.5 -88 24.5c-19.333 0 -37.666 -2.16699 -54.999 -6.5
s-29.666 -8.83301 -36.999 -13.5l-11 -6l-93 35l29 384h419v-215h-150v75h-117l-6 -93l-4 -28h2c13.333 4.66699 34.666 7 63.999 7c80.667 0 143.667 -21.333 189 -64s68 -96.667 68 -162c0 -71.333 -25.667 -130.333 -77 -177s-118.333 -70 -201 -70
c-46 0 -89.167 7.66699 -129.5 23s-69.166 30.333 -86.499 45z" />
    <glyph glyph-name="six.tnum" horiz-adv-x="600" 
d="M321 -12c-80.667 0 -148.998 28.999 -204.998 86.999s-84 140.333 -84 247c0 53.333 7.5 104 22.5 152s36.667 91 65 129s65.166 68.167 110.499 90.5s95.666 33.5 150.999 33.5c27.333 0 53.666 -2.5 78.999 -7.5s44 -10.167 56 -15.5l18 -8l-46 -145
c-31.333 14 -64.666 21 -99.999 21c-40 0 -73 -11.167 -99 -33.5s-45 -52.166 -57 -89.499h2c25.333 16.667 61.333 25 108 25c70 0 126.833 -24.5 170.5 -73.5s65.5 -105.167 65.5 -168.5c0 -64.667 -23.833 -121.5 -71.5 -170.5s-109.5 -73.5 -185.5 -73.5z
M212.002 269.999c0 -31.333 10.833 -60.334 32.5 -87.001s47.167 -40 76.5 -40c22.667 0 41.167 8.33301 55.5 25s21.5 38.334 21.5 65.001c0 28 -9.66699 51.667 -29 71s-50 29 -92 29c-43.333 0 -65 -21 -65 -63z" />
    <glyph glyph-name="seven.tnum" horiz-adv-x="600" 
d="M87 0l266.999 532c4.66699 8.66699 9.33398 16.667 14.001 24l10 16l4 4v2c-14.667 -2 -32 -3 -52 -3h-130v-75h-150v215h519v-122l-300 -593h-182z" />
    <glyph glyph-name="eight.tnum" horiz-adv-x="600" 
d="M32 204c0 65.333 34.334 124.668 103.001 178.001c-50 38.667 -75 85.667 -75 141s20.5 103.166 61.5 143.499s99.833 60.5 176.5 60.5c71.333 0 130.5 -18 177.5 -54s70.5 -84.333 70.5 -145c0 -58 -24.667 -114.333 -74 -169c62 -39.333 93 -91 93 -155
c0 -58 -23.5 -108.5 -70.5 -151.5s-112.167 -64.5 -195.5 -64.5c-82.667 0 -147.834 21.5 -195.501 64.5s-71.5 93.5 -71.5 151.5zM231.001 519.002c0 -22.667 9.33203 -40.668 27.999 -54.001s49.334 -28.666 92.001 -45.999c17.333 27.333 26 56 26 86
c0 48 -25.667 72 -77 72c-46 0 -69 -19.333 -69 -58zM207 224.001c0 -25.333 8.66699 -46 26 -62s40 -24 68 -24c24.667 0 45 6.5 61 19.5s24 30.5 24 52.5c0 19.333 -8.5 35 -25.5 47s-48.167 27.667 -93.5 47l-19 8c-27.333 -28.667 -41 -58 -41 -88z" />
    <glyph glyph-name="nine.tnum" horiz-adv-x="600" 
d="M22 483c0 64.667 23.833 121.502 71.5 170.502s109.5 73.5 185.5 73.5c80.667 0 149 -29 205 -87s84 -140.333 84 -247c0 -52.667 -7.5 -102.834 -22.5 -150.501s-36.5 -90.667 -64.5 -129s-64.667 -68.833 -110 -91.5s-96.333 -34 -153 -34c-27.333 0 -54 2.66699 -80 8
s-45 10.666 -57 15.999l-18 7l46 145c32 -14 66 -21 102 -21c79.333 0 132 42 158 126h-2c-24 -16.667 -60.333 -25 -109 -25c-70 0 -126.833 24.167 -170.5 72.5s-65.5 103.833 -65.5 166.5zM202 483.002c0 -27.333 9.33301 -50.5 28 -69.5s48 -28.5 88 -28.5
c46.667 0 70 22 70 66c0 32.667 -11.5 61 -34.5 85s-48.167 36 -75.5 36c-21.333 0 -39.333 -8.66699 -54 -26s-22 -38.333 -22 -63z" />
    <glyph glyph-name="hyphen.case" horiz-adv-x="446" 
d="M66 272v150h314v-150h-314z" />
    <glyph glyph-name="parenleft.case" horiz-adv-x="352" 
d="M177 -65c-82.667 130.667 -124 278 -124 442c0 141.333 41.333 275.666 124 402.999h142c-75.333 -126 -113 -260.333 -113 -403c0 -151.333 37.667 -298.666 113 -441.999h-142z" />
    <glyph glyph-name="parenright.case" horiz-adv-x="352" 
d="M33 -65c75.333 143.333 113 290.666 113 441.999c0 142.667 -37.667 277 -113 403h142c82.667 -127.333 124 -261.666 124 -402.999c0 -164 -41.333 -311.333 -124 -442h-142z" />
    <glyph glyph-name="bracketleft.case" horiz-adv-x="360" 
d="M82 -65v845h246v-120h-102v-605h102v-120h-246z" />
    <glyph glyph-name="bracketright.case" horiz-adv-x="360" 
d="M32 55h102v605h-102v120h246v-845h-246v120z" />
    <glyph glyph-name="braceleft.case" horiz-adv-x="383" 
d="M110 92l-0.00292969 98.001c0 18 -3 33.5 -9 46.5s-13 22.5 -21 28.5s-16.167 10.833 -24.5 14.5s-15.5 5.83398 -21.5 6.50098h-9v150c2 0 5 0.166992 9 0.5s10.833 2.33301 20.5 6s18.334 8.5 26.001 14.5s14.5 15.833 20.5 29.5s9 29.834 9 48.501v88
c0 33.333 6.83301 61.666 20.5 84.999s31.667 40.166 54 50.499s43.333 17.333 63 21s40.167 5.5 61.5 5.5l43 -2v-124c-7.33301 1.33301 -15.666 2 -24.999 2c-48.667 0 -73 -18 -73 -54v-117c0 -19.333 -2.83301 -36.833 -8.5 -52.5s-12.667 -27.834 -21 -36.501
s-16.666 -16.167 -24.999 -22.5s-15.5 -10.5 -21.5 -12.5l-8 -3v-2l9 -3c4 -1.33301 10.833 -5.16602 20.5 -11.499s18.167 -13.666 25.5 -21.999s14 -20.5 20 -36.5s9 -33.667 9 -53v-127c0 -36 24.333 -54 73 -54l25 2v-124c-12 -1.33301 -26.333 -2 -43 -2
c-21.333 0 -41.833 1.83301 -61.5 5.5s-40.667 10.667 -63 21s-40.333 27.166 -54 50.499s-20.5 51.666 -20.5 84.999z" />
    <glyph glyph-name="braceright.case" horiz-adv-x="382" 
d="M31 56c7.33301 -1.33301 15.6699 -2.00781 25.0029 -2.00781c48.667 0 73 18 73 54v127c0 19.333 2.83301 37 8.5 53s12.667 28.333 21 37s16.666 15.834 24.999 21.501s15.166 9.5 20.499 11.5l9 3v2c-2 0.666992 -5 1.83398 -9 3.50098s-10.833 5.66699 -20.5 12
s-18.167 13.833 -25.5 22.5s-14 20.834 -20 36.501s-9 33.167 -9 52.5v117c0 36 -24.333 54 -73 54l-25 -2v124c12 1.33301 26.333 2 43 2c21.333 0 41.833 -1.83301 61.5 -5.5s40.667 -10.667 63 -21s40.333 -27.166 54 -50.499s20.5 -51.666 20.5 -84.999v-88
c0 -29.333 7.16699 -52.166 21.5 -68.499s28.5 -25.5 42.5 -27.5l21 -3v-150c-2 0 -5 -0.166992 -9 -0.5s-10.833 -2.33301 -20.5 -6s-18.334 -8.5 -26.001 -14.5s-14.5 -15.5 -20.5 -28.5s-9 -28.5 -9 -46.5v-98c0 -33.333 -6.83301 -61.666 -20.5 -84.999
s-31.667 -40.166 -54 -50.499s-43.333 -17.333 -63 -21s-40.167 -5.5 -61.5 -5.5l-43 2v124z" />
    <glyph glyph-name="at.case" horiz-adv-x="810" 
d="M25 355c0 106 37.5 195.166 112.5 267.499s168.5 108.5 280.5 108.5c104 0 179.667 -22.167 227 -66.5s71 -102.166 71 -173.499v-198h74v-119h-283c-70.667 0 -126.167 18 -166.5 54s-60.5 78.667 -60.5 128c0 48 19.833 89.333 59.5 124s95.5 52 167.5 52h49
c0 20 -13.833 35.667 -41.5 47s-58.834 17 -93.501 17c-63.333 0 -117 -24.5 -161 -73.5s-66 -104.833 -66 -167.5c0 -67.333 22.333 -124 67 -170s106.334 -69 185.001 -69v-130c-128 0 -230.167 35 -306.5 105s-114.5 158 -114.5 264zM451 359.999
c0 -19.333 5.66797 -35.333 17.001 -48s27.666 -19 48.999 -19h39v134h-37c-22 0 -38.833 -6.33301 -50.5 -19s-17.5 -28.667 -17.5 -48z" />
    <glyph glyph-name="guillemotleft.case" horiz-adv-x="653" 
d="M453 137l-164 205l164 206h158l-164 -206l164 -205h-158zM193 137l-164 205l164 206h158l-164 -206l164 -205h-158z" />
    <glyph glyph-name="guillemotright.case" horiz-adv-x="653" 
d="M302 137l164 205l-164 206h158l164 -206l-164 -205h-158zM42 137l164 205l-164 206h158l164 -206l-164 -205h-158z" />
    <glyph glyph-name="guilsinglleft.case" horiz-adv-x="393" 
d="M193 137l-164 205l164 206h158l-164 -206l164 -205h-158z" />
    <glyph glyph-name="guilsinglright.case" horiz-adv-x="393" 
d="M42 137l164 205l-164 206h158l164 -206l-164 -205h-158z" />
    <glyph glyph-name="endash.case" horiz-adv-x="730" 
d="M67 282v130h596v-130h-596z" />
    <glyph glyph-name="emdash.case" horiz-adv-x="930" 
d="M67 282v130h796v-130h-796z" />
    <glyph glyph-name="periodcentered.case" horiz-adv-x="292" 
d="M67 263v164h158v-164h-158z" />
    <glyph glyph-name="questiondown.case" horiz-adv-x="462" 
d="M191 565v150h158v-150h-158zM16 184c0 30 5.83301 57.498 17.5 82.498s26 45.333 43 61s33.833 30.334 50.5 44.001s30.834 28 42.501 43s17.5 30.5 17.5 46.5v33h166v-47c0 -24.667 -5.33301 -47.5 -16 -68.5s-23.834 -38.333 -39.501 -52l-46.5 -39
c-15.333 -12.333 -28.333 -25.5 -39 -39.5s-16 -28.667 -16 -44c0 -16.667 7 -30.667 21 -42s30.667 -17 50 -17c14 0 29 3.5 45 10.5s28.333 14.167 37 21.5l13 11l96 -117l-9 -9c-4 -4 -12.667 -10.667 -26 -20s-27.5 -17.666 -42.5 -24.999s-34.333 -14 -58 -20
s-48.167 -9 -73.5 -9c-61.333 0 -115.5 17.5 -162.5 52.5s-70.5 82.833 -70.5 143.5z" />
    <glyph glyph-name="exclamdown.case" horiz-adv-x="334" 
d="M88 565v150h158v-150h-158zM77 0l16 494h148l16 -494h-180z" />
    <glyph glyph-name="bullet.case" horiz-adv-x="460" 
d="M230 170c-51.333 0 -95.166 18.167 -131.499 54.5s-54.5 80.166 -54.5 131.499s18.167 95.166 54.5 131.499s80.166 54.5 131.499 54.5s95.166 -18.167 131.499 -54.5s54.5 -80.166 54.5 -131.499s-18.167 -95.166 -54.5 -131.499s-80.166 -54.5 -131.499 -54.5z" />
    <glyph glyph-name="zero.p_osf" horiz-adv-x="597" 
d="M43 278c0 37.333 4.83203 72.665 14.499 105.998s24.334 64 44.001 92s46.5 50.167 80.5 66.5s73 24.5 117 24.5c58 0 106.833 -14.5 146.5 -43.5s67.667 -64.667 84 -107s24.5 -89.166 24.5 -140.499c0 -81.333 -21.167 -149.666 -63.5 -204.999
s-106.166 -83 -191.499 -83c-44 0 -83 8.16699 -117 24.5s-60.833 38.5 -80.5 66.5s-34.334 58.667 -44.001 92s-14.5 69 -14.5 107zM216.999 277.999c0 -97.333 27.333 -146 82 -146s82 48 82 144c0 98 -27.333 147 -82 147s-82 -48.333 -82 -145z" />
    <glyph glyph-name="one.p_osf" horiz-adv-x="513" 
d="M52 0v135h143v172l1 74h-2c-10 -12 -22.667 -22.667 -38 -32l-55 -31l-79 118l193 119h147v-420h134v-135h-444z" />
    <glyph glyph-name="two.p_osf" horiz-adv-x="571" 
d="M57 0l0.000976562 115.003c179.333 107.333 269 189.666 269 246.999c0 21.333 -6.66699 36.833 -20 46.5s-28.666 14.5 -45.999 14.5c-20.667 0 -42.334 -5.83301 -65.001 -17.5s-40.334 -23.167 -53.001 -34.5l-19 -17l-85 106c2.66699 2.66699 6.16699 6.5 10.5 11.5
s14.5 13.667 30.5 26s32.833 23.166 50.5 32.499s40.5 17.833 68.5 25.5s56.667 11.5 86 11.5c57.333 0 107.833 -15.333 151.5 -46s65.5 -75.667 65.5 -135c0 -94.667 -70.667 -179.334 -212 -254.001v-2c15.333 3.33301 38 5 68 5h170v-135h-470z" />
    <glyph glyph-name="three.p_osf" horiz-adv-x="544" 
d="M22 -40l76 117c4.66699 -4.66699 11.167 -10.334 19.5 -17.001s24.833 -15.667 49.5 -27s48.667 -17 72 -17c30 0 53.5 7.33301 70.5 22s25.5 33 25.5 55c0 23.333 -9.66699 41.833 -29 55.5s-47 20.5 -83 20.5l-33 -2l-34 75l117 155l34 34v2
c-16.667 -2 -31.667 -3 -45 -3h-82v-70h-140v195h443v-112l-124 -160c43.333 -10 79.166 -31.667 107.499 -65s42.5 -72.333 42.5 -117c0 -62.667 -22.167 -116.5 -66.5 -161.5s-108.166 -67.5 -191.499 -67.5c-28 0 -55 3 -81 9s-47.5 13.333 -64.5 22
s-32.167 17.334 -45.5 26.001s-23 16 -29 22z" />
    <glyph glyph-name="four.p_osf" horiz-adv-x="612" 
d="M17 28v101l257 426h223v-397h85v-130h-85v-144h-169v144h-311zM187 158h141v180l7 74h-4c-8.66699 -24 -19 -46 -31 -66z" />
    <glyph glyph-name="five.p_osf" horiz-adv-x="545" 
d="M20 -42l72.999 122.002c4.66699 -4.66699 11.334 -10.5 20.001 -17.5s25.5 -16.5 50.5 -28.5s49.167 -18 72.5 -18c28 0 52.5 7.66699 73.5 23s31.5 36.666 31.5 63.999s-10.333 48.333 -31 63s-47 22 -79 22c-16 0 -32.167 -1.83301 -48.5 -5.5
s-28.5 -7.16699 -36.5 -10.5l-13 -6l-88 33l29 356h396v-195h-145v70h-104l-4 -85l-4 -32h2c13.333 4.66699 33.333 7 60 7c74 0 132.5 -20.333 175.5 -61s64.5 -92 64.5 -154c0 -66.667 -25 -122.167 -75 -166.5s-113 -66.5 -189 -66.5c-27.333 0 -54 3 -80 9
s-47.667 13.167 -65 21.5s-32.833 16.666 -46.5 24.999s-23.5 15.5 -29.5 21.5z" />
    <glyph glyph-name="six.p_osf" horiz-adv-x="596" 
d="M37 305c0 47.333 7.16699 92.999 21.5 136.999s34.833 84.167 61.5 120.5s61.667 65.5 105 87.5s91.666 33 144.999 33c30.667 0 59.334 -2.5 86.001 -7.5s46 -9.83301 58 -14.5l17 -7l-47 -135c-31.333 13.333 -65 20 -101 20c-38 0 -70 -11.167 -96 -33.5
s-45 -50.166 -57 -83.499h2c8.66699 5.33301 23.667 10.5 45 15.5s40.333 7.5 57 7.5c71.333 0 127.833 -22.5 169.5 -67.5s62.5 -98.5 62.5 -160.5c0 -60.667 -22 -114 -66 -160s-102.667 -69 -176 -69c-80.667 0 -148.667 26.833 -204 80.5s-83 132.5 -83 236.5z
M213 271.999c0 -38.667 10.668 -71.667 32.001 -99s47.666 -41 78.999 -41c21.333 0 38.333 7.5 51 22.5s19 34.833 19 59.5c0 26.667 -8.83301 49.667 -26.5 69s-44.167 29 -79.5 29c-50 0 -75 -13.333 -75 -40z" />
    <glyph glyph-name="seven.p_osf" horiz-adv-x="544" 
d="M61 -116l257.998 503c4.66699 8.66699 9.33398 16.667 14.001 24s8.33398 12.333 11.001 15l3 5v2c-14.667 -2 -32 -3 -52 -3h-123v-70h-145v195h502v-115l-287 -556h-181z" />
    <glyph glyph-name="eight.p_osf" horiz-adv-x="597" 
d="M35 197c0 52.667 34.667 106.668 104 162.001c-48 33.333 -72 76.333 -72 129c0 53.333 20 99 60 137s98.333 57 175 57c68 0 124.833 -17.333 170.5 -52s68.5 -82.334 68.5 -143.001c0 -8.66699 -1 -17.667 -3 -27s-4.33301 -18.166 -7 -26.499
s-6.16699 -16.833 -10.5 -25.5s-8.33301 -16.167 -12 -22.5s-7.83398 -12.833 -12.501 -19.5s-8.5 -11.834 -11.5 -15.501s-5.83301 -7.5 -8.5 -11.5l-5 -6c58.667 -34 88 -80.667 88 -140c0 -55.333 -23.167 -103.333 -69.5 -144s-110.833 -61 -193.5 -61
c-81.333 0 -145.166 20.5 -191.499 61.5s-69.5 90.167 -69.5 147.5zM232 485.001c0 -20 9.66797 -36.833 29.001 -50.5s48.666 -27.834 87.999 -42.501c18 30.667 27 58.334 27 83.001c0 19.333 -6.83301 34.833 -20.5 46.5s-32.167 17.5 -55.5 17.5
c-22.667 0 -39.667 -5 -51 -15s-17 -23 -17 -39zM206.001 211.001c0 -22 8.66797 -40.833 26.001 -56.5s38.666 -23.5 63.999 -23.5c28 0 49.833 6.16699 65.5 18.5s23.5 29.5 23.5 51.5c0 16 -8.83301 29.667 -26.5 41s-46.5 25.333 -86.5 42l-21 9
c-30 -28 -45 -55.333 -45 -82z" />
    <glyph glyph-name="nine.p_osf" horiz-adv-x="597" 
d="M110 36c31.333 -13.333 65 -19.999 101 -19.999c38 0 70 11.167 96 33.5s45 50.166 57 83.499h-2c-8.66699 -5.33301 -23.667 -10.5 -45 -15.5s-40.333 -7.5 -57 -7.5c-71.333 0 -127.833 22.5 -169.5 67.5s-62.5 98.5 -62.5 160.5c0 60.667 22 114 66 160
s102.667 69 176 69c80.667 0 148.667 -26.833 204 -80.5s83 -132.5 83 -236.5c0 -47.333 -7.16699 -93 -21.5 -137s-34.833 -84.167 -61.5 -120.5s-61.667 -65.5 -105 -87.5s-91.666 -33 -144.999 -33c-30.667 0 -59.334 2.33301 -86.001 7s-46 9.66699 -58 15l-17 7z
M306 243.001c50 0 74.999 13.333 74.999 40c0 38.667 -10.667 71.667 -32 99s-47.666 41 -78.999 41c-21.333 0 -38.333 -7.5 -51 -22.5s-19 -34.833 -19 -59.5c0 -26.667 8.83301 -49.667 26.5 -69s44.167 -29 79.5 -29z" />
    <glyph glyph-name="zero.t_osf" horiz-adv-x="600" 
d="M44 278c0 37.333 4.83203 72.665 14.499 105.998s24.334 64 44.001 92s46.5 50.167 80.5 66.5s73 24.5 117 24.5c58 0 106.833 -14.5 146.5 -43.5s67.667 -64.667 84 -107s24.5 -89.166 24.5 -140.499c0 -81.333 -21.167 -149.666 -63.5 -204.999
s-106.166 -83 -191.499 -83c-44 0 -83 8.16699 -117 24.5s-60.833 38.5 -80.5 66.5s-34.334 58.667 -44.001 92s-14.5 69 -14.5 107zM217.999 277.999c0 -97.333 27.333 -146 82 -146s82 48 82 144c0 98 -27.333 147 -82 147s-82 -48.333 -82 -145z" />
    <glyph glyph-name="one.t_osf" horiz-adv-x="600" 
d="M95 0v135h143v172l1 74h-2c-10 -12 -22.667 -22.667 -38 -32l-55 -31l-79 118l193 119h147v-420h134v-135h-444z" />
    <glyph glyph-name="two.t_osf" horiz-adv-x="600" 
d="M71 0l0.000976562 115.003c179.333 107.333 269 189.666 269 246.999c0 21.333 -6.66699 36.833 -20 46.5s-28.666 14.5 -45.999 14.5c-20.667 0 -42.334 -5.83301 -65.001 -17.5s-40.334 -23.167 -53.001 -34.5l-19 -17l-85 106c2.66699 2.66699 6.16699 6.5 10.5 11.5
s14.5 13.667 30.5 26s32.833 23.166 50.5 32.499s40.5 17.833 68.5 25.5s56.667 11.5 86 11.5c57.333 0 107.833 -15.333 151.5 -46s65.5 -75.667 65.5 -135c0 -94.667 -70.667 -179.334 -212 -254.001v-2c15.333 3.33301 38 5 68 5h170v-135h-470z" />
    <glyph glyph-name="three.t_osf" horiz-adv-x="600" 
d="M52 -38l76.002 117.001c4.66699 -4.66699 11.167 -10.334 19.5 -17.001s24.666 -15.667 48.999 -27s48.166 -17 71.499 -17c30 0 53.5 7.33301 70.5 22s25.5 33 25.5 55c0 22.667 -9.66699 40.834 -29 54.501s-47 20.5 -83 20.5l-33 -2l-34 75l117 154l34 34v2
c-16.667 -2 -31.667 -3 -45 -3h-82v-69h-139v194h441v-112l-123 -159c43.333 -10 79 -31.5 107 -64.5s42 -71.833 42 -116.5c0 -62.667 -22.167 -116.334 -66.5 -161.001s-107.833 -67 -190.5 -67c-28 0 -54.833 3 -80.5 9s-47.167 13.167 -64.5 21.5
s-32.5 16.833 -45.5 25.5s-22.5 16 -28.5 22z" />
    <glyph glyph-name="four.t_osf" horiz-adv-x="600" 
d="M11 28v101l257 426h223v-397h85v-130h-85v-144h-169v144h-311zM181 158h141v180l7 74h-4c-8.66699 -24 -19 -46 -31 -66z" />
    <glyph glyph-name="five.t_osf" horiz-adv-x="600" 
d="M47 -42l73 122.002c4.66699 -4.66699 11.334 -10.5 20.001 -17.5s25.5 -16.5 50.5 -28.5s49.167 -18 72.5 -18c28 0 52.5 7.66699 73.5 23s31.5 36.666 31.5 63.999s-10.333 48.333 -31 63s-47 22 -79 22c-16 0 -32.167 -1.83301 -48.5 -5.5
s-28.833 -7.16699 -37.5 -10.5l-12 -6l-88 33l29 356h396v-195h-145v70h-104l-4 -85l-4 -32h2c13.333 4.66699 33.333 7 60 7c74 0 132.5 -20.333 175.5 -61s64.5 -92 64.5 -154c0 -66.667 -25 -122.167 -75 -166.5s-113 -66.5 -189 -66.5c-27.333 0 -54 3 -80 9
s-47.667 13.167 -65 21.5s-32.833 16.666 -46.5 24.999s-23.834 15.5 -30.501 21.5z" />
    <glyph glyph-name="six.t_osf" horiz-adv-x="600" 
d="M39 305c0 47.333 7.16699 92.999 21.5 136.999s34.833 84.167 61.5 120.5s61.667 65.5 105 87.5s91.666 33 144.999 33c30.667 0 59.334 -2.5 86.001 -7.5s46 -9.83301 58 -14.5l17 -7l-47 -135c-31.333 13.333 -65 20 -101 20c-38 0 -70 -11.167 -96 -33.5
s-45 -50.166 -57 -83.499h2c8.66699 5.33301 23.667 10.5 45 15.5s40.333 7.5 57 7.5c71.333 0 127.833 -22.5 169.5 -67.5s62.5 -98.5 62.5 -160.5c0 -60.667 -22 -114 -66 -160s-102.667 -69 -176 -69c-80.667 0 -148.667 26.833 -204 80.5s-83 132.5 -83 236.5z
M215 271.999c0 -38.667 10.668 -71.667 32.001 -99s47.666 -41 78.999 -41c21.333 0 38.333 7.5 51 22.5s19 34.833 19 59.5c0 26.667 -8.83301 49.667 -26.5 69s-44.167 29 -79.5 29c-50 0 -75 -13.333 -75 -40z" />
    <glyph glyph-name="seven.t_osf" horiz-adv-x="600" 
d="M89 -116l257.998 503c4.66699 8.66699 9.33398 16.667 14.001 24s8.33398 12.333 11.001 15l3 5v2c-14.667 -2 -32 -3 -52 -3h-123v-70h-145v195h502v-115l-287 -556h-181z" />
    </font>
</defs>
</svg>
