<?xml version="1.0" encoding="utf-8"?>
<svg version="1.1" xmlns="http://www.w3.org/2000/svg" xmlns:xlink="http://www.w3.org/1999/xlink" x="0px" y="0px"
	 viewBox="0 0 64.5 37" enable-background="new 0 0 64.5 37" xml:space="preserve">
<path fill="#FFFFFF" d="M62.8,1.8c-2.3-2.4-6.1-2.5-8.5-0.2l-21.9,21L10.1,1.6C7.7-0.6,3.9-0.5,1.6,1.9c-2.3,2.4-2.2,6.2,0.2,8.5
	l26.5,25c0.1,0.1,0.3,0.2,0.4,0.3c0.1,0.1,0.3,0.2,0.4,0.3c0.2,0.1,0.4,0.2,0.6,0.4c0.1,0.1,0.3,0.1,0.4,0.2
	c0.3,0.1,0.5,0.2,0.8,0.2c0.1,0,0.2,0.1,0.3,0.1c0.4,0.1,0.8,0.1,1.1,0.1h0h0c0.4,0,0.8,0,1.2-0.1c0.1,0,0.2-0.1,0.4-0.1
	c0.3-0.1,0.5-0.1,0.7-0.2c0.2-0.1,0.3-0.2,0.4-0.2c0.2-0.1,0.4-0.2,0.6-0.3c0.2-0.1,0.3-0.2,0.4-0.3c0.1-0.1,0.3-0.2,0.4-0.3l26-25
	C65,8,65.1,4.2,62.8,1.8z"/>
</svg>
