<?xml version="1.0" encoding="utf-8"?>
<!-- Generator: Adobe Illustrator 18.1.0, SVG Export Plug-In . SVG Version: 6.00 Build 0)  -->
<!DOCTYPE svg PUBLIC "-//W3C//DTD SVG 1.1//EN" "http://www.w3.org/Graphics/SVG/1.1/DTD/svg11.dtd">
<svg version="1.1" id="Layer_1" xmlns="http://www.w3.org/2000/svg" xmlns:xlink="http://www.w3.org/1999/xlink" x="0px" y="0px"
	 viewBox="0 0 283.5 44.8" enable-background="new 0 0 283.5 44.8" xml:space="preserve">
<g>
	<path fill="#FFFFFF" d="M138.3,20.9c0,3.6,2.8,4.1,4.2,4.1c0.5,0,0.7,0,0.7,0v-1.9c0,0-0.2,0-0.5,0c-0.8,0-2.3-0.3-2.3-2.5v-5h2.6
		V14h-2.6v-3h-2.1v3h-1.5v1.7h1.4V20.9z"/>
	<path fill="#FFFFFF" d="M144.9,11.9v13h2.1v-5.1c0-0.5,0-1,0.2-1.4c0.5-1.6,1.8-2.7,3.5-2.7c1.8,0,2.1,1.2,2.1,2.7v5.1
		c0,1,0.4,1.4,1.4,1.4h2.1v-1.8h-0.9c-0.3,0-0.5-0.2-0.5-0.5v-4.7c0-2.8-1.2-4.2-3.7-4.2c-2.2,0-3.6,1.4-4.1,2.4h0c0,0,0-0.4,0-0.9
		V11c0-0.9-0.4-1.3-1.4-1.3h-2.1v1.8h0.9C144.7,11.5,144.9,11.6,144.9,11.9z"/>
	<path fill="#FFFFFF" d="M162.8,25.2c2.6,0,4.2-1.6,4.2-1.6l-0.9-1.5c0,0-1.3,1.3-3.2,1.3c-1.9,0-3.6-1.3-3.8-3.6h8
		c0,0,0.1-0.6,0.1-0.9c0-2.8-1.6-5.1-4.7-5.1c-3.1,0-5.5,2.2-5.5,5.7C156.9,22.7,159.3,25.2,162.8,25.2z M162.4,15.4
		c1.4,0,2.5,1,2.6,2.8h-5.8C159.5,16.4,160.8,15.4,162.4,15.4z"/>
	<path fill="#FFFFFF" d="M186.4,16.7c0.2-0.4,0.3-0.9,0.5-1.3c0,0.4,0,0.8,0,1.2l0.5,6.8c0.1,1,0.4,1.6,1.6,1.6h2.6v-2.8h-0.9
		c-0.2,0-0.3,0-0.3-0.3l-1-12.6h-3.2l-3.2,7.4c-0.2,0.5-0.5,1.2-0.6,1.6c-0.1-0.4-0.4-1.1-0.6-1.6l-3.2-7.4h-3.2l-1,12.6
		c0,0.2-0.1,0.3-0.3,0.3h-0.9v2.8h2.6c1.1,0,1.6-0.5,1.7-1.6l0.5-6.8c0-0.4,0-0.9,0-1.3c0.1,0.4,0.3,0.9,0.5,1.3l2.6,5.8h2.5
		L186.4,16.7z"/>
	<path fill="#FFFFFF" d="M198.4,13.5c-3.5,0-6.2,2.6-6.2,6c0,3.4,2.7,6,6.2,6c3.6,0,6.2-2.6,6.2-6C204.6,16,202,13.5,198.4,13.5z
		 M198.4,22.7c-1.7,0-3.1-1.4-3.1-3.2c0-1.8,1.3-3.2,3.1-3.2c1.8,0,3.1,1.4,3.1,3.2C201.5,21.3,200.2,22.7,198.4,22.7z"/>
	<path fill="#FFFFFF" d="M212.4,16.3c1.1,0,1.5,0.6,1.5,2.1v5.1c0,1.1,0.5,1.7,1.7,1.7h2.8v-2.7h-1.1c-0.2,0-0.3-0.1-0.3-0.3v-4.3
		c0-2.9-1.4-4.4-4-4.4c-2,0-3.1,1.1-3.7,1.8v-0.1c0-0.9-0.6-1.4-1.6-1.4H205v2.7h1.1c0.2,0,0.3,0.1,0.3,0.3v8.4h3.1v-5.2
		c0-0.5,0.1-1,0.2-1.4C210,17.2,211.1,16.3,212.4,16.3z"/>
	<path fill="#FFFFFF" d="M224.8,25.4c2.8,0,4.5-1.6,4.6-1.7l0.1-0.1l-1.3-2.2l-0.2,0.2c0,0-1.3,1.2-3,1.2c-1.6,0-2.8-1-3.1-2.6h7.6
		l0-0.2c0,0,0.1-0.7,0.1-1c0-3.2-2-5.4-5.1-5.4c-3.4,0-5.8,2.4-5.8,6C218.7,22.9,221.2,25.4,224.8,25.4z M222,17.8
		c0.3-1.2,1.2-1.8,2.5-1.8c1,0,1.8,0.8,1.9,1.8H222z"/>
	<path fill="#FFFFFF" d="M232.5,27c-0.8,0-1.4-0.7-1.4-0.7l-0.2-0.2l-1.3,2.3l0.1,0.1c0,0,1.1,1.2,2.9,1.2c1.9,0,3.4-1.1,4.1-3
		l4-9.9c0.1-0.2,0.2-0.3,0.4-0.3h0.5v-2.7h-2c-0.9,0-1.4,0.4-1.6,1.2l-1.9,5.5c-0.1,0.2-0.1,0.5-0.2,0.8c-0.1-0.3-0.1-0.5-0.2-0.8
		l-2.2-5.5c-0.3-0.8-0.8-1.2-1.6-1.2h-2v2.7h0.5c0.2,0,0.3,0,0.4,0.3l3.6,8.2l-0.3,0.8C233.8,26.5,233.2,27,232.5,27z"/>
	<path fill="#FFFFFF" d="M149.9,41.4l-4.6-12.6h-3.2l-4.6,12.6c-0.1,0.3-0.2,0.3-0.5,0.3h-0.5v2.8h1.9c1.1,0,1.6-0.3,2-1.4l0.9-2.6
		h4.9l0.9,2.6c0.4,1.1,0.8,1.4,2,1.4h1.9v-2.8h-0.5C150.1,41.8,150,41.7,149.9,41.4z M143.7,32.7c0.1,0.5,0.3,1.1,0.4,1.6l1.2,3.6
		H142l1.2-3.6C143.4,33.8,143.6,33.2,143.7,32.7z"/>
	<path fill="#FFFFFF" d="M162.4,41.6V30.5c0-1.1-0.5-1.7-1.7-1.7H158v2.7h1.1c0.2,0,0.3,0.1,0.3,0.3v1.9c0,0.1,0,0.1,0,0.2
		c-0.4-0.4-1.4-1-3-1c-3.1,0-5.2,2.4-5.2,6c0,3.6,2,6,5.1,6c1.8,0,2.8-0.9,3.3-1.4c0,0.5,0.3,1.2,1.5,1.2h2.7v-2.7h-1
		C162.5,41.8,162.4,41.8,162.4,41.6z M156.8,42.1c-1.5,0-2.5-1.3-2.5-3.3c0-1.9,1-3.2,2.6-3.2c1.7,0,2.5,1.6,2.5,3.2
		C159.4,41.2,158.1,42.1,156.8,42.1z"/>
	<path fill="#FFFFFF" d="M171.7,34.3l-2.1,5.8c-0.1,0.3-0.2,0.6-0.2,0.8c-0.1-0.3-0.2-0.6-0.3-0.8l-2.1-5.8
		c-0.3-0.8-0.8-1.2-1.8-1.2h-1.8v2.7h0.4c0.2,0,0.4,0.1,0.4,0.3l3.2,8.4h3.5l3.2-8.4c0.1-0.2,0.2-0.3,0.4-0.3h0.4v-2.7h-1.7
		C172.5,33.1,172,33.5,171.7,34.3z"/>
	<path fill="#FFFFFF" d="M180.3,41.6v-6.8c0-1.1-0.5-1.7-1.6-1.7h-2.8v2.7h1.1c0.2,0,0.3,0.1,0.3,0.3v6.7c0,1.1,0.5,1.7,1.6,1.7h2.8
		v-2.7h-1.1C180.4,41.8,180.3,41.8,180.3,41.6z"/>
	<rect x="177.3" y="28.8" fill="#FFFFFF" width="2.8" height="2.9"/>
	<path fill="#FFFFFF" d="M191.5,40.6c0,0-1.3,1.4-3.1,1.4c-1.6,0-3.2-1-3.2-3.2c0-1.9,1.3-3.2,3.1-3.2c0.6,0,1.4,0.2,1.4,0.7V37h2.8
		v-1.5c0-2-2.5-2.7-4.2-2.7c-4.1,0-6.2,3-6.2,6c0,3.4,2.6,6,6.1,6c3.1,0,4.7-2,4.8-2.1l0.1-0.1l-1.3-2.2L191.5,40.6z"/>
	<path fill="#FFFFFF" d="M199,32.9c-3.4,0-5.8,2.4-5.8,6c0,3.4,2.6,6,6.1,6c2.8,0,4.5-1.6,4.6-1.7L204,43l-1.3-2.2l-0.2,0.2
		c0,0-1.3,1.2-3,1.2c-1.6,0-2.8-1-3.1-2.6h7.6l0-0.2c0,0,0.1-0.7,0.1-1C204.1,35.1,202.1,32.9,199,32.9z M199,35.4
		c1,0,1.8,0.8,1.9,1.8h-4.3C196.9,36,197.8,35.4,199,35.4z"/>
	<path fill="#FFFFFF" d="M216.9,35.1c-1.4-0.6-2.6-1.1-2.6-2.1c0-0.9,0.8-1.5,2.1-1.5c0.9,0,1.8,0.4,1.8,1v0.9h2.9v-1.6
		c0-2.3-2.9-3.2-4.7-3.2c-3.1,0-5.3,1.9-5.3,4.5c0,2.9,2.5,4,4.5,4.9c1.4,0.7,2.7,1.2,2.7,2.2c0,1.1-1,1.6-2,1.6
		c-2,0-3.6-1.7-3.6-1.7l-0.1-0.2l-1.8,2.3l0.1,0.1c0.1,0.1,2,2.4,5.4,2.4c3.1,0,5.3-1.9,5.3-4.7C221.5,37,219,35.9,216.9,35.1z"/>
	<path fill="#FFFFFF" d="M228.2,32.9c-3.4,0-5.8,2.4-5.8,6c0,3.4,2.6,6,6.1,6c2.8,0,4.5-1.6,4.6-1.7l0.1-0.1l-1.3-2.2l-0.2,0.2
		c0,0-1.3,1.2-3,1.2c-1.6,0-2.8-1-3.1-2.6h7.6l0-0.2c0,0,0.1-0.7,0.1-1C233.2,35.1,231.2,32.9,228.2,32.9z M228.2,35.4
		c1,0,1.8,0.8,1.9,1.8h-4.3C226,36,226.9,35.4,228.2,35.4z"/>
	<path fill="#FFFFFF" d="M241.4,33c-1.4,0-2.6,0.8-3.3,2.1v-0.4c0-1-0.6-1.5-1.7-1.5h-2.7v2.7h1.1c0.2,0,0.3,0.1,0.3,0.3v8.4h3.1V40
		c0-0.6,0.1-1.2,0.2-1.7c0.5-1.6,1.8-2.2,2.8-2.2c0.4,0,0.6,0,0.6,0l0.2,0v-3.1l-0.2,0C242,33,241.7,33,241.4,33z"/>
	<path fill="#FFFFFF" d="M251,34.3l-2.1,5.8c-0.1,0.3-0.2,0.6-0.2,0.8c-0.1-0.3-0.2-0.6-0.3-0.8l-2.1-5.8c-0.3-0.8-0.8-1.2-1.8-1.2
		h-1.8v2.7h0.4c0.2,0,0.4,0.1,0.4,0.3l3.2,8.4h3.5l3.2-8.4c0.1-0.2,0.2-0.3,0.4-0.3h0.5v-2.7h-1.7C251.9,33.1,251.3,33.5,251,34.3z"
		/>
	<rect x="256.7" y="28.8" fill="#FFFFFF" width="2.8" height="2.9"/>
	<path fill="#FFFFFF" d="M259.7,41.6v-6.8c0-1.1-0.5-1.7-1.6-1.7h-2.8v2.7h1.1c0.2,0,0.3,0.1,0.3,0.3v6.7c0,1.1,0.5,1.7,1.6,1.7h2.8
		v-2.7h-1.1C259.7,41.8,259.7,41.8,259.7,41.6z"/>
	<path fill="#FFFFFF" d="M270.9,40.6c0,0-1.3,1.4-3.1,1.4c-1.6,0-3.2-1-3.2-3.2c0-1.9,1.3-3.2,3.1-3.2c0.6,0,1.4,0.2,1.4,0.7V37h2.8
		v-1.5c0-2-2.5-2.7-4.2-2.7c-4.1,0-6.2,3-6.2,6c0,3.4,2.6,6,6.1,6c3.1,0,4.7-2,4.8-2.1l0.1-0.1l-1.3-2.2L270.9,40.6z"/>
	<path fill="#FFFFFF" d="M283.4,39.3c0,0,0.1-0.7,0.1-1c0-3.2-2-5.4-5.1-5.4c-3.4,0-5.8,2.4-5.8,6c0,3.4,2.6,6,6.1,6
		c2.8,0,4.5-1.6,4.6-1.7l0.1-0.1l-1.3-2.2l-0.2,0.2c0,0-1.3,1.2-3,1.2c-1.6,0-2.8-1-3.1-2.6h7.6L283.4,39.3z M278.4,35.4
		c1,0,1.8,0.8,1.9,1.8h-4.3C276.3,36,277.2,35.4,278.4,35.4z"/>
</g>
<g>
	<path fill="#FFFFFF" d="M81.8,0C57.3,0,37.4,19.9,37.4,44.5h3.3c0-22.7,18.5-41.2,41.2-41.2c22.7,0,41.2,18.5,41.2,41.2h3.3
		C126.3,19.9,106.3,0,81.8,0z"/>
	<path fill="#FFFFFF" d="M81.8,6C60.6,6,43.4,23.3,43.4,44.5h3.3c0-19.4,15.8-35.2,35.2-35.2S117,25.1,117,44.5h3.3
		C120.2,23.3,103,6,81.8,6z"/>
	<path fill="#FFFFFF" d="M81.8,12.1c-17.9,0-32.4,14.5-32.4,32.4h3.3c0-16.1,13.1-29.1,29.1-29.1c16.1,0,29.1,13.1,29.1,29.1h3.3
		C114.2,26.6,99.7,12.1,81.8,12.1z"/>
	<path fill="#FFFFFF" d="M81.8,18.1c-14.5,0-26.3,11.8-26.3,26.3h3.3c0-12.7,10.4-23.1,23.1-23.1c12.7,0,23.1,10.4,23.1,23.1h3.3
		C108.2,29.9,96.3,18.1,81.8,18.1z"/>
	<path fill="#FFFFFF" d="M81.8,24.2c-11.2,0-20.3,9.1-20.3,20.3h3.3c0-9.4,7.6-17,17-17s17,7.6,17,17h3.3
		C102.1,33.3,93,24.2,81.8,24.2z"/>
</g>
<g>
	<path fill="#FFFFFF" d="M32.4,12.1C14.5,12.1,0,26.6,0,44.5h3.3c0-16.1,13.1-29.1,29.1-29.1c4.8,0,9.3,1.2,13.3,3.2
		c0.6-0.9,1.3-1.8,2-2.6C43.2,13.5,37.9,12.1,32.4,12.1z"/>
	<path fill="#FFFFFF" d="M6,44.5h3.3c0-12.7,10.4-23.1,23.1-23.1c3.6,0,7.1,0.8,10.1,2.3c0.5-1,1.1-1.9,1.6-2.8
		c-3.5-1.8-7.5-2.8-11.7-2.8C17.9,18.1,6,29.9,6,44.5z"/>
	<path fill="#FFFFFF" d="M12.1,44.5h3.3c0-9.4,7.6-17,17-17c2.8,0,5.4,0.7,7.7,1.8c0.4-1,0.8-2,1.2-3c-2.7-1.3-5.7-2.1-8.9-2.1
		C21.2,24.2,12.1,33.3,12.1,44.5z"/>
	<path fill="#FFFFFF" d="M18.1,44.5h3.3c0-6.1,4.9-11,11-11c2.2,0,4.2,0.6,5.9,1.7c0.2-1.1,0.5-2.2,0.8-3.3c-2-1.1-4.3-1.7-6.8-1.7
		C24.5,30.2,18.1,36.6,18.1,44.5z"/>
	<path fill="#FFFFFF" d="M24.2,44.5h3.3c0-2.7,2.2-5,5-5s5,2.2,5,5v0c0-2.1,0.1-4.2,0.4-6.2c-1.4-1.3-3.3-2-5.4-2
		C27.9,36.2,24.2,39.9,24.2,44.5z"/>
</g>
</svg>
