<?xml version="1.0" encoding="utf-8"?>
<svg version="1.1" xmlns="http://www.w3.org/2000/svg" xmlns:xlink="http://www.w3.org/1999/xlink" x="0px" y="0px"
	 viewBox="0 0 50.8 51.3" enable-background="new 0 0 50.8 51.3" xml:space="preserve">
<path fill="#ffffff" d="M49.4,42.8L37.1,30.5c1.9-3.2,2.9-7,2.7-10.8C39.3,10.2,31.5,0,19.9,0C8.9,0,0,8.9,0,19.9
	c0,11.5,10.2,19.3,19.6,19.9c0.4,0,0.7,0,1.1,0c3.8,0,6.9-1.2,9.1-2.4l12.4,12.4c1,1,2.3,1.5,3.5,1.5s2.6-0.5,3.5-1.5
	c1-1,1.5-2.3,1.5-3.5S50.3,43.8,49.4,42.8z M20.1,31.8C15,31.5,8,27.2,8,19.9C8,13.3,13.3,8,19.9,8c7.4,0,11.6,7,11.9,12.1
	c0.1,1.3,0,5.7-3.6,8.9C28.1,29.1,24.7,32.1,20.1,31.8z"/>
</svg>
