<svg version="1.1" id="Layer_1" xmlns="http://www.w3.org/2000/svg" x="0px" y="0px"
	 viewBox="0 0 44 44" enable-background="new 0 0 44 44" xml:space="preserve">
<g>
	<path fill="#FFFFFF" d="M25.5,10.1c0,0-5,0-6.7,0c-3.5,0-6.3,3-6.3,5.8c0,2.9,1.9,5.3,5.1,5.3c0.2,0,0.4,0.1,0.7,0.1
		c-0.2,0.4-0.4,0.9-0.4,1.4c0,0.8,0.4,1.3,1,1.8c-0.4,0-0.8,0-1.3,0c-3.9,0-6.7,2.7-6.7,5.3c0,2.6,3.3,4.2,7.2,4.2
		c4.5,0,7.2-2.6,7.2-5.1c0-2-0.4-3.1-2.6-4.7c-0.7-0.5-2-1.4-2-2.1c0-0.8,0.2-1.1,1.4-2c1.2-0.9,2-2.1,2-3.6c0-1.6-0.7-2.7-1.9-3.9
		H24L25.5,10.1z M23,28.5c0.1,0.2,0.1,0.5,0.1,0.7c0,2.1-1.3,3.7-5.1,3.7c-2.7,0-4.6-1.7-4.6-3.8s2.3-3.8,5-3.8
		c0.7,0,1.3,0.1,1.7,0.3C21.6,26.7,22.7,27.3,23,28.5z M18.7,20.4c-1.8-0.1-3.6-1.7-3.9-4.1c-0.3-2.4,0.9-4.2,2.7-4.2
		c1.8,0.1,3.4,2,3.7,4.4C21.6,18.9,20.5,20.5,18.7,20.4z"/>
	<polygon fill="#FFFFFF" points="30.7,13.7 30.7,10.1 29.5,10.1 29.5,13.7 25.9,13.7 25.9,14.9 29.5,14.9 29.5,18.5 30.7,18.5
		30.7,14.9 33.1,14.9 33.1,13.7 	"/>
</g>
</svg>
