<svg version="1.1" id="Layer_1" xmlns="http://www.w3.org/2000/svg" x="0px" y="0px"
	 viewBox="0 0 44 44" enable-background="new 0 0 44 44" xml:space="preserve">
<path fill="#FFFFFF" d="M23.9,27.6c-1.6,0-3-0.9-3.5-1.8c0,0-0.9,3.3-1.1,4c-0.7,2.3-2.5,4.5-2.6,4.7c-0.1,0.1-0.3,0.1-0.3-0.1
	c-0.1-0.3-0.5-3.2,0.1-5.5c0.3-1.2,1.8-7.9,1.8-7.9s-0.5-0.9-0.5-2.3c0-2.2,1.2-3.7,2.8-3.7c1.3,0,2,1,2,2.2c0,1.3-0.9,3.3-1.2,5.1
	c-0.4,1.5,0.8,2.8,2.3,2.8c2.8,0,4.6-3.5,4.6-7.7c0-3.2-2.2-5.6-6-5.6c-4.4,0-7.2,3.3-7.2,7c0,1.2,0.4,2.2,1,2.8
	c0.3,0.3,0.3,0.5,0.2,0.8c-0.1,0.3-0.2,0.9-0.3,1.2c-0.1,0.4-0.4,0.5-0.7,0.4c-2-0.9-3-3-3-5.5c0-4.1,3.5-9.1,10.4-9.1
	c5.5,0,9.2,4,9.2,8.3C31.7,23.3,28.6,27.6,23.9,27.6z"/>
</svg>
