<svg version="1.1" id="Layer_1" xmlns="http://www.w3.org/2000/svg" x="0px" y="0px"
	 viewBox="0 0 44 44" enable-background="new 0 0 44 44" xml:space="preserve">
<g>
	<polygon fill="#FFFFFF" points="27.2,19 16.7,19 16.7,13.1 25.2,13.1 27.2,14.9 27.2,14.9 	"/>
</g>
<path fill="#FFFFFF" d="M30.4,19.9H13.6c-0.5,0-0.9,0.4-0.9,0.9v6.7h2.8v-4.1h13.2v4.1h2.8v-6.7C31.3,20.3,30.9,19.9,30.4,19.9z
	 M29.3,22.1c-0.4,0-0.7-0.3-0.7-0.7s0.3-0.7,0.7-0.7c0.4,0,0.7,0.3,0.7,0.7S29.7,22.1,29.3,22.1z"/>
<path fill="#FFFFFF" d="M26.4,29.1h-4.4"/>
<polyline fill="#FFFFFF" points="17.5,24.7 16.4,24.7 16.4,29.9 20.6,29.9 20.6,29.9 27.5,29.9 27.5,24.7 "/>
</svg>
