<svg version="1.1" id="Layer_1" xmlns="http://www.w3.org/2000/svg" x="0px" y="0px"
	 viewBox="0 0 44 44" enable-background="new 0 0 44 44" xml:space="preserve">
<path fill="#FFFFFF" d="M31.6,17.1c0,0.2,0,0.4,0,0.6c0,6.5-5,14.1-14.1,14.1c-2.8,0-5.4-0.8-7.6-2.2c0.4,0.1,0.8,0.1,1.2,0.1
	c2.3,0,4.5-0.8,6.1-2.1c-2.2-0.1-4-1.4-4.6-3.4c0.3,0.1,0.6,0.1,0.9,0.1c0.4,0,0.9-0.1,1.3-0.2c-2.3-0.4-3.9-2.4-3.9-4.8v-0.1
	c0.7,0.4,1.4,0.6,2.3,0.6c-1.3-0.9-2.2-2.4-2.2-4.1c0-0.9,0.3-1.8,0.7-2.5c2.4,3,6.1,5,10.2,5.1c-0.1-0.4-0.1-0.8-0.1-1.1
	c0-2.8,2.2-5,5-5c1.4,0,2.7,0.6,3.6,1.6c1.1-0.3,2.2-0.6,3.1-1.2c-0.4,1.1-1.1,2.1-2.2,2.8c1-0.1,1.9-0.4,2.8-0.8
	C33.4,15.5,32.5,16.4,31.6,17.1z"/>
</svg>
